<svg xmlns="http://www.w3.org/2000/svg" width="1125" height="700"><path d="M527,399L457,412L532,452Z" fill="rgb(12,49,105)" stroke="rgb(12,49,105)" stroke-width="1.51"/><path d="M457,412L426,468L532,452Z" fill="rgb(20,48,100)" stroke="rgb(20,48,100)" stroke-width="1.51"/><path d="M571,545L575,485L532,452Z" fill="rgb(30,42,91)" stroke="rgb(30,42,91)" stroke-width="1.51"/><path d="M532,452L626,398L527,399Z" fill="rgb(11,47,105)" stroke="rgb(11,47,105)" stroke-width="1.51"/><path d="M457,412L390,446L426,468Z" fill="rgb(21,52,101)" stroke="rgb(21,52,101)" stroke-width="1.51"/><path d="M426,468L419,535L532,452Z" fill="rgb(28,46,92)" stroke="rgb(28,46,92)" stroke-width="1.51"/><path d="M343,528L419,535L426,468Z" fill="rgb(34,50,88)" stroke="rgb(34,50,88)" stroke-width="1.51"/><path d="M575,485L626,398L532,452Z" fill="rgb(20,45,100)" stroke="rgb(20,45,100)" stroke-width="1.51"/><path d="M575,485L668,488L626,398Z" fill="rgb(22,43,98)" stroke="rgb(22,43,98)" stroke-width="1.51"/><path d="M544,577L571,545L532,452Z" fill="rgb(34,40,85)" stroke="rgb(34,40,85)" stroke-width="1.51"/><path d="M527,399L428,305L457,412Z" fill="rgb(11,54,105)" stroke="rgb(11,54,105)" stroke-width="1.51"/><path d="M457,412L357,369L390,446Z" fill="rgb(16,57,105)" stroke="rgb(16,57,105)" stroke-width="1.51"/><path d="M513,279L428,305L527,399Z" fill="rgb(11,55,105)" stroke="rgb(11,55,105)" stroke-width="1.51"/><path d="M624,279L513,279L527,399Z" fill="rgb(11,54,105)" stroke="rgb(11,54,105)" stroke-width="1.51"/><path d="M428,305L357,369L457,412Z" fill="rgb(14,58,105)" stroke="rgb(14,58,105)" stroke-width="1.51"/><path d="M390,446L343,528L426,468Z" fill="rgb(31,53,93)" stroke="rgb(31,53,93)" stroke-width="1.51"/><path d="M419,535L544,577L532,452Z" fill="rgb(34,42,86)" stroke="rgb(34,42,86)" stroke-width="1.51"/><path d="M428,305L350,343L357,369Z" fill="rgb(16,62,105)" stroke="rgb(16,62,105)" stroke-width="1.51"/><path d="M571,545L668,488L575,485Z" fill="rgb(31,39,88)" stroke="rgb(31,39,88)" stroke-width="1.51"/><path d="M686,518L668,488L571,545Z" fill="rgb(33,37,86)" stroke="rgb(33,37,86)" stroke-width="1.51"/><path d="M292,385L390,446L357,369Z" fill="rgb(19,62,105)" stroke="rgb(19,62,105)" stroke-width="1.51"/><path d="M262,438L343,528L390,446Z" fill="rgb(31,60,95)" stroke="rgb(31,60,95)" stroke-width="1.51"/><path d="M419,535L462,637L544,577Z" fill="rgb(49,55,91)" stroke="rgb(49,55,91)" stroke-width="1.51"/><path d="M428,305L414,261L350,343Z" fill="rgb(14,63,105)" stroke="rgb(14,63,105)" stroke-width="1.51"/><path d="M513,279L414,261L428,305Z" fill="rgb(10,59,105)" stroke="rgb(10,59,105)" stroke-width="1.51"/><path d="M668,488L682,405L626,398Z" fill="rgb(14,43,103)" stroke="rgb(14,43,103)" stroke-width="1.51"/><path d="M626,398L624,279L527,399Z" fill="rgb(11,50,105)" stroke="rgb(11,50,105)" stroke-width="1.51"/><path d="M682,282L624,279L626,398Z" fill="rgb(11,50,105)" stroke="rgb(11,50,105)" stroke-width="1.51"/><path d="M513,279L535,209L414,261Z" fill="rgb(14,62,105)" stroke="rgb(14,62,105)" stroke-width="1.51"/><path d="M624,279L606,260L513,279Z" fill="rgb(12,56,105)" stroke="rgb(12,56,105)" stroke-width="1.51"/><path d="M350,343L292,385L357,369Z" fill="rgb(19,66,105)" stroke="rgb(19,66,105)" stroke-width="1.51"/><path d="M269,296L292,385L350,343Z" fill="rgb(19,70,104)" stroke="rgb(19,70,104)" stroke-width="1.51"/><path d="M668,488L796,467L682,405Z" fill="rgb(27,38,93)" stroke="rgb(27,38,93)" stroke-width="1.51"/><path d="M627,650L686,518L571,545Z" fill="rgb(42,41,84)" stroke="rgb(42,41,84)" stroke-width="1.51"/><path d="M385,612L462,637L419,535Z" fill="rgb(55,66,97)" stroke="rgb(55,66,97)" stroke-width="1.51"/><path d="M544,577L627,650L571,545Z" fill="rgb(52,56,95)" stroke="rgb(52,56,95)" stroke-width="1.51"/><path d="M343,528L385,612L419,535Z" fill="rgb(40,48,78)" stroke="rgb(40,48,78)" stroke-width="1.51"/><path d="M606,260L535,209L513,279Z" fill="rgb(15,60,105)" stroke="rgb(15,60,105)" stroke-width="1.51"/><path d="M462,637L494,659L544,577Z" fill="rgb(68,80,114)" stroke="rgb(68,80,114)" stroke-width="1.51"/><path d="M504,677L494,659L415,685Z" fill="rgb(91,116,142)" stroke="rgb(91,116,142)" stroke-width="1.51"/><path d="M292,385L262,438L390,446Z" fill="rgb(21,64,104)" stroke="rgb(21,64,104)" stroke-width="1.51"/><path d="M343,528L279,606L385,612Z" fill="rgb(51,66,90)" stroke="rgb(51,66,90)" stroke-width="1.51"/><path d="M606,260L587,150L535,209Z" fill="rgb(19,66,105)" stroke="rgb(19,66,105)" stroke-width="1.51"/><path d="M624,279L656,205L606,260Z" fill="rgb(16,58,105)" stroke="rgb(16,58,105)" stroke-width="1.51"/><path d="M682,405L682,282L626,398Z" fill="rgb(11,47,105)" stroke="rgb(11,47,105)" stroke-width="1.51"/><path d="M757,362L682,282L682,405Z" fill="rgb(18,46,101)" stroke="rgb(18,46,101)" stroke-width="1.51"/><path d="M494,659L504,677L544,577Z" fill="rgb(74,88,122)" stroke="rgb(74,88,122)" stroke-width="1.51"/><path d="M415,685L494,659L462,637Z" fill="rgb(84,107,134)" stroke="rgb(84,107,134)" stroke-width="1.51"/><path d="M504,677L627,650L544,577Z" fill="rgb(73,85,120)" stroke="rgb(73,85,120)" stroke-width="1.51"/><path d="M262,438L260,532L343,528Z" fill="rgb(37,62,89)" stroke="rgb(37,62,89)" stroke-width="1.51"/><path d="M414,261L269,296L350,343Z" fill="rgb(17,68,105)" stroke="rgb(17,68,105)" stroke-width="1.51"/><path d="M292,385L177,361L262,438Z" fill="rgb(23,73,104)" stroke="rgb(23,73,104)" stroke-width="1.51"/><path d="M363,196L269,296L414,261Z" fill="rgb(17,73,105)" stroke="rgb(17,73,105)" stroke-width="1.51"/><path d="M686,518L796,467L668,488Z" fill="rgb(32,36,86)" stroke="rgb(32,36,86)" stroke-width="1.51"/><path d="M683,654L738,544L686,518Z" fill="rgb(44,39,81)" stroke="rgb(44,39,81)" stroke-width="1.51"/><path d="M471,117L363,196L414,261Z" fill="rgb(18,77,104)" stroke="rgb(18,77,104)" stroke-width="1.51"/><path d="M385,612L415,685L462,637Z" fill="rgb(78,99,125)" stroke="rgb(78,99,125)" stroke-width="1.51"/><path d="M349,699L415,685L385,612Z" fill="rgb(87,118,137)" stroke="rgb(87,118,137)" stroke-width="1.51"/><path d="M796,467L757,362L682,405Z" fill="rgb(24,40,96)" stroke="rgb(24,40,96)" stroke-width="1.51"/><path d="M682,282L656,205L624,279Z" fill="rgb(15,56,105)" stroke="rgb(15,56,105)" stroke-width="1.51"/><path d="M535,209L471,117L414,261Z" fill="rgb(17,71,105)" stroke="rgb(17,71,105)" stroke-width="1.51"/><path d="M730,228L656,205L682,282Z" fill="rgb(20,57,103)" stroke="rgb(20,57,103)" stroke-width="1.51"/><path d="M260,532L279,606L343,528Z" fill="rgb(42,58,78)" stroke="rgb(42,58,78)" stroke-width="1.51"/><path d="M627,650L683,654L686,518Z" fill="rgb(60,63,104)" stroke="rgb(60,63,104)" stroke-width="1.51"/><path d="M634,741L683,654L627,650Z" fill="rgb(95,114,147)" stroke="rgb(95,114,147)" stroke-width="1.51"/><path d="M587,150L521,137L535,209Z" fill="rgb(20,74,104)" stroke="rgb(20,74,104)" stroke-width="1.51"/><path d="M656,205L587,150L606,260Z" fill="rgb(20,65,105)" stroke="rgb(20,65,105)" stroke-width="1.51"/><path d="M738,544L796,467L686,518Z" fill="rgb(36,33,80)" stroke="rgb(36,33,80)" stroke-width="1.51"/><path d="M837,576L796,467L738,544Z" fill="rgb(40,30,71)" stroke="rgb(40,30,71)" stroke-width="1.51"/><path d="M172,482L260,532L262,438Z" fill="rgb(36,69,92)" stroke="rgb(36,69,92)" stroke-width="1.51"/><path d="M172,482L209,544L260,532Z" fill="rgb(40,67,84)" stroke="rgb(40,67,84)" stroke-width="1.51"/><path d="M363,196L261,235L269,296Z" fill="rgb(19,80,104)" stroke="rgb(19,80,104)" stroke-width="1.51"/><path d="M415,685L515,768L504,677Z" fill="rgb(103,134,158)" stroke="rgb(103,134,158)" stroke-width="1.51"/><path d="M504,677L634,741L627,650Z" fill="rgb(99,122,152)" stroke="rgb(99,122,152)" stroke-width="1.51"/><path d="M279,606L349,699L385,612Z" fill="rgb(76,105,121)" stroke="rgb(76,105,121)" stroke-width="1.51"/><path d="M656,205L666,132L587,150Z" fill="rgb(22,71,104)" stroke="rgb(22,71,104)" stroke-width="1.51"/><path d="M791,311L730,228L682,282Z" fill="rgb(24,50,98)" stroke="rgb(24,50,98)" stroke-width="1.51"/><path d="M791,311L682,282L757,362Z" fill="rgb(24,46,97)" stroke="rgb(24,46,97)" stroke-width="1.51"/><path d="M279,606L293,703L349,699Z" fill="rgb(90,129,138)" stroke="rgb(90,129,138)" stroke-width="1.51"/><path d="M260,532L209,544L279,606Z" fill="rgb(44,62,77)" stroke="rgb(44,62,77)" stroke-width="1.51"/><path d="M209,304L292,385L269,296Z" fill="rgb(20,76,104)" stroke="rgb(20,76,104)" stroke-width="1.51"/><path d="M541,86L471,117L521,137Z" fill="rgb(24,79,100)" stroke="rgb(24,79,100)" stroke-width="1.51"/><path d="M521,137L471,117L535,209Z" fill="rgb(20,77,104)" stroke="rgb(20,77,104)" stroke-width="1.51"/><path d="M363,196L328,164L261,235Z" fill="rgb(18,86,104)" stroke="rgb(18,86,104)" stroke-width="1.51"/><path d="M261,235L209,304L269,296Z" fill="rgb(18,80,104)" stroke="rgb(18,80,104)" stroke-width="1.51"/><path d="M371,87L328,164L363,196Z" fill="rgb(18,90,103)" stroke="rgb(18,90,103)" stroke-width="1.51"/><path d="M856,390L791,311L757,362Z" fill="rgb(30,42,90)" stroke="rgb(30,42,90)" stroke-width="1.51"/><path d="M209,304L177,361L292,385Z" fill="rgb(21,78,104)" stroke="rgb(21,78,104)" stroke-width="1.51"/><path d="M148,388L172,482L262,438Z" fill="rgb(30,72,98)" stroke="rgb(30,72,98)" stroke-width="1.51"/><path d="M683,654L767,620L738,544Z" fill="rgb(61,59,97)" stroke="rgb(61,59,97)" stroke-width="1.51"/><path d="M415,820L515,768L415,685Z" fill="rgb(103,135,158)" stroke="rgb(103,135,158)" stroke-width="1.51"/><path d="M683,654L774,728L767,620Z" fill="rgb(91,100,130)" stroke="rgb(91,100,130)" stroke-width="1.51"/><path d="M515,768L634,741L504,677Z" fill="rgb(104,131,158)" stroke="rgb(104,131,158)" stroke-width="1.51"/><path d="M349,699L368,799L415,685Z" fill="rgb(104,144,157)" stroke="rgb(104,144,157)" stroke-width="1.51"/><path d="M200,626L293,703L279,606Z" fill="rgb(80,118,124)" stroke="rgb(80,118,124)" stroke-width="1.51"/><path d="M200,626L279,606L209,544Z" fill="rgb(57,84,94)" stroke="rgb(57,84,94)" stroke-width="1.51"/><path d="M748,153L666,132L656,205Z" fill="rgb(25,69,102)" stroke="rgb(25,69,102)" stroke-width="1.51"/><path d="M587,150L541,86L521,137Z" fill="rgb(24,78,102)" stroke="rgb(24,78,102)" stroke-width="1.51"/><path d="M748,153L656,205L730,228Z" fill="rgb(26,63,100)" stroke="rgb(26,63,100)" stroke-width="1.51"/><path d="M591,73L541,86L587,150Z" fill="rgb(27,76,99)" stroke="rgb(27,76,99)" stroke-width="1.51"/><path d="M471,117L371,87L363,196Z" fill="rgb(20,87,103)" stroke="rgb(20,87,103)" stroke-width="1.51"/><path d="M796,467L856,390L757,362Z" fill="rgb(30,38,90)" stroke="rgb(30,38,90)" stroke-width="1.51"/><path d="M837,576L842,452L796,467Z" fill="rgb(39,31,72)" stroke="rgb(39,31,72)" stroke-width="1.51"/><path d="M172,482L153,500L209,544Z" fill="rgb(40,66,83)" stroke="rgb(40,66,83)" stroke-width="1.51"/><path d="M148,388L153,500L172,482Z" fill="rgb(35,70,91)" stroke="rgb(35,70,91)" stroke-width="1.51"/><path d="M177,361L148,388L262,438Z" fill="rgb(26,75,102)" stroke="rgb(26,75,102)" stroke-width="1.51"/><path d="M120,325L148,388L177,361Z" fill="rgb(28,76,97)" stroke="rgb(28,76,97)" stroke-width="1.51"/><path d="M101,518L200,626L209,544Z" fill="rgb(46,65,74)" stroke="rgb(46,65,74)" stroke-width="1.51"/><path d="M842,452L856,390L796,467Z" fill="rgb(35,35,83)" stroke="rgb(35,35,83)" stroke-width="1.51"/><path d="M816,144L748,153L730,228Z" fill="rgb(33,64,94)" stroke="rgb(33,64,94)" stroke-width="1.51"/><path d="M328,164L254,155L261,235Z" fill="rgb(18,91,103)" stroke="rgb(18,91,103)" stroke-width="1.51"/><path d="M261,235L202,210L209,304Z" fill="rgb(18,87,104)" stroke="rgb(18,87,104)" stroke-width="1.51"/><path d="M473,62L371,87L471,117Z" fill="rgb(27,81,97)" stroke="rgb(27,81,97)" stroke-width="1.51"/><path d="M209,304L120,325L177,361Z" fill="rgb(26,78,99)" stroke="rgb(26,78,99)" stroke-width="1.51"/><path d="M283,94L254,155L328,164Z" fill="rgb(15,98,102)" stroke="rgb(15,98,102)" stroke-width="1.51"/><path d="M254,155L202,210L261,235Z" fill="rgb(17,93,103)" stroke="rgb(17,93,103)" stroke-width="1.51"/><path d="M541,86L473,62L471,117Z" fill="rgb(27,79,97)" stroke="rgb(27,79,97)" stroke-width="1.51"/><path d="M541,86L507,15L473,62Z" fill="rgb(31,77,92)" stroke="rgb(31,77,92)" stroke-width="1.51"/><path d="M666,132L591,73L587,150Z" fill="rgb(26,75,101)" stroke="rgb(26,75,101)" stroke-width="1.51"/><path d="M707,819L701,735L634,741Z" fill="rgb(105,125,158)" stroke="rgb(105,125,158)" stroke-width="1.51"/><path d="M634,741L701,735L683,654Z" fill="rgb(104,126,158)" stroke="rgb(104,126,158)" stroke-width="1.51"/><path d="M839,650L837,576L767,620Z" fill="rgb(69,61,92)" stroke="rgb(69,61,92)" stroke-width="1.51"/><path d="M767,620L837,576L738,544Z" fill="rgb(51,40,77)" stroke="rgb(51,40,77)" stroke-width="1.51"/><path d="M842,452L907,471L856,390Z" fill="rgb(37,33,79)" stroke="rgb(37,33,79)" stroke-width="1.51"/><path d="M666,132L698,60L591,73Z" fill="rgb(30,73,97)" stroke="rgb(30,73,97)" stroke-width="1.51"/><path d="M849,243L730,228L791,311Z" fill="rgb(31,49,91)" stroke="rgb(31,49,91)" stroke-width="1.51"/><path d="M856,390L871,342L791,311Z" fill="rgb(33,40,85)" stroke="rgb(33,40,85)" stroke-width="1.51"/><path d="M933,308L871,342L949,408Z" fill="rgb(42,44,84)" stroke="rgb(42,44,84)" stroke-width="1.51"/><path d="M515,768L619,794L634,741Z" fill="rgb(104,129,158)" stroke="rgb(104,129,158)" stroke-width="1.51"/><path d="M148,388L101,518L153,500Z" fill="rgb(38,69,87)" stroke="rgb(38,69,87)" stroke-width="1.51"/><path d="M103,211L120,325L209,304Z" fill="rgb(26,80,97)" stroke="rgb(26,80,97)" stroke-width="1.51"/><path d="M287,803L368,799L349,699Z" fill="rgb(105,148,157)" stroke="rgb(105,148,157)" stroke-width="1.51"/><path d="M515,768L415,820L619,794Z" fill="rgb(104,132,158)" stroke="rgb(104,132,158)" stroke-width="1.51"/><path d="M287,803L349,699L293,703Z" fill="rgb(104,151,156)" stroke="rgb(104,151,156)" stroke-width="1.51"/><path d="M200,626L227,720L293,703Z" fill="rgb(97,147,146)" stroke="rgb(97,147,146)" stroke-width="1.51"/><path d="M147,654L227,720L200,626Z" fill="rgb(90,136,133)" stroke="rgb(90,136,133)" stroke-width="1.51"/><path d="M371,87L283,94L328,164Z" fill="rgb(21,94,100)" stroke="rgb(21,94,100)" stroke-width="1.51"/><path d="M254,155L212,119L202,210Z" fill="rgb(13,101,103)" stroke="rgb(13,101,103)" stroke-width="1.51"/><path d="M202,210L103,211L209,304Z" fill="rgb(24,87,98)" stroke="rgb(24,87,98)" stroke-width="1.51"/><path d="M330,18L283,94L371,87Z" fill="rgb(27,92,93)" stroke="rgb(27,92,93)" stroke-width="1.51"/><path d="M871,342L849,243L791,311Z" fill="rgb(34,43,86)" stroke="rgb(34,43,86)" stroke-width="1.51"/><path d="M368,799L415,820L415,685Z" fill="rgb(104,141,158)" stroke="rgb(104,141,158)" stroke-width="1.51"/><path d="M153,500L101,518L209,544Z" fill="rgb(42,65,78)" stroke="rgb(42,65,78)" stroke-width="1.51"/><path d="M49,537L101,518L31,474Z" fill="rgb(44,65,73)" stroke="rgb(44,65,73)" stroke-width="1.51"/><path d="M837,576L907,471L842,452Z" fill="rgb(41,28,68)" stroke="rgb(41,28,68)" stroke-width="1.51"/><path d="M774,728L839,650L767,620Z" fill="rgb(92,96,123)" stroke="rgb(92,96,123)" stroke-width="1.51"/><path d="M774,728L683,654L701,735Z" fill="rgb(106,124,152)" stroke="rgb(106,124,152)" stroke-width="1.51"/><path d="M752,804L774,728L701,735Z" fill="rgb(107,123,149)" stroke="rgb(107,123,149)" stroke-width="1.51"/><path d="M946,526L907,471L837,576Z" fill="rgb(43,25,60)" stroke="rgb(43,25,60)" stroke-width="1.51"/><path d="M871,342L913,258L849,243Z" fill="rgb(36,42,81)" stroke="rgb(36,42,81)" stroke-width="1.51"/><path d="M473,62L439,18L371,87Z" fill="rgb(30,81,92)" stroke="rgb(30,81,92)" stroke-width="1.51"/><path d="M591,73L507,15L541,86Z" fill="rgb(31,76,93)" stroke="rgb(31,76,93)" stroke-width="1.51"/><path d="M596,-25L507,15L591,73Z" fill="rgb(35,74,87)" stroke="rgb(35,74,87)" stroke-width="1.51"/><path d="M507,15L439,18L473,62Z" fill="rgb(32,78,89)" stroke="rgb(32,78,89)" stroke-width="1.51"/><path d="M101,518L147,654L200,626Z" fill="rgb(61,88,92)" stroke="rgb(61,88,92)" stroke-width="1.51"/><path d="M748,153L698,60L666,132Z" fill="rgb(31,72,97)" stroke="rgb(31,72,97)" stroke-width="1.51"/><path d="M744,38L698,60L748,153Z" fill="rgb(36,70,90)" stroke="rgb(36,70,90)" stroke-width="1.51"/><path d="M283,94L212,119L254,155Z" fill="rgb(16,102,100)" stroke="rgb(16,102,100)" stroke-width="1.51"/><path d="M194,62L212,119L283,94Z" fill="rgb(20,103,95)" stroke="rgb(20,103,95)" stroke-width="1.51"/><path d="M849,243L816,144L730,228Z" fill="rgb(35,58,90)" stroke="rgb(35,58,90)" stroke-width="1.51"/><path d="M368,799L287,803L415,820Z" fill="rgb(104,146,157)" stroke="rgb(104,146,157)" stroke-width="1.51"/><path d="M227,720L287,803L293,703Z" fill="rgb(105,156,156)" stroke="rgb(105,156,156)" stroke-width="1.51"/><path d="M194,814L287,803L227,720Z" fill="rgb(105,160,156)" stroke="rgb(105,160,156)" stroke-width="1.51"/><path d="M439,18L330,18L371,87Z" fill="rgb(30,86,89)" stroke="rgb(30,86,89)" stroke-width="1.51"/><path d="M278,7L252,-102L233,-16Z" fill="rgb(30,98,83)" stroke="rgb(30,98,83)" stroke-width="1.51"/><path d="M774,728L839,710L839,650Z" fill="rgb(107,116,137)" stroke="rgb(107,116,137)" stroke-width="1.51"/><path d="M928,616L946,526L837,576Z" fill="rgb(51,32,60)" stroke="rgb(51,32,60)" stroke-width="1.51"/><path d="M831,807L839,710L774,728Z" fill="rgb(109,119,140)" stroke="rgb(109,119,140)" stroke-width="1.51"/><path d="M415,820L707,819L619,794Z" fill="rgb(104,130,158)" stroke="rgb(104,130,158)" stroke-width="1.51"/><path d="M619,794L707,819L634,741Z" fill="rgb(104,127,158)" stroke="rgb(104,127,158)" stroke-width="1.51"/><path d="M123,158L103,211L202,210Z" fill="rgb(24,94,95)" stroke="rgb(24,94,95)" stroke-width="1.51"/><path d="M31,474L101,518L148,388Z" fill="rgb(38,68,85)" stroke="rgb(38,68,85)" stroke-width="1.51"/><path d="M123,158L202,210L212,119Z" fill="rgb(19,100,99)" stroke="rgb(19,100,99)" stroke-width="1.51"/><path d="M729,-18L658,9L698,60Z" fill="rgb(38,69,85)" stroke="rgb(38,69,85)" stroke-width="1.51"/><path d="M698,60L658,9L591,73Z" fill="rgb(34,72,91)" stroke="rgb(34,72,91)" stroke-width="1.51"/><path d="M507,15L534,-58L439,18Z" fill="rgb(35,76,85)" stroke="rgb(35,76,85)" stroke-width="1.51"/><path d="M849,243L895,172L816,144Z" fill="rgb(40,59,83)" stroke="rgb(40,59,83)" stroke-width="1.51"/><path d="M933,308L913,258L871,342Z" fill="rgb(39,42,80)" stroke="rgb(39,42,80)" stroke-width="1.51"/><path d="M147,654L138,702L227,720Z" fill="rgb(102,154,146)" stroke="rgb(102,154,146)" stroke-width="1.51"/><path d="M38,706L138,702L147,654Z" fill="rgb(101,150,137)" stroke="rgb(101,150,137)" stroke-width="1.51"/><path d="M949,408L871,342L856,390Z" fill="rgb(37,36,79)" stroke="rgb(37,36,79)" stroke-width="1.51"/><path d="M907,471L949,408L856,390Z" fill="rgb(38,34,79)" stroke="rgb(38,34,79)" stroke-width="1.51"/><path d="M976,486L949,408L907,471Z" fill="rgb(53,47,86)" stroke="rgb(53,47,86)" stroke-width="1.51"/><path d="M707,819L752,804L701,735Z" fill="rgb(106,124,152)" stroke="rgb(106,124,152)" stroke-width="1.51"/><path d="M103,211L71,263L120,325Z" fill="rgb(29,81,93)" stroke="rgb(29,81,93)" stroke-width="1.51"/><path d="M928,616L837,576L839,650Z" fill="rgb(69,58,85)" stroke="rgb(69,58,85)" stroke-width="1.51"/><path d="M101,518L32,615L147,654Z" fill="rgb(61,85,85)" stroke="rgb(61,85,85)" stroke-width="1.51"/><path d="M31,474L148,388L19,379Z" fill="rgb(34,71,91)" stroke="rgb(34,71,91)" stroke-width="1.51"/><path d="M194,62L123,158L212,119Z" fill="rgb(21,103,94)" stroke="rgb(21,103,94)" stroke-width="1.51"/><path d="M-10,229L44,278L71,263Z" fill="rgb(33,82,87)" stroke="rgb(33,82,87)" stroke-width="1.51"/><path d="M823,63L744,38L748,153Z" fill="rgb(39,68,85)" stroke="rgb(39,68,85)" stroke-width="1.51"/><path d="M823,63L748,153L816,144Z" fill="rgb(39,68,86)" stroke="rgb(39,68,86)" stroke-width="1.51"/><path d="M658,9L596,-25L591,73Z" fill="rgb(36,72,87)" stroke="rgb(36,72,87)" stroke-width="1.51"/><path d="M704,-74L596,-25L658,9Z" fill="rgb(37,71,85)" stroke="rgb(37,71,85)" stroke-width="1.51"/><path d="M19,379L148,388L120,325Z" fill="rgb(32,74,93)" stroke="rgb(32,74,93)" stroke-width="1.51"/><path d="M904,736L839,650L839,710Z" fill="rgb(110,116,133)" stroke="rgb(110,116,133)" stroke-width="1.51"/><path d="M904,736L928,616L839,650Z" fill="rgb(95,93,111)" stroke="rgb(95,93,111)" stroke-width="1.51"/><path d="M913,258L895,172L849,243Z" fill="rgb(40,51,79)" stroke="rgb(40,51,79)" stroke-width="1.51"/><path d="M974,251L895,172L913,258Z" fill="rgb(48,60,87)" stroke="rgb(48,60,87)" stroke-width="1.51"/><path d="M330,18L278,7L283,94Z" fill="rgb(29,94,88)" stroke="rgb(29,94,88)" stroke-width="1.51"/><path d="M356,-71L330,18L439,18Z" fill="rgb(34,85,84)" stroke="rgb(34,85,84)" stroke-width="1.51"/><path d="M278,7L194,62L283,94Z" fill="rgb(26,99,91)" stroke="rgb(26,99,91)" stroke-width="1.51"/><path d="M71,263L44,278L120,325Z" fill="rgb(31,79,91)" stroke="rgb(31,79,91)" stroke-width="1.51"/><path d="M-6,285L44,278L-10,229Z" fill="rgb(34,80,85)" stroke="rgb(34,80,85)" stroke-width="1.51"/><path d="M44,278L19,379L120,325Z" fill="rgb(32,76,90)" stroke="rgb(32,76,90)" stroke-width="1.51"/><path d="M1001,342L974,251L933,308Z" fill="rgb(58,67,102)" stroke="rgb(58,67,102)" stroke-width="1.51"/><path d="M946,526L976,486L907,471Z" fill="rgb(54,44,79)" stroke="rgb(54,44,79)" stroke-width="1.51"/><path d="M971,556L976,486L946,526Z" fill="rgb(62,50,80)" stroke="rgb(62,50,80)" stroke-width="1.51"/><path d="M596,-25L534,-58L507,15Z" fill="rgb(36,74,85)" stroke="rgb(36,74,85)" stroke-width="1.51"/><path d="M573,-108L534,-58L596,-25Z" fill="rgb(36,74,85)" stroke="rgb(36,74,85)" stroke-width="1.51"/><path d="M287,803L194,814L415,820Z" fill="rgb(105,153,156)" stroke="rgb(105,153,156)" stroke-width="1.51"/><path d="M141,803L194,814L227,720Z" fill="rgb(106,161,152)" stroke="rgb(106,161,152)" stroke-width="1.51"/><path d="M141,803L227,720L138,702Z" fill="rgb(106,160,150)" stroke="rgb(106,160,150)" stroke-width="1.51"/><path d="M744,38L729,-18L698,60Z" fill="rgb(39,68,83)" stroke="rgb(39,68,83)" stroke-width="1.51"/><path d="M902,75L823,63L816,144Z" fill="rgb(43,65,77)" stroke="rgb(43,65,77)" stroke-width="1.51"/><path d="M928,616L971,556L946,526Z" fill="rgb(61,45,71)" stroke="rgb(61,45,71)" stroke-width="1.51"/><path d="M49,537L32,615L101,518Z" fill="rgb(46,61,64)" stroke="rgb(46,61,64)" stroke-width="1.51"/><path d="M-16,544L32,615L49,537Z" fill="rgb(49,64,63)" stroke="rgb(49,64,63)" stroke-width="1.51"/><path d="M-16,544L49,537L31,474Z" fill="rgb(45,64,68)" stroke="rgb(45,64,68)" stroke-width="1.51"/><path d="M822,22L729,-18L744,38Z" fill="rgb(42,66,76)" stroke="rgb(42,66,76)" stroke-width="1.51"/><path d="M752,804L831,807L774,728Z" fill="rgb(108,121,144)" stroke="rgb(108,121,144)" stroke-width="1.51"/><path d="M928,616L999,622L971,556Z" fill="rgb(81,73,94)" stroke="rgb(81,73,94)" stroke-width="1.51"/><path d="M707,819L831,807L752,804Z" fill="rgb(108,122,147)" stroke="rgb(108,122,147)" stroke-width="1.51"/><path d="M19,379L-9,472L31,474Z" fill="rgb(40,68,82)" stroke="rgb(40,68,82)" stroke-width="1.51"/><path d="M-61,410L-9,472L19,379Z" fill="rgb(38,70,85)" stroke="rgb(38,70,85)" stroke-width="1.51"/><path d="M900,23L822,22L823,63Z" fill="rgb(45,64,69)" stroke="rgb(45,64,69)" stroke-width="1.51"/><path d="M933,308L974,251L913,258Z" fill="rgb(50,58,92)" stroke="rgb(50,58,92)" stroke-width="1.51"/><path d="M1001,342L933,308L949,408Z" fill="rgb(55,61,99)" stroke="rgb(55,61,99)" stroke-width="1.51"/><path d="M831,807L904,736L839,710Z" fill="rgb(110,117,134)" stroke="rgb(110,117,134)" stroke-width="1.51"/><path d="M1031,370L949,408L976,486Z" fill="rgb(63,66,107)" stroke="rgb(63,66,107)" stroke-width="1.51"/><path d="M1031,370L1001,342L949,408Z" fill="rgb(65,72,110)" stroke="rgb(65,72,110)" stroke-width="1.51"/><path d="M38,706L141,803L138,702Z" fill="rgb(107,159,144)" stroke="rgb(107,159,144)" stroke-width="1.51"/><path d="M278,7L233,-16L194,62Z" fill="rgb(28,100,84)" stroke="rgb(28,100,84)" stroke-width="1.51"/><path d="M194,62L105,51L123,158Z" fill="rgb(26,102,88)" stroke="rgb(26,102,88)" stroke-width="1.51"/><path d="M-10,229L71,263L103,211Z" fill="rgb(31,86,88)" stroke="rgb(31,86,88)" stroke-width="1.51"/><path d="M356,-71L278,7L330,18Z" fill="rgb(32,91,83)" stroke="rgb(32,91,83)" stroke-width="1.51"/><path d="M414,-92L356,-71L439,18Z" fill="rgb(34,82,84)" stroke="rgb(34,82,84)" stroke-width="1.51"/><path d="M823,63L822,22L744,38Z" fill="rgb(42,65,76)" stroke="rgb(42,65,76)" stroke-width="1.51"/><path d="M902,75L816,144L895,172Z" fill="rgb(42,65,79)" stroke="rgb(42,65,79)" stroke-width="1.51"/><path d="M44,278L-6,285L19,379Z" fill="rgb(34,76,86)" stroke="rgb(34,76,86)" stroke-width="1.51"/><path d="M-10,229L103,211L17,150Z" fill="rgb(31,92,87)" stroke="rgb(31,92,87)" stroke-width="1.51"/><path d="M-9,472L-16,544L31,474Z" fill="rgb(44,65,70)" stroke="rgb(44,65,70)" stroke-width="1.51"/><path d="M32,615L38,706L147,654Z" fill="rgb(88,128,117)" stroke="rgb(88,128,117)" stroke-width="1.51"/><path d="M-110,497L-16,544L-9,472Z" fill="rgb(44,64,69)" stroke="rgb(44,64,69)" stroke-width="1.51"/><path d="M534,-58L414,-92L439,18Z" fill="rgb(35,77,84)" stroke="rgb(35,77,84)" stroke-width="1.51"/><path d="M573,-108L414,-92L534,-58Z" fill="rgb(35,76,85)" stroke="rgb(35,76,85)" stroke-width="1.51"/><path d="M-17,647L38,706L32,615Z" fill="rgb(88,126,111)" stroke="rgb(88,126,111)" stroke-width="1.51"/><path d="M1083,445L1031,370L976,486Z" fill="rgb(77,84,121)" stroke="rgb(77,84,121)" stroke-width="1.51"/><path d="M1094,277L1068,218L974,251Z" fill="rgb(80,106,129)" stroke="rgb(80,106,129)" stroke-width="1.51"/><path d="M900,23L902,75L970,101Z" fill="rgb(52,71,75)" stroke="rgb(52,71,75)" stroke-width="1.51"/><path d="M970,101L902,75L895,172Z" fill="rgb(50,72,81)" stroke="rgb(50,72,81)" stroke-width="1.51"/><path d="M1110,579L1083,445L976,486Z" fill="rgb(88,90,116)" stroke="rgb(88,90,116)" stroke-width="1.51"/><path d="M1015,722L999,622L928,616Z" fill="rgb(113,118,131)" stroke="rgb(113,118,131)" stroke-width="1.51"/><path d="M704,-74L658,9L729,-18Z" fill="rgb(39,69,82)" stroke="rgb(39,69,82)" stroke-width="1.51"/><path d="M704,-74L573,-108L596,-25Z" fill="rgb(37,72,85)" stroke="rgb(37,72,85)" stroke-width="1.51"/><path d="M119,-36L105,51L194,62Z" fill="rgb(30,100,78)" stroke="rgb(30,100,78)" stroke-width="1.51"/><path d="M777,-86L729,-18L831,-61Z" fill="rgb(43,65,72)" stroke="rgb(43,65,72)" stroke-width="1.51"/><path d="M777,-86L704,-74L729,-18Z" fill="rgb(41,67,77)" stroke="rgb(41,67,77)" stroke-width="1.51"/><path d="M17,150L103,211L123,158Z" fill="rgb(27,97,90)" stroke="rgb(27,97,90)" stroke-width="1.51"/><path d="M-6,285L-61,410L19,379Z" fill="rgb(36,73,85)" stroke="rgb(36,73,85)" stroke-width="1.51"/><path d="M71,49L17,150L123,158Z" fill="rgb(27,101,85)" stroke="rgb(27,101,85)" stroke-width="1.51"/><path d="M-102,400L-61,410L-118,318Z" fill="rgb(37,72,85)" stroke="rgb(37,72,85)" stroke-width="1.51"/><path d="M-16,544L-17,647L32,615Z" fill="rgb(65,88,80)" stroke="rgb(65,88,80)" stroke-width="1.51"/><path d="M-89,631L-17,647L-16,544Z" fill="rgb(67,91,83)" stroke="rgb(67,91,83)" stroke-width="1.51"/><path d="M904,736L1015,722L928,616Z" fill="rgb(122,131,141)" stroke="rgb(122,131,141)" stroke-width="1.51"/><path d="M831,807L948,762L904,736Z" fill="rgb(111,115,129)" stroke="rgb(111,115,129)" stroke-width="1.51"/><path d="M119,-36L194,62L233,-16Z" fill="rgb(30,100,79)" stroke="rgb(30,100,79)" stroke-width="1.51"/><path d="M119,-36L71,49L105,51Z" fill="rgb(32,99,74)" stroke="rgb(32,99,74)" stroke-width="1.51"/><path d="M105,51L71,49L123,158Z" fill="rgb(28,101,83)" stroke="rgb(28,101,83)" stroke-width="1.51"/><path d="M902,75L900,23L823,63Z" fill="rgb(45,63,68)" stroke="rgb(45,63,68)" stroke-width="1.51"/><path d="M970,101L895,172L1014,132Z" fill="rgb(59,88,97)" stroke="rgb(59,88,97)" stroke-width="1.51"/><path d="M1014,132L895,172L974,251Z" fill="rgb(59,81,98)" stroke="rgb(59,81,98)" stroke-width="1.51"/><path d="M356,-71L252,-102L278,7Z" fill="rgb(32,93,83)" stroke="rgb(32,93,83)" stroke-width="1.51"/><path d="M414,-92L252,-102L356,-71Z" fill="rgb(33,89,83)" stroke="rgb(33,89,83)" stroke-width="1.51"/><path d="M573,-108L252,-102L414,-92Z" fill="rgb(34,81,84)" stroke="rgb(34,81,84)" stroke-width="1.51"/><path d="M831,-61L729,-18L822,22Z" fill="rgb(44,65,71)" stroke="rgb(44,65,71)" stroke-width="1.51"/><path d="M704,-74L777,-86L573,-108Z" fill="rgb(38,69,84)" stroke="rgb(38,69,84)" stroke-width="1.51"/><path d="M1068,218L1014,132L974,251Z" fill="rgb(74,103,118)" stroke="rgb(74,103,118)" stroke-width="1.51"/><path d="M1110,579L976,486L971,556Z" fill="rgb(79,71,95)" stroke="rgb(79,71,95)" stroke-width="1.51"/><path d="M1110,579L971,556L999,622Z" fill="rgb(94,90,109)" stroke="rgb(94,90,109)" stroke-width="1.51"/><path d="M948,762L1015,722L904,736Z" fill="rgb(128,140,149)" stroke="rgb(128,140,149)" stroke-width="1.51"/><path d="M831,807L976,775L948,762Z" fill="rgb(117,123,136)" stroke="rgb(117,123,136)" stroke-width="1.51"/><path d="M900,23L831,-61L822,22Z" fill="rgb(46,62,64)" stroke="rgb(46,62,64)" stroke-width="1.51"/><path d="M945,-104L831,-61L900,23Z" fill="rgb(47,61,59)" stroke="rgb(47,61,59)" stroke-width="1.51"/><path d="M976,775L1015,722L948,762Z" fill="rgb(136,151,158)" stroke="rgb(136,151,158)" stroke-width="1.51"/><path d="M974,251L1001,342L1094,277Z" fill="rgb(73,90,121)" stroke="rgb(73,90,121)" stroke-width="1.51"/><path d="M970,101L1017,-17L900,23Z" fill="rgb(63,86,83)" stroke="rgb(63,86,83)" stroke-width="1.51"/><path d="M-17,647L-17,735L38,706Z" fill="rgb(106,154,132)" stroke="rgb(106,154,132)" stroke-width="1.51"/><path d="M38,706L24,796L141,803Z" fill="rgb(107,158,140)" stroke="rgb(107,158,140)" stroke-width="1.51"/><path d="M-86,739L-17,735L-17,647Z" fill="rgb(108,157,134)" stroke="rgb(108,157,134)" stroke-width="1.51"/><path d="M-17,735L24,796L38,706Z" fill="rgb(108,158,136)" stroke="rgb(108,158,136)" stroke-width="1.51"/><path d="M141,803L24,796L194,814Z" fill="rgb(107,159,145)" stroke="rgb(107,159,145)" stroke-width="1.51"/><path d="M187,-94L119,-36L233,-16Z" fill="rgb(30,100,78)" stroke="rgb(30,100,78)" stroke-width="1.51"/><path d="M-61,410L-110,497L-9,472Z" fill="rgb(41,67,77)" stroke="rgb(41,67,77)" stroke-width="1.51"/><path d="M-118,318L-61,410L-6,285Z" fill="rgb(36,74,85)" stroke="rgb(36,74,85)" stroke-width="1.51"/><path d="M-118,318L-6,285L-10,229Z" fill="rgb(34,78,84)" stroke="rgb(34,78,84)" stroke-width="1.51"/><path d="M17,150L-19,123L-10,229Z" fill="rgb(31,96,83)" stroke="rgb(31,96,83)" stroke-width="1.51"/><path d="M71,49L-19,123L17,150Z" fill="rgb(30,100,80)" stroke="rgb(30,100,80)" stroke-width="1.51"/><path d="M-66,102L-19,123L-57,23Z" fill="rgb(32,99,74)" stroke="rgb(32,99,74)" stroke-width="1.51"/><path d="M1083,445L1098,412L1031,370Z" fill="rgb(88,102,138)" stroke="rgb(88,102,138)" stroke-width="1.51"/><path d="M1131,381L1098,412L1157,490Z" fill="rgb(105,125,157)" stroke="rgb(105,125,157)" stroke-width="1.51"/><path d="M1015,722L1056,651L999,622Z" fill="rgb(132,146,153)" stroke="rgb(132,146,153)" stroke-width="1.51"/><path d="M252,-102L187,-94L233,-16Z" fill="rgb(29,101,82)" stroke="rgb(29,101,82)" stroke-width="1.51"/><path d="M1094,277L1001,342L1031,370Z" fill="rgb(79,95,128)" stroke="rgb(79,95,128)" stroke-width="1.51"/><path d="M-102,400L-110,497L-61,410Z" fill="rgb(39,69,82)" stroke="rgb(39,69,82)" stroke-width="1.51"/><path d="M1131,381L1094,277L1031,370Z" fill="rgb(92,113,143)" stroke="rgb(92,113,143)" stroke-width="1.51"/><path d="M-140,572L-89,631L-16,544Z" fill="rgb(56,75,70)" stroke="rgb(56,75,70)" stroke-width="1.51"/><path d="M-17,735L-20,790L24,796Z" fill="rgb(108,157,134)" stroke="rgb(108,157,134)" stroke-width="1.51"/><path d="M-102,400L-140,572L-110,497Z" fill="rgb(44,65,71)" stroke="rgb(44,65,71)" stroke-width="1.51"/><path d="M-152,250L-118,318L-10,229Z" fill="rgb(34,80,84)" stroke="rgb(34,80,84)" stroke-width="1.51"/><path d="M-86,739L-20,790L-17,735Z" fill="rgb(108,157,134)" stroke="rgb(108,157,134)" stroke-width="1.51"/><path d="M1139,574L1110,579L1189,598Z" fill="rgb(123,133,142)" stroke="rgb(123,133,142)" stroke-width="1.51"/><path d="M1056,651L1110,579L999,622Z" fill="rgb(118,125,137)" stroke="rgb(118,125,137)" stroke-width="1.51"/><path d="M1098,412L1131,381L1031,370Z" fill="rgb(92,111,144)" stroke="rgb(92,111,144)" stroke-width="1.51"/><path d="M1157,490L1098,412L1083,445Z" fill="rgb(103,118,148)" stroke="rgb(103,118,148)" stroke-width="1.51"/><path d="M-19,123L-106,163L-10,229Z" fill="rgb(31,95,83)" stroke="rgb(31,95,83)" stroke-width="1.51"/><path d="M-57,23L-19,123L71,49Z" fill="rgb(33,99,72)" stroke="rgb(33,99,72)" stroke-width="1.51"/><path d="M34,-29L71,49L119,-36Z" fill="rgb(34,98,69)" stroke="rgb(34,98,69)" stroke-width="1.51"/><path d="M53,-103L34,-29L119,-36Z" fill="rgb(34,98,68)" stroke="rgb(34,98,68)" stroke-width="1.51"/><path d="M-89,631L-86,739L-17,647Z" fill="rgb(96,137,118)" stroke="rgb(96,137,118)" stroke-width="1.51"/><path d="M-110,497L-140,572L-16,544Z" fill="rgb(46,62,63)" stroke="rgb(46,62,63)" stroke-width="1.51"/><path d="M-152,250L-140,572L-102,400Z" fill="rgb(37,70,85)" stroke="rgb(37,70,85)" stroke-width="1.51"/><path d="M187,-94L124,-108L119,-36Z" fill="rgb(32,99,75)" stroke="rgb(32,99,75)" stroke-width="1.51"/><path d="M252,-102L124,-108L187,-94Z" fill="rgb(30,100,79)" stroke="rgb(30,100,79)" stroke-width="1.51"/><path d="M573,-108L124,-108L252,-102Z" fill="rgb(32,91,83)" stroke="rgb(32,91,83)" stroke-width="1.51"/><path d="M1170,143L1080,131L1068,218Z" fill="rgb(100,148,149)" stroke="rgb(100,148,149)" stroke-width="1.51"/><path d="M1068,218L1080,131L1014,132Z" fill="rgb(85,125,130)" stroke="rgb(85,125,130)" stroke-width="1.51"/><path d="M1014,132L1017,-17L970,101Z" fill="rgb(72,104,101)" stroke="rgb(72,104,101)" stroke-width="1.51"/><path d="M1193,214L1068,218L1094,277Z" fill="rgb(102,140,155)" stroke="rgb(102,140,155)" stroke-width="1.51"/><path d="M-66,102L-106,163L-19,123Z" fill="rgb(29,100,81)" stroke="rgb(29,100,81)" stroke-width="1.51"/><path d="M-118,318L-152,250L-102,400Z" fill="rgb(36,75,85)" stroke="rgb(36,75,85)" stroke-width="1.51"/><path d="M1110,579L1157,490L1083,445Z" fill="rgb(107,116,138)" stroke="rgb(107,116,138)" stroke-width="1.51"/><path d="M1189,598L1110,579L1056,651Z" fill="rgb(134,148,155)" stroke="rgb(134,148,155)" stroke-width="1.51"/><path d="M1097,732L1056,651L1015,722Z" fill="rgb(160,187,186)" stroke="rgb(160,187,186)" stroke-width="1.51"/><path d="M-133,792L-86,739L-89,631Z" fill="rgb(108,157,134)" stroke="rgb(108,157,134)" stroke-width="1.51"/><path d="M1131,381L1165,308L1094,277Z" fill="rgb(104,132,158)" stroke="rgb(104,132,158)" stroke-width="1.51"/><path d="M1139,574L1157,490L1110,579Z" fill="rgb(110,116,131)" stroke="rgb(110,116,131)" stroke-width="1.51"/><path d="M-106,163L-152,250L-10,229Z" fill="rgb(33,88,83)" stroke="rgb(33,88,83)" stroke-width="1.51"/><path d="M1115,805L1097,732L1015,722Z" fill="rgb(166,197,194)" stroke="rgb(166,197,194)" stroke-width="1.51"/><path d="M1215,358L1165,308L1131,381Z" fill="rgb(104,131,158)" stroke="rgb(104,131,158)" stroke-width="1.51"/><path d="M1110,87L1014,132L1080,131Z" fill="rgb(90,135,131)" stroke="rgb(90,135,131)" stroke-width="1.51"/><path d="M1110,87L1017,-17L1014,132Z" fill="rgb(85,124,117)" stroke="rgb(85,124,117)" stroke-width="1.51"/><path d="M831,-61L945,-104L777,-86Z" fill="rgb(46,62,64)" stroke="rgb(46,62,64)" stroke-width="1.51"/><path d="M-106,163L-137,41L-152,250Z" fill="rgb(30,99,82)" stroke="rgb(30,99,82)" stroke-width="1.51"/><path d="M-66,102L-137,41L-106,163Z" fill="rgb(31,100,77)" stroke="rgb(31,100,77)" stroke-width="1.51"/><path d="M34,-29L-57,23L71,49Z" fill="rgb(34,98,66)" stroke="rgb(34,98,66)" stroke-width="1.51"/><path d="M-70,-62L-57,23L34,-29Z" fill="rgb(35,97,62)" stroke="rgb(35,97,62)" stroke-width="1.51"/><path d="M124,-108L53,-103L119,-36Z" fill="rgb(33,98,71)" stroke="rgb(33,98,71)" stroke-width="1.51"/><path d="M1017,-17L945,-104L900,23Z" fill="rgb(61,82,76)" stroke="rgb(61,82,76)" stroke-width="1.51"/><path d="M777,-86L945,-104L573,-108Z" fill="rgb(43,66,74)" stroke="rgb(43,66,74)" stroke-width="1.51"/><path d="M1170,143L1110,87L1080,131Z" fill="rgb(104,159,151)" stroke="rgb(104,159,151)" stroke-width="1.51"/><path d="M1017,-17L1022,-73L945,-104Z" fill="rgb(72,99,89)" stroke="rgb(72,99,89)" stroke-width="1.51"/><path d="M1175,732L1189,598L1056,651Z" fill="rgb(161,190,188)" stroke="rgb(161,190,188)" stroke-width="1.51"/><path d="M1139,574L1241,556L1157,490Z" fill="rgb(111,117,133)" stroke="rgb(111,117,133)" stroke-width="1.51"/><path d="M1157,490L1215,358L1131,381Z" fill="rgb(104,127,158)" stroke="rgb(104,127,158)" stroke-width="1.51"/><path d="M1254,481L1215,358L1157,490Z" fill="rgb(106,124,153)" stroke="rgb(106,124,153)" stroke-width="1.51"/><path d="M1165,308L1193,214L1094,277Z" fill="rgb(103,137,158)" stroke="rgb(103,137,158)" stroke-width="1.51"/><path d="M707,819L1115,805L831,807Z" fill="rgb(111,116,131)" stroke="rgb(111,116,131)" stroke-width="1.51"/><path d="M831,807L1115,805L976,775Z" fill="rgb(134,149,156)" stroke="rgb(134,149,156)" stroke-width="1.51"/><path d="M976,775L1115,805L1015,722Z" fill="rgb(153,178,178)" stroke="rgb(153,178,178)" stroke-width="1.51"/><path d="M1097,732L1175,732L1056,651Z" fill="rgb(177,213,207)" stroke="rgb(177,213,207)" stroke-width="1.51"/><path d="M1078,-34L1022,-73L1017,-17Z" fill="rgb(84,118,104)" stroke="rgb(84,118,104)" stroke-width="1.51"/><path d="M-86,739L-133,792L-20,790Z" fill="rgb(108,157,134)" stroke="rgb(108,157,134)" stroke-width="1.51"/><path d="M-20,790L-133,792L24,796Z" fill="rgb(108,157,134)" stroke="rgb(108,157,134)" stroke-width="1.51"/><path d="M24,796L-133,792L194,814Z" fill="rgb(108,158,137)" stroke="rgb(108,158,137)" stroke-width="1.51"/><path d="M-140,572L-133,792L-89,631Z" fill="rgb(92,132,114)" stroke="rgb(92,132,114)" stroke-width="1.51"/><path d="M-152,250L-133,792L-140,572Z" fill="rgb(46,62,63)" stroke="rgb(46,62,63)" stroke-width="1.51"/><path d="M1110,87L1078,-34L1017,-17Z" fill="rgb(92,132,116)" stroke="rgb(92,132,116)" stroke-width="1.51"/><path d="M1242,333L1193,214L1165,308Z" fill="rgb(103,135,158)" stroke="rgb(103,135,158)" stroke-width="1.51"/><path d="M1193,214L1170,143L1068,218Z" fill="rgb(105,152,156)" stroke="rgb(105,152,156)" stroke-width="1.51"/><path d="M-57,23L-137,41L-66,102Z" fill="rgb(33,98,70)" stroke="rgb(33,98,70)" stroke-width="1.51"/><path d="M-107,-20L-137,41L-57,23Z" fill="rgb(35,97,64)" stroke="rgb(35,97,64)" stroke-width="1.51"/><path d="M1146,-26L1078,-34L1110,87Z" fill="rgb(104,152,130)" stroke="rgb(104,152,130)" stroke-width="1.51"/><path d="M1167,790L1175,732L1097,732Z" fill="rgb(182,221,213)" stroke="rgb(182,221,213)" stroke-width="1.51"/><path d="M1254,481L1242,333L1215,358Z" fill="rgb(104,128,158)" stroke="rgb(104,128,158)" stroke-width="1.51"/><path d="M53,-103L-70,-62L34,-29Z" fill="rgb(35,97,63)" stroke="rgb(35,97,63)" stroke-width="1.51"/><path d="M1215,358L1242,333L1165,308Z" fill="rgb(104,132,158)" stroke="rgb(104,132,158)" stroke-width="1.51"/><path d="M1215,134L1161,57L1170,143Z" fill="rgb(106,160,151)" stroke="rgb(106,160,151)" stroke-width="1.51"/><path d="M1241,556L1139,574L1189,598Z" fill="rgb(119,127,138)" stroke="rgb(119,127,138)" stroke-width="1.51"/><path d="M-70,-62L-107,-20L-57,23Z" fill="rgb(35,97,62)" stroke="rgb(35,97,62)" stroke-width="1.51"/><path d="M1227,648L1241,556L1189,598Z" fill="rgb(132,145,153)" stroke="rgb(132,145,153)" stroke-width="1.51"/><path d="M1241,556L1254,481L1157,490Z" fill="rgb(109,119,139)" stroke="rgb(109,119,139)" stroke-width="1.51"/><path d="M1170,143L1161,57L1110,87Z" fill="rgb(106,160,149)" stroke="rgb(106,160,149)" stroke-width="1.51"/><path d="M1215,134L1170,143L1193,214Z" fill="rgb(105,157,156)" stroke="rgb(105,157,156)" stroke-width="1.51"/><path d="M1115,805L1167,790L1097,732Z" fill="rgb(182,221,213)" stroke="rgb(182,221,213)" stroke-width="1.51"/><path d="M1175,732L1227,648L1189,598Z" fill="rgb(161,189,188)" stroke="rgb(161,189,188)" stroke-width="1.51"/><path d="M1242,686L1227,648L1175,732Z" fill="rgb(176,212,206)" stroke="rgb(176,212,206)" stroke-width="1.51"/><path d="M1241,556L1242,686L1254,481Z" fill="rgb(118,126,137)" stroke="rgb(118,126,137)" stroke-width="1.51"/><path d="M1275,203L1215,134L1193,214Z" fill="rgb(105,153,156)" stroke="rgb(105,153,156)" stroke-width="1.51"/><path d="M1222,759L1242,686L1175,732Z" fill="rgb(182,221,213)" stroke="rgb(182,221,213)" stroke-width="1.51"/><path d="M1227,648L1242,686L1241,556Z" fill="rgb(146,167,170)" stroke="rgb(146,167,170)" stroke-width="1.51"/><path d="M1078,-34L1106,-73L1022,-73Z" fill="rgb(92,132,114)" stroke="rgb(92,132,114)" stroke-width="1.51"/><path d="M1022,-73L1106,-73L945,-104Z" fill="rgb(80,112,99)" stroke="rgb(80,112,99)" stroke-width="1.51"/><path d="M1146,-26L1106,-73L1078,-34Z" fill="rgb(104,150,128)" stroke="rgb(104,150,128)" stroke-width="1.51"/><path d="M1146,-26L1110,87L1161,57Z" fill="rgb(107,158,140)" stroke="rgb(107,158,140)" stroke-width="1.51"/><path d="M1263,-28L1146,-26L1161,57Z" fill="rgb(108,157,134)" stroke="rgb(108,157,134)" stroke-width="1.51"/><path d="M1167,790L1222,759L1175,732Z" fill="rgb(182,221,213)" stroke="rgb(182,221,213)" stroke-width="1.51"/><path d="M1215,134L1238,73L1161,57Z" fill="rgb(106,160,147)" stroke="rgb(106,160,147)" stroke-width="1.51"/><path d="M1242,333L1275,203L1193,214Z" fill="rgb(104,141,158)" stroke="rgb(104,141,158)" stroke-width="1.51"/><path d="M1254,481L1275,203L1242,333Z" fill="rgb(104,131,158)" stroke="rgb(104,131,158)" stroke-width="1.51"/><path d="M1242,686L1275,203L1254,481Z" fill="rgb(107,123,151)" stroke="rgb(107,123,151)" stroke-width="1.51"/><path d="M1275,203L1238,73L1215,134Z" fill="rgb(105,161,155)" stroke="rgb(105,161,155)" stroke-width="1.51"/><path d="M1146,-26L1170,-79L1106,-73Z" fill="rgb(108,157,134)" stroke="rgb(108,157,134)" stroke-width="1.51"/><path d="M-70,-62L-127,-111L-107,-20Z" fill="rgb(35,97,62)" stroke="rgb(35,97,62)" stroke-width="1.51"/><path d="M-107,-20L-127,-111L-137,41Z" fill="rgb(35,97,62)" stroke="rgb(35,97,62)" stroke-width="1.51"/><path d="M-137,41L-127,-111L-152,250Z" fill="rgb(33,98,71)" stroke="rgb(33,98,71)" stroke-width="1.51"/><path d="M53,-103L-127,-111L-70,-62Z" fill="rgb(35,97,62)" stroke="rgb(35,97,62)" stroke-width="1.51"/><path d="M124,-108L-127,-111L53,-103Z" fill="rgb(35,97,64)" stroke="rgb(35,97,64)" stroke-width="1.51"/><path d="M573,-108L-127,-111L124,-108Z" fill="rgb(30,100,79)" stroke="rgb(30,100,79)" stroke-width="1.51"/><path d="M1263,-28L1170,-79L1146,-26Z" fill="rgb(108,157,134)" stroke="rgb(108,157,134)" stroke-width="1.51"/><path d="M1106,-73L1271,-113L945,-104Z" fill="rgb(103,149,127)" stroke="rgb(103,149,127)" stroke-width="1.51"/><path d="M1238,73L1263,-28L1161,57Z" fill="rgb(108,158,139)" stroke="rgb(108,158,139)" stroke-width="1.51"/><path d="M1275,203L1263,-28L1238,73Z" fill="rgb(107,160,147)" stroke="rgb(107,160,147)" stroke-width="1.51"/><path d="M1170,-79L1271,-113L1106,-73Z" fill="rgb(108,157,134)" stroke="rgb(108,157,134)" stroke-width="1.51"/><path d="M945,-104L1271,-113L573,-108Z" fill="rgb(54,72,68)" stroke="rgb(54,72,68)" stroke-width="1.51"/><path d="M573,-108L1271,-113L-127,-111Z" fill="rgb(36,73,85)" stroke="rgb(36,73,85)" stroke-width="1.51"/><path d="M1263,-28L1271,-113L1170,-79Z" fill="rgb(108,157,134)" stroke="rgb(108,157,134)" stroke-width="1.51"/><path d="M1275,203L1271,-113L1263,-28Z" fill="rgb(108,158,137)" stroke="rgb(108,158,137)" stroke-width="1.51"/></svg>