<svg xmlns="http://www.w3.org/2000/svg" width="770" height="700"><path d="M402,375L354,410L410,397Z" fill="rgb(73,112,141)" stroke="rgb(73,112,141)" stroke-width="1.51"/><path d="M402,375L338,349L354,410Z" fill="rgb(66,104,136)" stroke="rgb(66,104,136)" stroke-width="1.51"/><path d="M354,410L363,473L410,397Z" fill="rgb(76,116,144)" stroke="rgb(76,116,144)" stroke-width="1.51"/><path d="M268,416L363,473L354,410Z" fill="rgb(69,109,139)" stroke="rgb(69,109,139)" stroke-width="1.51"/><path d="M402,375L399,302L338,349Z" fill="rgb(62,100,133)" stroke="rgb(62,100,133)" stroke-width="1.51"/><path d="M483,348L399,302L402,375Z" fill="rgb(70,108,139)" stroke="rgb(70,108,139)" stroke-width="1.51"/><path d="M410,397L483,348L402,375Z" fill="rgb(76,115,143)" stroke="rgb(76,115,143)" stroke-width="1.51"/><path d="M510,411L483,348L410,397Z" fill="rgb(84,125,149)" stroke="rgb(84,125,149)" stroke-width="1.51"/><path d="M338,349L268,416L354,410Z" fill="rgb(61,99,132)" stroke="rgb(61,99,132)" stroke-width="1.51"/><path d="M363,473L412,518L410,397Z" fill="rgb(86,127,150)" stroke="rgb(86,127,150)" stroke-width="1.51"/><path d="M422,552L412,518L343,573Z" fill="rgb(75,121,129)" stroke="rgb(75,121,129)" stroke-width="1.51"/><path d="M399,302L333,277L338,349Z" fill="rgb(52,90,126)" stroke="rgb(52,90,126)" stroke-width="1.51"/><path d="M338,349L250,335L268,416Z" fill="rgb(50,88,125)" stroke="rgb(50,88,125)" stroke-width="1.51"/><path d="M507,501L510,411L410,397Z" fill="rgb(93,136,156)" stroke="rgb(93,136,156)" stroke-width="1.51"/><path d="M333,277L250,335L338,349Z" fill="rgb(45,83,122)" stroke="rgb(45,83,122)" stroke-width="1.51"/><path d="M412,518L507,501L410,397Z" fill="rgb(94,136,155)" stroke="rgb(94,136,155)" stroke-width="1.51"/><path d="M343,573L412,518L363,473Z" fill="rgb(76,119,134)" stroke="rgb(76,119,134)" stroke-width="1.51"/><path d="M268,416L281,524L363,473Z" fill="rgb(71,111,139)" stroke="rgb(71,111,139)" stroke-width="1.51"/><path d="M174,492L281,524L268,416Z" fill="rgb(64,100,131)" stroke="rgb(64,100,131)" stroke-width="1.51"/><path d="M422,552L507,501L412,518Z" fill="rgb(87,133,142)" stroke="rgb(87,133,142)" stroke-width="1.51"/><path d="M483,348L504,278L399,302Z" fill="rgb(70,109,138)" stroke="rgb(70,109,138)" stroke-width="1.51"/><path d="M399,302L394,202L333,277Z" fill="rgb(45,84,122)" stroke="rgb(45,84,122)" stroke-width="1.51"/><path d="M586,370L504,278L483,348Z" fill="rgb(80,121,145)" stroke="rgb(80,121,145)" stroke-width="1.51"/><path d="M281,524L343,573L363,473Z" fill="rgb(69,111,129)" stroke="rgb(69,111,129)" stroke-width="1.51"/><path d="M339,190L262,246L333,277Z" fill="rgb(27,69,112)" stroke="rgb(27,69,112)" stroke-width="1.51"/><path d="M333,277L262,246L250,335Z" fill="rgb(32,72,114)" stroke="rgb(32,72,114)" stroke-width="1.51"/><path d="M171,358L188,398L250,335Z" fill="rgb(48,78,117)" stroke="rgb(48,78,117)" stroke-width="1.51"/><path d="M250,335L188,398L268,416Z" fill="rgb(50,85,122)" stroke="rgb(50,85,122)" stroke-width="1.51"/><path d="M504,278L394,202L399,302Z" fill="rgb(55,94,129)" stroke="rgb(55,94,129)" stroke-width="1.51"/><path d="M510,411L586,370L483,348Z" fill="rgb(88,130,150)" stroke="rgb(88,130,150)" stroke-width="1.51"/><path d="M593,476L584,410L510,411Z" fill="rgb(93,140,149)" stroke="rgb(93,140,149)" stroke-width="1.51"/><path d="M584,410L586,370L510,411Z" fill="rgb(87,132,145)" stroke="rgb(87,132,145)" stroke-width="1.51"/><path d="M394,202L339,190L333,277Z" fill="rgb(37,74,115)" stroke="rgb(37,74,115)" stroke-width="1.51"/><path d="M200,261L171,358L250,335Z" fill="rgb(38,70,112)" stroke="rgb(38,70,112)" stroke-width="1.51"/><path d="M504,278L513,201L394,202Z" fill="rgb(57,95,129)" stroke="rgb(57,95,129)" stroke-width="1.51"/><path d="M586,370L556,264L504,278Z" fill="rgb(72,114,136)" stroke="rgb(72,114,136)" stroke-width="1.51"/><path d="M262,246L200,261L250,335Z" fill="rgb(28,66,109)" stroke="rgb(28,66,109)" stroke-width="1.51"/><path d="M182,177L200,261L262,246Z" fill="rgb(18,55,101)" stroke="rgb(18,55,101)" stroke-width="1.51"/><path d="M584,410L623,429L586,370Z" fill="rgb(84,131,136)" stroke="rgb(84,131,136)" stroke-width="1.51"/><path d="M507,501L593,476L510,411Z" fill="rgb(102,148,159)" stroke="rgb(102,148,159)" stroke-width="1.51"/><path d="M564,568L593,476L507,501Z" fill="rgb(93,143,142)" stroke="rgb(93,143,142)" stroke-width="1.51"/><path d="M281,524L267,599L343,573Z" fill="rgb(59,102,114)" stroke="rgb(59,102,114)" stroke-width="1.51"/><path d="M188,398L174,492L268,416Z" fill="rgb(61,92,127)" stroke="rgb(61,92,127)" stroke-width="1.51"/><path d="M149,418L174,492L188,398Z" fill="rgb(63,88,124)" stroke="rgb(63,88,124)" stroke-width="1.51"/><path d="M339,190L275,191L262,246Z" fill="rgb(25,62,107)" stroke="rgb(25,62,107)" stroke-width="1.51"/><path d="M171,358L149,418L188,398Z" fill="rgb(55,80,118)" stroke="rgb(55,80,118)" stroke-width="1.51"/><path d="M127,348L149,418L171,358Z" fill="rgb(53,74,115)" stroke="rgb(53,74,115)" stroke-width="1.51"/><path d="M422,552L501,594L507,501Z" fill="rgb(88,137,138)" stroke="rgb(88,137,138)" stroke-width="1.51"/><path d="M399,645L501,594L422,552Z" fill="rgb(76,126,123)" stroke="rgb(76,126,123)" stroke-width="1.51"/><path d="M343,573L399,645L422,552Z" fill="rgb(69,117,118)" stroke="rgb(69,117,118)" stroke-width="1.51"/><path d="M197,574L267,599L281,524Z" fill="rgb(53,95,109)" stroke="rgb(53,95,109)" stroke-width="1.51"/><path d="M556,264L513,201L504,278Z" fill="rgb(65,104,134)" stroke="rgb(65,104,134)" stroke-width="1.51"/><path d="M394,202L363,127L339,190Z" fill="rgb(42,71,112)" stroke="rgb(42,71,112)" stroke-width="1.51"/><path d="M593,476L623,429L584,410Z" fill="rgb(89,138,140)" stroke="rgb(89,138,140)" stroke-width="1.51"/><path d="M586,370L624,261L556,264Z" fill="rgb(67,110,125)" stroke="rgb(67,110,125)" stroke-width="1.51"/><path d="M353,648L399,645L343,573Z" fill="rgb(61,111,108)" stroke="rgb(61,111,108)" stroke-width="1.51"/><path d="M501,594L564,568L507,501Z" fill="rgb(91,142,139)" stroke="rgb(91,142,139)" stroke-width="1.51"/><path d="M593,476L670,487L623,429Z" fill="rgb(90,141,137)" stroke="rgb(90,141,137)" stroke-width="1.51"/><path d="M564,667L564,568L501,594Z" fill="rgb(81,137,120)" stroke="rgb(81,137,120)" stroke-width="1.51"/><path d="M200,261L150,290L171,358Z" fill="rgb(38,64,108)" stroke="rgb(38,64,108)" stroke-width="1.51"/><path d="M143,216L150,290L200,261Z" fill="rgb(29,54,101)" stroke="rgb(29,54,101)" stroke-width="1.51"/><path d="M267,599L353,648L343,573Z" fill="rgb(57,103,107)" stroke="rgb(57,103,107)" stroke-width="1.51"/><path d="M174,492L197,574L281,524Z" fill="rgb(59,94,115)" stroke="rgb(59,94,115)" stroke-width="1.51"/><path d="M267,599L277,668L353,648Z" fill="rgb(49,97,96)" stroke="rgb(49,97,96)" stroke-width="1.51"/><path d="M143,557L197,574L174,492Z" fill="rgb(60,89,109)" stroke="rgb(60,89,109)" stroke-width="1.51"/><path d="M150,290L127,348L171,358Z" fill="rgb(45,67,109)" stroke="rgb(45,67,109)" stroke-width="1.51"/><path d="M149,418L137,496L174,492Z" fill="rgb(69,92,126)" stroke="rgb(69,92,126)" stroke-width="1.51"/><path d="M50,477L137,496L149,418Z" fill="rgb(70,88,123)" stroke="rgb(70,88,123)" stroke-width="1.51"/><path d="M556,264L553,195L513,201Z" fill="rgb(62,99,127)" stroke="rgb(62,99,127)" stroke-width="1.51"/><path d="M447,129L363,127L394,202Z" fill="rgb(50,74,115)" stroke="rgb(50,74,115)" stroke-width="1.51"/><path d="M624,261L553,195L556,264Z" fill="rgb(58,100,121)" stroke="rgb(58,100,121)" stroke-width="1.51"/><path d="M447,129L394,202L513,201Z" fill="rgb(57,86,123)" stroke="rgb(57,86,123)" stroke-width="1.51"/><path d="M339,190L363,127L275,191Z" fill="rgb(36,64,108)" stroke="rgb(36,64,108)" stroke-width="1.51"/><path d="M521,147L447,129L513,201Z" fill="rgb(65,91,126)" stroke="rgb(65,91,126)" stroke-width="1.51"/><path d="M409,708L485,653L399,645Z" fill="rgb(64,118,103)" stroke="rgb(64,118,103)" stroke-width="1.51"/><path d="M399,645L485,653L501,594Z" fill="rgb(74,128,116)" stroke="rgb(74,128,116)" stroke-width="1.51"/><path d="M661,347L624,261L586,370Z" fill="rgb(68,113,121)" stroke="rgb(68,113,121)" stroke-width="1.51"/><path d="M623,429L661,347L586,370Z" fill="rgb(77,125,128)" stroke="rgb(77,125,128)" stroke-width="1.51"/><path d="M707,419L661,347L623,429Z" fill="rgb(74,125,120)" stroke="rgb(74,125,120)" stroke-width="1.51"/><path d="M550,139L521,147L553,195Z" fill="rgb(65,93,122)" stroke="rgb(65,93,122)" stroke-width="1.51"/><path d="M553,195L521,147L513,201Z" fill="rgb(65,96,126)" stroke="rgb(65,96,126)" stroke-width="1.51"/><path d="M137,496L143,557L174,492Z" fill="rgb(64,89,115)" stroke="rgb(64,89,115)" stroke-width="1.51"/><path d="M171,654L277,668L267,599Z" fill="rgb(44,88,90)" stroke="rgb(44,88,90)" stroke-width="1.51"/><path d="M171,654L267,599L197,574Z" fill="rgb(50,88,95)" stroke="rgb(50,88,95)" stroke-width="1.51"/><path d="M353,648L409,708L399,645Z" fill="rgb(58,111,99)" stroke="rgb(58,111,99)" stroke-width="1.51"/><path d="M28,334L40,397L127,348Z" fill="rgb(54,64,106)" stroke="rgb(54,64,106)" stroke-width="1.51"/><path d="M275,191L182,177L262,246Z" fill="rgb(18,55,101)" stroke="rgb(18,55,101)" stroke-width="1.51"/><path d="M251,121L182,177L275,191Z" fill="rgb(23,50,98)" stroke="rgb(23,50,98)" stroke-width="1.51"/><path d="M182,177L143,216L200,261Z" fill="rgb(23,50,97)" stroke="rgb(23,50,97)" stroke-width="1.51"/><path d="M363,127L251,121L275,191Z" fill="rgb(32,57,102)" stroke="rgb(32,57,102)" stroke-width="1.51"/><path d="M275,75L251,121L363,127Z" fill="rgb(35,53,99)" stroke="rgb(35,53,99)" stroke-width="1.51"/><path d="M564,568L670,487L593,476Z" fill="rgb(87,140,130)" stroke="rgb(87,140,130)" stroke-width="1.51"/><path d="M651,601L670,487L564,568Z" fill="rgb(77,135,115)" stroke="rgb(77,135,115)" stroke-width="1.51"/><path d="M640,211L550,139L553,195Z" fill="rgb(61,93,115)" stroke="rgb(61,93,115)" stroke-width="1.51"/><path d="M512,31L415,54L447,129Z" fill="rgb(64,76,115)" stroke="rgb(64,76,115)" stroke-width="1.51"/><path d="M329,726L409,708L353,648Z" fill="rgb(50,104,89)" stroke="rgb(50,104,89)" stroke-width="1.51"/><path d="M624,261L640,211L553,195Z" fill="rgb(55,96,113)" stroke="rgb(55,96,113)" stroke-width="1.51"/><path d="M704,282L640,211L624,261Z" fill="rgb(52,96,105)" stroke="rgb(52,96,105)" stroke-width="1.51"/><path d="M182,177L172,153L143,216Z" fill="rgb(27,46,94)" stroke="rgb(27,46,94)" stroke-width="1.51"/><path d="M251,121L172,153L182,177Z" fill="rgb(27,46,94)" stroke="rgb(27,46,94)" stroke-width="1.51"/><path d="M670,487L707,419L623,429Z" fill="rgb(81,135,125)" stroke="rgb(81,135,125)" stroke-width="1.51"/><path d="M661,347L704,282L624,261Z" fill="rgb(58,105,108)" stroke="rgb(58,105,108)" stroke-width="1.51"/><path d="M485,653L564,667L501,594Z" fill="rgb(79,136,119)" stroke="rgb(79,136,119)" stroke-width="1.51"/><path d="M490,726L564,667L485,653Z" fill="rgb(73,133,108)" stroke="rgb(73,133,108)" stroke-width="1.51"/><path d="M143,557L171,654L197,574Z" fill="rgb(54,85,96)" stroke="rgb(54,85,96)" stroke-width="1.51"/><path d="M277,668L329,726L353,648Z" fill="rgb(46,98,88)" stroke="rgb(46,98,88)" stroke-width="1.51"/><path d="M246,728L329,726L277,668Z" fill="rgb(38,90,80)" stroke="rgb(38,90,80)" stroke-width="1.51"/><path d="M251,121L174,72L172,153Z" fill="rgb(30,42,91)" stroke="rgb(30,42,91)" stroke-width="1.51"/><path d="M321,24L275,75L363,127Z" fill="rgb(41,53,100)" stroke="rgb(41,53,100)" stroke-width="1.51"/><path d="M415,54L363,127L447,129Z" fill="rgb(54,71,112)" stroke="rgb(54,71,112)" stroke-width="1.51"/><path d="M40,397L50,477L149,418Z" fill="rgb(66,78,117)" stroke="rgb(66,78,117)" stroke-width="1.51"/><path d="M137,496L50,477L143,557Z" fill="rgb(66,85,113)" stroke="rgb(66,85,113)" stroke-width="1.51"/><path d="M143,557L105,651L171,654Z" fill="rgb(52,80,88)" stroke="rgb(52,80,88)" stroke-width="1.51"/><path d="M40,397L149,418L127,348Z" fill="rgb(58,73,113)" stroke="rgb(58,73,113)" stroke-width="1.51"/><path d="M564,667L651,601L564,568Z" fill="rgb(73,133,108)" stroke="rgb(73,133,108)" stroke-width="1.51"/><path d="M670,487L712,486L707,419Z" fill="rgb(80,136,120)" stroke="rgb(80,136,120)" stroke-width="1.51"/><path d="M52,297L150,290L143,216Z" fill="rgb(34,52,99)" stroke="rgb(34,52,99)" stroke-width="1.51"/><path d="M52,297L127,348L150,290Z" fill="rgb(43,60,104)" stroke="rgb(43,60,104)" stroke-width="1.51"/><path d="M20,174L52,297L143,216Z" fill="rgb(30,42,91)" stroke="rgb(30,42,91)" stroke-width="1.51"/><path d="M734,369L704,282L661,347Z" fill="rgb(59,110,104)" stroke="rgb(59,110,104)" stroke-width="1.51"/><path d="M512,31L447,129L521,147Z" fill="rgb(68,85,121)" stroke="rgb(68,85,121)" stroke-width="1.51"/><path d="M707,419L734,369L661,347Z" fill="rgb(66,118,109)" stroke="rgb(66,118,109)" stroke-width="1.51"/><path d="M740,557L712,486L670,487Z" fill="rgb(73,132,107)" stroke="rgb(73,132,107)" stroke-width="1.51"/><path d="M564,667L664,675L651,601Z" fill="rgb(62,128,91)" stroke="rgb(62,128,91)" stroke-width="1.51"/><path d="M409,708L490,726L485,653Z" fill="rgb(64,122,99)" stroke="rgb(64,122,99)" stroke-width="1.51"/><path d="M407,779L490,726L409,708Z" fill="rgb(59,117,96)" stroke="rgb(59,117,96)" stroke-width="1.51"/><path d="M771,358L734,369L797,411Z" fill="rgb(57,113,94)" stroke="rgb(57,113,94)" stroke-width="1.51"/><path d="M52,297L28,334L127,348Z" fill="rgb(48,58,103)" stroke="rgb(48,58,103)" stroke-width="1.51"/><path d="M-51,516L39,586L50,477Z" fill="rgb(68,75,101)" stroke="rgb(68,75,101)" stroke-width="1.51"/><path d="M193,713L246,728L277,668Z" fill="rgb(35,84,75)" stroke="rgb(35,84,75)" stroke-width="1.51"/><path d="M329,726L407,779L409,708Z" fill="rgb(52,107,90)" stroke="rgb(52,107,90)" stroke-width="1.51"/><path d="M124,747L193,713L171,654Z" fill="rgb(41,77,70)" stroke="rgb(41,77,70)" stroke-width="1.51"/><path d="M171,654L193,713L277,668Z" fill="rgb(41,83,79)" stroke="rgb(41,83,79)" stroke-width="1.51"/><path d="M55,629L105,651L143,557Z" fill="rgb(55,77,87)" stroke="rgb(55,77,87)" stroke-width="1.51"/><path d="M415,54L321,24L363,127Z" fill="rgb(49,60,104)" stroke="rgb(49,60,104)" stroke-width="1.51"/><path d="M275,75L174,72L251,121Z" fill="rgb(30,43,92)" stroke="rgb(30,43,92)" stroke-width="1.51"/><path d="M297,-7L174,72L275,75Z" fill="rgb(31,40,89)" stroke="rgb(31,40,89)" stroke-width="1.51"/><path d="M172,153L109,123L143,216Z" fill="rgb(30,42,91)" stroke="rgb(30,42,91)" stroke-width="1.51"/><path d="M-54,259L-39,344L28,334Z" fill="rgb(48,49,96)" stroke="rgb(48,49,96)" stroke-width="1.51"/><path d="M174,72L109,123L172,153Z" fill="rgb(32,38,88)" stroke="rgb(32,38,88)" stroke-width="1.51"/><path d="M335,787L329,726L246,728Z" fill="rgb(41,93,82)" stroke="rgb(41,93,82)" stroke-width="1.51"/><path d="M335,787L407,779L329,726Z" fill="rgb(48,103,87)" stroke="rgb(48,103,87)" stroke-width="1.51"/><path d="M632,63L587,50L550,139Z" fill="rgb(64,82,105)" stroke="rgb(64,82,105)" stroke-width="1.51"/><path d="M550,139L512,31L521,147Z" fill="rgb(69,88,120)" stroke="rgb(69,88,120)" stroke-width="1.51"/><path d="M704,282L711,198L640,211Z" fill="rgb(45,91,95)" stroke="rgb(45,91,95)" stroke-width="1.51"/><path d="M785,251L711,198L704,282Z" fill="rgb(41,90,86)" stroke="rgb(41,90,86)" stroke-width="1.51"/><path d="M587,50L512,31L550,139Z" fill="rgb(69,83,113)" stroke="rgb(69,83,113)" stroke-width="1.51"/><path d="M349,-19L297,-7L321,24Z" fill="rgb(44,46,94)" stroke="rgb(44,46,94)" stroke-width="1.51"/><path d="M-50,444L50,477L40,397Z" fill="rgb(70,74,113)" stroke="rgb(70,74,113)" stroke-width="1.51"/><path d="M50,477L39,586L143,557Z" fill="rgb(64,80,103)" stroke="rgb(64,80,103)" stroke-width="1.51"/><path d="M734,369L771,358L704,282Z" fill="rgb(55,107,96)" stroke="rgb(55,107,96)" stroke-width="1.51"/><path d="M797,411L734,369L707,419Z" fill="rgb(64,119,102)" stroke="rgb(64,119,102)" stroke-width="1.51"/><path d="M490,726L579,734L564,667Z" fill="rgb(65,129,96)" stroke="rgb(65,129,96)" stroke-width="1.51"/><path d="M577,781L579,734L490,726Z" fill="rgb(65,129,95)" stroke="rgb(65,129,95)" stroke-width="1.51"/><path d="M295,826L335,787L246,728Z" fill="rgb(39,91,80)" stroke="rgb(39,91,80)" stroke-width="1.51"/><path d="M651,601L740,557L670,487Z" fill="rgb(70,131,102)" stroke="rgb(70,131,102)" stroke-width="1.51"/><path d="M712,486L779,484L707,419Z" fill="rgb(76,133,112)" stroke="rgb(76,133,112)" stroke-width="1.51"/><path d="M717,669L740,557L651,601Z" fill="rgb(56,125,83)" stroke="rgb(56,125,83)" stroke-width="1.51"/><path d="M632,731L664,675L564,667Z" fill="rgb(55,124,81)" stroke="rgb(55,124,81)" stroke-width="1.51"/><path d="M39,586L55,629L143,557Z" fill="rgb(58,77,91)" stroke="rgb(58,77,91)" stroke-width="1.51"/><path d="M124,747L223,775L193,713Z" fill="rgb(40,78,72)" stroke="rgb(40,78,72)" stroke-width="1.51"/><path d="M664,102L550,139L640,211Z" fill="rgb(58,87,104)" stroke="rgb(58,87,104)" stroke-width="1.51"/><path d="M711,198L664,102L640,211Z" fill="rgb(51,86,94)" stroke="rgb(51,86,94)" stroke-width="1.51"/><path d="M740,557L779,484L712,486Z" fill="rgb(67,130,99)" stroke="rgb(67,130,99)" stroke-width="1.51"/><path d="M193,713L223,775L246,728Z" fill="rgb(37,82,75)" stroke="rgb(37,82,75)" stroke-width="1.51"/><path d="M124,747L171,654L105,651Z" fill="rgb(45,76,72)" stroke="rgb(45,76,72)" stroke-width="1.51"/><path d="M349,-19L321,24L415,54Z" fill="rgb(50,54,99)" stroke="rgb(50,54,99)" stroke-width="1.51"/><path d="M321,24L297,-7L275,75Z" fill="rgb(38,45,93)" stroke="rgb(38,45,93)" stroke-width="1.51"/><path d="M442,-42L349,-19L415,54Z" fill="rgb(57,59,103)" stroke="rgb(57,59,103)" stroke-width="1.51"/><path d="M442,-42L415,54L512,31Z" fill="rgb(66,70,110)" stroke="rgb(66,70,110)" stroke-width="1.51"/><path d="M664,102L632,63L550,139Z" fill="rgb(61,82,101)" stroke="rgb(61,82,101)" stroke-width="1.51"/><path d="M478,-41L442,-42L512,31Z" fill="rgb(69,71,111)" stroke="rgb(69,71,111)" stroke-width="1.51"/><path d="M779,484L797,411L707,419Z" fill="rgb(67,126,102)" stroke="rgb(67,126,102)" stroke-width="1.51"/><path d="M771,358L785,251L704,282Z" fill="rgb(47,99,88)" stroke="rgb(47,99,88)" stroke-width="1.51"/><path d="M577,781L632,731L579,734Z" fill="rgb(57,125,84)" stroke="rgb(57,125,84)" stroke-width="1.51"/><path d="M579,734L632,731L564,667Z" fill="rgb(58,126,85)" stroke="rgb(58,126,85)" stroke-width="1.51"/><path d="M664,675L717,669L651,601Z" fill="rgb(53,124,79)" stroke="rgb(53,124,79)" stroke-width="1.51"/><path d="M28,334L-39,344L40,397Z" fill="rgb(56,59,102)" stroke="rgb(56,59,102)" stroke-width="1.51"/><path d="M-54,259L28,334L52,297Z" fill="rgb(45,47,95)" stroke="rgb(45,47,95)" stroke-width="1.51"/><path d="M109,123L20,174L143,216Z" fill="rgb(32,38,88)" stroke="rgb(32,38,88)" stroke-width="1.51"/><path d="M57,112L20,174L109,123Z" fill="rgb(35,32,83)" stroke="rgb(35,32,83)" stroke-width="1.51"/><path d="M117,40L109,123L174,72Z" fill="rgb(35,33,83)" stroke="rgb(35,33,83)" stroke-width="1.51"/><path d="M65,63L57,112L109,123Z" fill="rgb(35,29,81)" stroke="rgb(35,29,81)" stroke-width="1.51"/><path d="M809,220L785,251L847,280Z" fill="rgb(37,88,79)" stroke="rgb(37,88,79)" stroke-width="1.51"/><path d="M711,198L725,121L664,102Z" fill="rgb(50,81,85)" stroke="rgb(50,81,85)" stroke-width="1.51"/><path d="M-39,344L-50,444L40,397Z" fill="rgb(62,64,106)" stroke="rgb(62,64,106)" stroke-width="1.51"/><path d="M-40,661L49,708L55,629Z" fill="rgb(51,67,69)" stroke="rgb(51,67,69)" stroke-width="1.51"/><path d="M495,815L577,781L490,726Z" fill="rgb(69,131,102)" stroke="rgb(69,131,102)" stroke-width="1.51"/><path d="M495,815L490,726L407,779Z" fill="rgb(63,122,98)" stroke="rgb(63,122,98)" stroke-width="1.51"/><path d="M723,722L717,669L664,675Z" fill="rgb(39,118,63)" stroke="rgb(39,118,63)" stroke-width="1.51"/><path d="M740,557L798,592L779,484Z" fill="rgb(57,125,84)" stroke="rgb(57,125,84)" stroke-width="1.51"/><path d="M723,722L664,675L632,731Z" fill="rgb(42,120,66)" stroke="rgb(42,120,66)" stroke-width="1.51"/><path d="M49,708L124,747L105,651Z" fill="rgb(44,71,66)" stroke="rgb(44,71,66)" stroke-width="1.51"/><path d="M295,826L407,779L335,787Z" fill="rgb(47,101,86)" stroke="rgb(47,101,86)" stroke-width="1.51"/><path d="M295,826L495,815L407,779Z" fill="rgb(54,110,92)" stroke="rgb(54,110,92)" stroke-width="1.51"/><path d="M223,775L295,826L246,728Z" fill="rgb(34,85,77)" stroke="rgb(34,85,77)" stroke-width="1.51"/><path d="M94,786L295,826L223,775Z" fill="rgb(38,81,73)" stroke="rgb(38,81,73)" stroke-width="1.51"/><path d="M664,102L718,56L632,63Z" fill="rgb(56,76,86)" stroke="rgb(56,76,86)" stroke-width="1.51"/><path d="M809,220L725,121L711,198Z" fill="rgb(41,81,78)" stroke="rgb(41,81,78)" stroke-width="1.51"/><path d="M349,-19L352,-77L297,-7Z" fill="rgb(46,47,95)" stroke="rgb(46,47,95)" stroke-width="1.51"/><path d="M478,-41L512,31L564,-41Z" fill="rgb(74,77,114)" stroke="rgb(74,77,114)" stroke-width="1.51"/><path d="M183,-52L117,40L174,72Z" fill="rgb(35,28,80)" stroke="rgb(35,28,80)" stroke-width="1.51"/><path d="M564,-41L512,31L587,50Z" fill="rgb(70,77,107)" stroke="rgb(70,77,107)" stroke-width="1.51"/><path d="M564,-41L587,50L635,-13Z" fill="rgb(67,73,97)" stroke="rgb(67,73,97)" stroke-width="1.51"/><path d="M-50,444L-51,516L50,477Z" fill="rgb(73,77,112)" stroke="rgb(73,77,112)" stroke-width="1.51"/><path d="M55,629L49,708L105,651Z" fill="rgb(50,71,73)" stroke="rgb(50,71,73)" stroke-width="1.51"/><path d="M-19,119L-32,210L20,174Z" fill="rgb(35,29,81)" stroke="rgb(35,29,81)" stroke-width="1.51"/><path d="M20,174L-32,210L52,297Z" fill="rgb(33,37,87)" stroke="rgb(33,37,87)" stroke-width="1.51"/><path d="M-105,406L-97,474L-50,444Z" fill="rgb(70,73,112)" stroke="rgb(70,73,112)" stroke-width="1.51"/><path d="M-19,119L20,174L57,112Z" fill="rgb(36,27,80)" stroke="rgb(36,27,80)" stroke-width="1.51"/><path d="M-32,210L-54,259L52,297Z" fill="rgb(37,39,89)" stroke="rgb(37,39,89)" stroke-width="1.51"/><path d="M-50,444L-97,474L-51,516Z" fill="rgb(73,77,112)" stroke="rgb(73,77,112)" stroke-width="1.51"/><path d="M-40,661L55,629L39,586Z" fill="rgb(56,69,78)" stroke="rgb(56,69,78)" stroke-width="1.51"/><path d="M117,40L65,63L109,123Z" fill="rgb(36,29,81)" stroke="rgb(36,29,81)" stroke-width="1.51"/><path d="M-51,516L-46,571L39,586Z" fill="rgb(65,72,93)" stroke="rgb(65,72,93)" stroke-width="1.51"/><path d="M717,669L798,592L740,557Z" fill="rgb(47,122,72)" stroke="rgb(47,122,72)" stroke-width="1.51"/><path d="M779,484L869,425L797,411Z" fill="rgb(66,126,101)" stroke="rgb(66,126,101)" stroke-width="1.51"/><path d="M847,280L771,358L883,337Z" fill="rgb(49,103,87)" stroke="rgb(49,103,87)" stroke-width="1.51"/><path d="M847,280L785,251L771,358Z" fill="rgb(44,97,84)" stroke="rgb(44,97,84)" stroke-width="1.51"/><path d="M785,251L809,220L711,198Z" fill="rgb(35,84,76)" stroke="rgb(35,84,76)" stroke-width="1.51"/><path d="M442,-42L352,-77L349,-19Z" fill="rgb(54,55,100)" stroke="rgb(54,55,100)" stroke-width="1.51"/><path d="M297,-7L183,-52L174,72Z" fill="rgb(34,32,84)" stroke="rgb(34,32,84)" stroke-width="1.51"/><path d="M117,40L70,-13L65,63Z" fill="rgb(37,22,76)" stroke="rgb(37,22,76)" stroke-width="1.51"/><path d="M431,-119L352,-77L442,-42Z" fill="rgb(58,60,103)" stroke="rgb(58,60,103)" stroke-width="1.51"/><path d="M651,802L632,731L577,781Z" fill="rgb(53,123,79)" stroke="rgb(53,123,79)" stroke-width="1.51"/><path d="M651,802L723,722L632,731Z" fill="rgb(43,120,67)" stroke="rgb(43,120,67)" stroke-width="1.51"/><path d="M717,669L824,672L798,592Z" fill="rgb(35,117,58)" stroke="rgb(35,117,58)" stroke-width="1.51"/><path d="M478,-41L470,-89L442,-42Z" fill="rgb(67,69,109)" stroke="rgb(67,69,109)" stroke-width="1.51"/><path d="M635,-13L587,50L632,63Z" fill="rgb(63,75,95)" stroke="rgb(63,75,95)" stroke-width="1.51"/><path d="M725,121L718,56L664,102Z" fill="rgb(52,76,80)" stroke="rgb(52,76,80)" stroke-width="1.51"/><path d="M824,64L718,56L725,121Z" fill="rgb(46,71,68)" stroke="rgb(46,71,68)" stroke-width="1.51"/><path d="M883,337L771,358L797,411Z" fill="rgb(55,111,93)" stroke="rgb(55,111,93)" stroke-width="1.51"/><path d="M809,220L822,113L725,121Z" fill="rgb(40,77,71)" stroke="rgb(40,77,71)" stroke-width="1.51"/><path d="M718,56L635,-13L632,63Z" fill="rgb(58,72,85)" stroke="rgb(58,72,85)" stroke-width="1.51"/><path d="M-51,516L-99,598L-46,571Z" fill="rgb(64,72,92)" stroke="rgb(64,72,92)" stroke-width="1.51"/><path d="M-105,406L-50,444L-39,344Z" fill="rgb(63,65,107)" stroke="rgb(63,65,107)" stroke-width="1.51"/><path d="M124,747L94,786L223,775Z" fill="rgb(42,75,69)" stroke="rgb(42,75,69)" stroke-width="1.51"/><path d="M49,708L94,786L124,747Z" fill="rgb(44,70,66)" stroke="rgb(44,70,66)" stroke-width="1.51"/><path d="M23,799L94,786L49,708Z" fill="rgb(46,67,63)" stroke="rgb(46,67,63)" stroke-width="1.51"/><path d="M-104,328L-105,406L-39,344Z" fill="rgb(56,58,102)" stroke="rgb(56,58,102)" stroke-width="1.51"/><path d="M65,63L-19,119L57,112Z" fill="rgb(36,25,78)" stroke="rgb(36,25,78)" stroke-width="1.51"/><path d="M-32,210L-87,251L-54,259Z" fill="rgb(34,37,87)" stroke="rgb(34,37,87)" stroke-width="1.51"/><path d="M-54,259L-104,328L-39,344Z" fill="rgb(47,49,96)" stroke="rgb(47,49,96)" stroke-width="1.51"/><path d="M495,815L651,802L577,781Z" fill="rgb(60,127,89)" stroke="rgb(60,127,89)" stroke-width="1.51"/><path d="M-87,251L-104,328L-54,259Z" fill="rgb(42,44,92)" stroke="rgb(42,44,92)" stroke-width="1.51"/><path d="M270,-128L183,-52L297,-7Z" fill="rgb(33,35,86)" stroke="rgb(33,35,86)" stroke-width="1.51"/><path d="M65,63L-50,51L-19,119Z" fill="rgb(37,18,74)" stroke="rgb(37,18,74)" stroke-width="1.51"/><path d="M-129,228L-87,251L-32,210Z" fill="rgb(33,35,86)" stroke="rgb(33,35,86)" stroke-width="1.51"/><path d="M877,475L869,425L779,484Z" fill="rgb(69,130,103)" stroke="rgb(69,130,103)" stroke-width="1.51"/><path d="M557,-82L478,-41L564,-41Z" fill="rgb(73,76,111)" stroke="rgb(73,76,111)" stroke-width="1.51"/><path d="M557,-82L470,-89L478,-41Z" fill="rgb(73,76,114)" stroke="rgb(73,76,114)" stroke-width="1.51"/><path d="M-46,571L-40,661L39,586Z" fill="rgb(59,69,81)" stroke="rgb(59,69,81)" stroke-width="1.51"/><path d="M-99,598L-40,661L-46,571Z" fill="rgb(58,68,81)" stroke="rgb(58,68,81)" stroke-width="1.51"/><path d="M869,425L883,337L797,411Z" fill="rgb(59,116,95)" stroke="rgb(59,116,95)" stroke-width="1.51"/><path d="M860,558L877,475L779,484Z" fill="rgb(64,128,94)" stroke="rgb(64,128,94)" stroke-width="1.51"/><path d="M860,558L779,484L798,592Z" fill="rgb(57,125,84)" stroke="rgb(57,125,84)" stroke-width="1.51"/><path d="M853,142L822,113L809,220Z" fill="rgb(40,78,71)" stroke="rgb(40,78,71)" stroke-width="1.51"/><path d="M877,475L883,337L869,425Z" fill="rgb(62,120,97)" stroke="rgb(62,120,97)" stroke-width="1.51"/><path d="M889,645L860,558L798,592Z" fill="rgb(45,121,70)" stroke="rgb(45,121,70)" stroke-width="1.51"/><path d="M630,-108L557,-82L564,-41Z" fill="rgb(68,74,100)" stroke="rgb(68,74,100)" stroke-width="1.51"/><path d="M630,-108L564,-41L635,-13Z" fill="rgb(65,72,94)" stroke="rgb(65,72,94)" stroke-width="1.51"/><path d="M96,-49L70,-13L117,40Z" fill="rgb(37,19,74)" stroke="rgb(37,19,74)" stroke-width="1.51"/><path d="M205,-124L146,-74L183,-52Z" fill="rgb(36,28,80)" stroke="rgb(36,28,80)" stroke-width="1.51"/><path d="M470,-89L431,-119L442,-42Z" fill="rgb(64,66,108)" stroke="rgb(64,66,108)" stroke-width="1.51"/><path d="M557,-82L431,-119L470,-89Z" fill="rgb(70,73,112)" stroke="rgb(70,73,112)" stroke-width="1.51"/><path d="M-40,661L-21,726L49,708Z" fill="rgb(48,62,60)" stroke="rgb(48,62,60)" stroke-width="1.51"/><path d="M-102,745L-21,726L-40,661Z" fill="rgb(47,62,60)" stroke="rgb(47,62,60)" stroke-width="1.51"/><path d="M-103,629L-99,598L-97,474Z" fill="rgb(64,71,91)" stroke="rgb(64,71,91)" stroke-width="1.51"/><path d="M-97,474L-99,598L-51,516Z" fill="rgb(68,74,100)" stroke="rgb(68,74,100)" stroke-width="1.51"/><path d="M808,708L824,672L717,669Z" fill="rgb(22,114,48)" stroke="rgb(22,114,48)" stroke-width="1.51"/><path d="M808,708L717,669L723,722Z" fill="rgb(23,114,48)" stroke="rgb(23,114,48)" stroke-width="1.51"/><path d="M718,56L695,-52L635,-13Z" fill="rgb(57,68,78)" stroke="rgb(57,68,78)" stroke-width="1.51"/><path d="M872,206L809,220L847,280Z" fill="rgb(35,86,77)" stroke="rgb(35,86,77)" stroke-width="1.51"/><path d="M183,-52L96,-49L117,40Z" fill="rgb(37,23,77)" stroke="rgb(37,23,77)" stroke-width="1.51"/><path d="M270,-128L297,-7L352,-77Z" fill="rgb(42,43,92)" stroke="rgb(42,43,92)" stroke-width="1.51"/><path d="M883,337L872,206L847,280Z" fill="rgb(41,93,81)" stroke="rgb(41,93,81)" stroke-width="1.51"/><path d="M146,-74L96,-49L183,-52Z" fill="rgb(36,24,78)" stroke="rgb(36,24,78)" stroke-width="1.51"/><path d="M785,802L808,708L723,722Z" fill="rgb(15,112,43)" stroke="rgb(15,112,43)" stroke-width="1.51"/><path d="M431,-119L270,-128L352,-77Z" fill="rgb(49,51,97)" stroke="rgb(49,51,97)" stroke-width="1.51"/><path d="M-87,251L-129,228L-104,328Z" fill="rgb(40,42,91)" stroke="rgb(40,42,91)" stroke-width="1.51"/><path d="M-104,328L-129,228L-105,406Z" fill="rgb(49,51,97)" stroke="rgb(49,51,97)" stroke-width="1.51"/><path d="M-105,406L-103,629L-97,474Z" fill="rgb(71,75,106)" stroke="rgb(71,75,106)" stroke-width="1.51"/><path d="M-117,127L-129,228L-32,210Z" fill="rgb(35,31,83)" stroke="rgb(35,31,83)" stroke-width="1.51"/><path d="M-117,127L-32,210L-19,119Z" fill="rgb(36,27,80)" stroke="rgb(36,27,80)" stroke-width="1.51"/><path d="M-50,51L65,63L-40,-5Z" fill="rgb(38,13,71)" stroke="rgb(38,13,71)" stroke-width="1.51"/><path d="M872,206L853,142L809,220Z" fill="rgb(38,81,74)" stroke="rgb(38,81,74)" stroke-width="1.51"/><path d="M-99,598L-103,629L-40,661Z" fill="rgb(56,67,76)" stroke="rgb(56,67,76)" stroke-width="1.51"/><path d="M-129,228L-103,629L-105,406Z" fill="rgb(67,69,109)" stroke="rgb(67,69,109)" stroke-width="1.51"/><path d="M-52,801L23,799L-21,726Z" fill="rgb(47,62,60)" stroke="rgb(47,62,60)" stroke-width="1.51"/><path d="M-21,726L23,799L49,708Z" fill="rgb(47,64,60)" stroke="rgb(47,64,60)" stroke-width="1.51"/><path d="M94,786L23,799L295,826Z" fill="rgb(42,74,69)" stroke="rgb(42,74,69)" stroke-width="1.51"/><path d="M557,-82L630,-108L431,-119Z" fill="rgb(72,76,109)" stroke="rgb(72,76,109)" stroke-width="1.51"/><path d="M786,-27L695,-52L718,56Z" fill="rgb(52,65,67)" stroke="rgb(52,65,67)" stroke-width="1.51"/><path d="M824,64L725,121L822,113Z" fill="rgb(43,72,67)" stroke="rgb(43,72,67)" stroke-width="1.51"/><path d="M270,-128L205,-124L183,-52Z" fill="rgb(34,32,83)" stroke="rgb(34,32,83)" stroke-width="1.51"/><path d="M146,-74L50,-102L96,-49Z" fill="rgb(37,20,75)" stroke="rgb(37,20,75)" stroke-width="1.51"/><path d="M-99,71L-50,51L-80,-28Z" fill="rgb(38,13,70)" stroke="rgb(38,13,70)" stroke-width="1.51"/><path d="M-40,-5L65,63L70,-13Z" fill="rgb(38,14,71)" stroke="rgb(38,14,71)" stroke-width="1.51"/><path d="M878,42L824,64L822,113Z" fill="rgb(45,69,65)" stroke="rgb(45,69,65)" stroke-width="1.51"/><path d="M695,-52L630,-108L635,-13Z" fill="rgb(61,70,84)" stroke="rgb(61,70,84)" stroke-width="1.51"/><path d="M431,-119L807,-102L270,-128Z" fill="rgb(73,76,114)" stroke="rgb(73,76,114)" stroke-width="1.51"/><path d="M295,826L743,825L495,815Z" fill="rgb(70,131,103)" stroke="rgb(70,131,103)" stroke-width="1.51"/><path d="M495,815L743,825L651,802Z" fill="rgb(51,123,76)" stroke="rgb(51,123,76)" stroke-width="1.51"/><path d="M651,802L743,825L723,722Z" fill="rgb(35,117,59)" stroke="rgb(35,117,59)" stroke-width="1.51"/><path d="M-99,71L-117,127L-19,119Z" fill="rgb(37,22,76)" stroke="rgb(37,22,76)" stroke-width="1.51"/><path d="M847,732L824,672L808,708Z" fill="rgb(15,112,43)" stroke="rgb(15,112,43)" stroke-width="1.51"/><path d="M847,732L889,645L824,672Z" fill="rgb(22,114,48)" stroke="rgb(22,114,48)" stroke-width="1.51"/><path d="M824,672L889,645L798,592Z" fill="rgb(36,118,60)" stroke="rgb(36,118,60)" stroke-width="1.51"/><path d="M860,558L889,645L877,475Z" fill="rgb(54,124,80)" stroke="rgb(54,124,80)" stroke-width="1.51"/><path d="M877,475L889,645L883,337Z" fill="rgb(67,130,99)" stroke="rgb(67,130,99)" stroke-width="1.51"/><path d="M743,825L785,802L723,722Z" fill="rgb(23,114,48)" stroke="rgb(23,114,48)" stroke-width="1.51"/><path d="M785,802L847,732L808,708Z" fill="rgb(15,112,43)" stroke="rgb(15,112,43)" stroke-width="1.51"/><path d="M-50,51L-99,71L-19,119Z" fill="rgb(37,19,74)" stroke="rgb(37,19,74)" stroke-width="1.51"/><path d="M-40,-5L70,-13L-19,-99Z" fill="rgb(38,8,68)" stroke="rgb(38,8,68)" stroke-width="1.51"/><path d="M50,-102L70,-13L96,-49Z" fill="rgb(37,17,73)" stroke="rgb(37,17,73)" stroke-width="1.51"/><path d="M824,64L786,-27L718,56Z" fill="rgb(46,65,62)" stroke="rgb(46,65,62)" stroke-width="1.51"/><path d="M695,-52L737,-82L630,-108Z" fill="rgb(56,67,77)" stroke="rgb(56,67,77)" stroke-width="1.51"/><path d="M-102,745L-52,801L-21,726Z" fill="rgb(47,62,60)" stroke="rgb(47,62,60)" stroke-width="1.51"/><path d="M23,799L-109,807L295,826Z" fill="rgb(45,68,64)" stroke="rgb(45,68,64)" stroke-width="1.51"/><path d="M-103,629L-102,745L-40,661Z" fill="rgb(50,64,65)" stroke="rgb(50,64,65)" stroke-width="1.51"/><path d="M-109,807L-102,745L-103,629Z" fill="rgb(47,62,60)" stroke="rgb(47,62,60)" stroke-width="1.51"/><path d="M786,-27L737,-82L695,-52Z" fill="rgb(51,64,66)" stroke="rgb(51,64,66)" stroke-width="1.51"/><path d="M205,-124L50,-102L146,-74Z" fill="rgb(37,24,77)" stroke="rgb(37,24,77)" stroke-width="1.51"/><path d="M786,-27L807,-102L737,-82Z" fill="rgb(47,62,60)" stroke="rgb(47,62,60)" stroke-width="1.51"/><path d="M824,64L878,42L786,-27Z" fill="rgb(47,65,61)" stroke="rgb(47,65,61)" stroke-width="1.51"/><path d="M853,142L878,42L822,113Z" fill="rgb(43,72,67)" stroke="rgb(43,72,67)" stroke-width="1.51"/><path d="M872,206L878,42L853,142Z" fill="rgb(42,75,69)" stroke="rgb(42,75,69)" stroke-width="1.51"/><path d="M899,-23L878,42L872,206Z" fill="rgb(45,70,65)" stroke="rgb(45,70,65)" stroke-width="1.51"/><path d="M899,-23L872,206L883,337Z" fill="rgb(39,79,72)" stroke="rgb(39,79,72)" stroke-width="1.51"/><path d="M-40,-5L-80,-28L-50,51Z" fill="rgb(38,9,68)" stroke="rgb(38,9,68)" stroke-width="1.51"/><path d="M-99,71L-113,-89L-117,127Z" fill="rgb(38,13,71)" stroke="rgb(38,13,71)" stroke-width="1.51"/><path d="M-19,-99L-80,-28L-40,-5Z" fill="rgb(38,8,68)" stroke="rgb(38,8,68)" stroke-width="1.51"/><path d="M205,-124L-19,-99L50,-102Z" fill="rgb(37,18,73)" stroke="rgb(37,18,73)" stroke-width="1.51"/><path d="M50,-102L-19,-99L70,-13Z" fill="rgb(38,13,70)" stroke="rgb(38,13,70)" stroke-width="1.51"/><path d="M-102,745L-109,807L-52,801Z" fill="rgb(47,62,60)" stroke="rgb(47,62,60)" stroke-width="1.51"/><path d="M-52,801L-109,807L23,799Z" fill="rgb(47,62,60)" stroke="rgb(47,62,60)" stroke-width="1.51"/><path d="M-129,228L-109,807L-103,629Z" fill="rgb(65,72,93)" stroke="rgb(65,72,93)" stroke-width="1.51"/><path d="M869,-98L807,-102L786,-27Z" fill="rgb(47,62,60)" stroke="rgb(47,62,60)" stroke-width="1.51"/><path d="M737,-82L807,-102L630,-108Z" fill="rgb(53,65,69)" stroke="rgb(53,65,69)" stroke-width="1.51"/><path d="M630,-108L807,-102L431,-119Z" fill="rgb(64,71,91)" stroke="rgb(64,71,91)" stroke-width="1.51"/><path d="M743,825L887,812L785,802Z" fill="rgb(15,112,43)" stroke="rgb(15,112,43)" stroke-width="1.51"/><path d="M785,802L887,812L847,732Z" fill="rgb(15,112,43)" stroke="rgb(15,112,43)" stroke-width="1.51"/><path d="M847,732L887,812L889,645Z" fill="rgb(15,112,43)" stroke="rgb(15,112,43)" stroke-width="1.51"/><path d="M878,42L899,-23L786,-27Z" fill="rgb(47,62,60)" stroke="rgb(47,62,60)" stroke-width="1.51"/><path d="M889,645L899,-23L883,337Z" fill="rgb(48,102,87)" stroke="rgb(48,102,87)" stroke-width="1.51"/><path d="M887,812L899,-23L889,645Z" fill="rgb(68,130,101)" stroke="rgb(68,130,101)" stroke-width="1.51"/><path d="M-19,-99L-113,-89L-80,-28Z" fill="rgb(38,8,68)" stroke="rgb(38,8,68)" stroke-width="1.51"/><path d="M-80,-28L-113,-89L-99,71Z" fill="rgb(38,8,68)" stroke="rgb(38,8,68)" stroke-width="1.51"/><path d="M-117,127L-113,-89L-129,228Z" fill="rgb(37,20,75)" stroke="rgb(37,20,75)" stroke-width="1.51"/><path d="M205,-124L-113,-89L-19,-99Z" fill="rgb(38,11,69)" stroke="rgb(38,11,69)" stroke-width="1.51"/><path d="M899,-23L869,-98L786,-27Z" fill="rgb(47,62,60)" stroke="rgb(47,62,60)" stroke-width="1.51"/></svg>