<svg xmlns="http://www.w3.org/2000/svg" width="500" height="700"><path d="M213,356L216,281L131,342Z" fill="rgb(39,119,63)" stroke="rgb(39,119,63)" stroke-width="1.51"/><path d="M216,281L154,262L131,342Z" fill="rgb(48,122,74)" stroke="rgb(48,122,74)" stroke-width="1.51"/><path d="M216,281L189,222L154,262Z" fill="rgb(50,123,75)" stroke="rgb(50,123,75)" stroke-width="1.51"/><path d="M58,251L71,345L131,342Z" fill="rgb(61,127,89)" stroke="rgb(61,127,89)" stroke-width="1.51"/><path d="M202,449L277,398L213,356Z" fill="rgb(28,109,54)" stroke="rgb(28,109,54)" stroke-width="1.51"/><path d="M58,251L131,342L154,262Z" fill="rgb(59,126,87)" stroke="rgb(59,126,87)" stroke-width="1.51"/><path d="M189,222L155,197L154,262Z" fill="rgb(58,125,85)" stroke="rgb(58,125,85)" stroke-width="1.51"/><path d="M310,333L296,261L216,281Z" fill="rgb(32,112,57)" stroke="rgb(32,112,57)" stroke-width="1.51"/><path d="M216,281L284,227L189,222Z" fill="rgb(43,120,67)" stroke="rgb(43,120,67)" stroke-width="1.51"/><path d="M121,433L213,356L131,342Z" fill="rgb(44,117,69)" stroke="rgb(44,117,69)" stroke-width="1.51"/><path d="M71,345L121,433L131,342Z" fill="rgb(53,121,80)" stroke="rgb(53,121,80)" stroke-width="1.51"/><path d="M310,333L216,281L213,356Z" fill="rgb(24,114,49)" stroke="rgb(24,114,49)" stroke-width="1.51"/><path d="M189,222L185,104L155,197Z" fill="rgb(62,127,91)" stroke="rgb(62,127,91)" stroke-width="1.51"/><path d="M277,398L310,333L213,356Z" fill="rgb(20,109,47)" stroke="rgb(20,109,47)" stroke-width="1.51"/><path d="M121,433L202,449L213,356Z" fill="rgb(40,112,67)" stroke="rgb(40,112,67)" stroke-width="1.51"/><path d="M155,197L58,251L154,262Z" fill="rgb(64,129,94)" stroke="rgb(64,129,94)" stroke-width="1.51"/><path d="M296,261L284,227L216,281Z" fill="rgb(37,115,62)" stroke="rgb(37,115,62)" stroke-width="1.51"/><path d="M155,197L55,211L58,251Z" fill="rgb(71,132,104)" stroke="rgb(71,132,104)" stroke-width="1.51"/><path d="M121,433L148,479L202,449Z" fill="rgb(46,111,76)" stroke="rgb(46,111,76)" stroke-width="1.51"/><path d="M71,345L56,452L121,433Z" fill="rgb(58,120,89)" stroke="rgb(58,120,89)" stroke-width="1.51"/><path d="M121,433L76,518L148,479Z" fill="rgb(53,112,88)" stroke="rgb(53,112,88)" stroke-width="1.51"/><path d="M-19,295L6,370L71,345Z" fill="rgb(69,130,101)" stroke="rgb(69,130,101)" stroke-width="1.51"/><path d="M-19,295L71,345L58,251Z" fill="rgb(71,132,104)" stroke="rgb(71,132,104)" stroke-width="1.51"/><path d="M6,370L56,452L71,345Z" fill="rgb(64,125,97)" stroke="rgb(64,125,97)" stroke-width="1.51"/><path d="M202,449L230,494L277,398Z" fill="rgb(30,105,57)" stroke="rgb(30,105,57)" stroke-width="1.51"/><path d="M277,398L356,376L310,333Z" fill="rgb(27,103,55)" stroke="rgb(27,103,55)" stroke-width="1.51"/><path d="M148,479L230,494L202,449Z" fill="rgb(40,107,70)" stroke="rgb(40,107,70)" stroke-width="1.51"/><path d="M310,333L382,296L296,261Z" fill="rgb(36,106,64)" stroke="rgb(36,106,64)" stroke-width="1.51"/><path d="M296,261L378,180L284,227Z" fill="rgb(46,111,75)" stroke="rgb(46,111,75)" stroke-width="1.51"/><path d="M365,400L356,376L277,398Z" fill="rgb(30,100,60)" stroke="rgb(30,100,60)" stroke-width="1.51"/><path d="M-25,221L-19,295L58,251Z" fill="rgb(80,136,119)" stroke="rgb(80,136,119)" stroke-width="1.51"/><path d="M266,502L365,400L277,398Z" fill="rgb(30,100,60)" stroke="rgb(30,100,60)" stroke-width="1.51"/><path d="M230,494L266,502L277,398Z" fill="rgb(28,102,57)" stroke="rgb(28,102,57)" stroke-width="1.51"/><path d="M291,575L266,502L221,602Z" fill="rgb(32,95,66)" stroke="rgb(32,95,66)" stroke-width="1.51"/><path d="M442,346L382,296L356,376Z" fill="rgb(33,97,65)" stroke="rgb(33,97,65)" stroke-width="1.51"/><path d="M356,376L382,296L310,333Z" fill="rgb(31,102,60)" stroke="rgb(31,102,60)" stroke-width="1.51"/><path d="M284,227L185,104L189,222Z" fill="rgb(53,124,79)" stroke="rgb(53,124,79)" stroke-width="1.51"/><path d="M155,197L83,107L55,211Z" fill="rgb(75,134,111)" stroke="rgb(75,134,111)" stroke-width="1.51"/><path d="M313,118L185,104L284,227Z" fill="rgb(53,122,79)" stroke="rgb(53,122,79)" stroke-width="1.51"/><path d="M-10,120L-25,221L55,211Z" fill="rgb(86,140,131)" stroke="rgb(86,140,131)" stroke-width="1.51"/><path d="M55,211L-25,221L58,251Z" fill="rgb(79,136,118)" stroke="rgb(79,136,118)" stroke-width="1.51"/><path d="M185,104L117,101L155,197Z" fill="rgb(70,132,104)" stroke="rgb(70,132,104)" stroke-width="1.51"/><path d="M56,452L76,518L121,433Z" fill="rgb(58,115,94)" stroke="rgb(58,115,94)" stroke-width="1.51"/><path d="M148,479L221,602L230,494Z" fill="rgb(40,102,73)" stroke="rgb(40,102,73)" stroke-width="1.51"/><path d="M-15,496L76,518L56,452Z" fill="rgb(65,117,107)" stroke="rgb(65,117,107)" stroke-width="1.51"/><path d="M117,101L83,107L155,197Z" fill="rgb(76,134,112)" stroke="rgb(76,134,112)" stroke-width="1.51"/><path d="M6,370L-39,402L56,452Z" fill="rgb(70,126,107)" stroke="rgb(70,126,107)" stroke-width="1.51"/><path d="M-19,295L-39,402L6,370Z" fill="rgb(70,131,104)" stroke="rgb(70,131,104)" stroke-width="1.51"/><path d="M-101,324L-39,402L-19,295Z" fill="rgb(71,132,105)" stroke="rgb(71,132,105)" stroke-width="1.51"/><path d="M378,180L313,118L284,227Z" fill="rgb(51,113,84)" stroke="rgb(51,113,84)" stroke-width="1.51"/><path d="M382,296L378,180L296,261Z" fill="rgb(44,107,75)" stroke="rgb(44,107,75)" stroke-width="1.51"/><path d="M117,101L74,24L83,107Z" fill="rgb(86,139,129)" stroke="rgb(86,139,129)" stroke-width="1.51"/><path d="M185,104L156,65L117,101Z" fill="rgb(75,134,111)" stroke="rgb(75,134,111)" stroke-width="1.51"/><path d="M237,45L156,65L185,104Z" fill="rgb(72,132,105)" stroke="rgb(72,132,105)" stroke-width="1.51"/><path d="M365,400L442,346L356,376Z" fill="rgb(33,95,66)" stroke="rgb(33,95,66)" stroke-width="1.51"/><path d="M382,296L444,265L378,180Z" fill="rgb(45,101,82)" stroke="rgb(45,101,82)" stroke-width="1.51"/><path d="M388,486L416,426L365,400Z" fill="rgb(34,90,71)" stroke="rgb(34,90,71)" stroke-width="1.51"/><path d="M-39,402L-15,496L56,452Z" fill="rgb(71,123,113)" stroke="rgb(71,123,113)" stroke-width="1.51"/><path d="M-25,221L-80,255L-19,295Z" fill="rgb(80,136,120)" stroke="rgb(80,136,120)" stroke-width="1.51"/><path d="M-39,402L-62,438L-15,496Z" fill="rgb(70,123,112)" stroke="rgb(70,123,112)" stroke-width="1.51"/><path d="M-82,175L-80,255L-25,221Z" fill="rgb(85,139,127)" stroke="rgb(85,139,127)" stroke-width="1.51"/><path d="M416,426L442,346L365,400Z" fill="rgb(34,92,69)" stroke="rgb(34,92,69)" stroke-width="1.51"/><path d="M-101,324L-62,438L-39,402Z" fill="rgb(70,128,107)" stroke="rgb(70,128,107)" stroke-width="1.51"/><path d="M266,502L388,486L365,400Z" fill="rgb(33,94,67)" stroke="rgb(33,94,67)" stroke-width="1.51"/><path d="M41,596L115,580L76,518Z" fill="rgb(59,108,105)" stroke="rgb(59,108,105)" stroke-width="1.51"/><path d="M76,518L115,580L148,479Z" fill="rgb(54,109,93)" stroke="rgb(54,109,93)" stroke-width="1.51"/><path d="M266,502L291,575L388,486Z" fill="rgb(33,92,69)" stroke="rgb(33,92,69)" stroke-width="1.51"/><path d="M442,346L444,265L382,296Z" fill="rgb(38,96,75)" stroke="rgb(38,96,75)" stroke-width="1.51"/><path d="M83,107L-10,120L55,211Z" fill="rgb(86,139,129)" stroke="rgb(86,139,129)" stroke-width="1.51"/><path d="M74,24L-10,120L83,107Z" fill="rgb(91,142,138)" stroke="rgb(91,142,138)" stroke-width="1.51"/><path d="M313,118L237,45L185,104Z" fill="rgb(61,127,90)" stroke="rgb(61,127,90)" stroke-width="1.51"/><path d="M303,53L237,45L313,118Z" fill="rgb(63,124,96)" stroke="rgb(63,124,96)" stroke-width="1.51"/><path d="M-80,255L-101,324L-19,295Z" fill="rgb(77,135,114)" stroke="rgb(77,135,114)" stroke-width="1.51"/><path d="M221,602L266,502L230,494Z" fill="rgb(33,99,65)" stroke="rgb(33,99,65)" stroke-width="1.51"/><path d="M378,180L364,103L313,118Z" fill="rgb(57,113,94)" stroke="rgb(57,113,94)" stroke-width="1.51"/><path d="M461,132L364,103L378,180Z" fill="rgb(56,107,99)" stroke="rgb(56,107,99)" stroke-width="1.51"/><path d="M115,580L221,602L148,479Z" fill="rgb(47,103,84)" stroke="rgb(47,103,84)" stroke-width="1.51"/><path d="M364,69L303,53L313,118Z" fill="rgb(62,118,100)" stroke="rgb(62,118,100)" stroke-width="1.51"/><path d="M-10,120L-82,175L-25,221Z" fill="rgb(89,141,135)" stroke="rgb(89,141,135)" stroke-width="1.51"/><path d="M-80,255L-82,175L-101,324Z" fill="rgb(81,137,121)" stroke="rgb(81,137,121)" stroke-width="1.51"/><path d="M444,265L453,185L378,180Z" fill="rgb(48,100,90)" stroke="rgb(48,100,90)" stroke-width="1.51"/><path d="M521,189L453,185L444,265Z" fill="rgb(48,95,96)" stroke="rgb(48,95,96)" stroke-width="1.51"/><path d="M-17,561L41,596L76,518Z" fill="rgb(64,112,114)" stroke="rgb(64,112,114)" stroke-width="1.51"/><path d="M-62,438L-66,507L-15,496Z" fill="rgb(70,121,115)" stroke="rgb(70,121,115)" stroke-width="1.51"/><path d="M-101,324L-66,507L-62,438Z" fill="rgb(70,125,111)" stroke="rgb(70,125,111)" stroke-width="1.51"/><path d="M364,103L364,69L313,118Z" fill="rgb(61,115,100)" stroke="rgb(61,115,100)" stroke-width="1.51"/><path d="M422,28L364,69L364,103Z" fill="rgb(63,112,109)" stroke="rgb(63,112,109)" stroke-width="1.51"/><path d="M115,580L128,661L221,602Z" fill="rgb(48,99,91)" stroke="rgb(48,99,91)" stroke-width="1.51"/><path d="M-17,561L76,518L-15,496Z" fill="rgb(67,116,116)" stroke="rgb(67,116,116)" stroke-width="1.51"/><path d="M156,65L74,24L117,101Z" fill="rgb(83,138,125)" stroke="rgb(83,138,125)" stroke-width="1.51"/><path d="M-10,120L-76,106L-82,175Z" fill="rgb(92,143,141)" stroke="rgb(92,143,141)" stroke-width="1.51"/><path d="M56,-8L74,24L135,-50Z" fill="rgb(93,144,143)" stroke="rgb(93,144,143)" stroke-width="1.51"/><path d="M212,-39L156,65L237,45Z" fill="rgb(75,134,112)" stroke="rgb(75,134,112)" stroke-width="1.51"/><path d="M-66,507L-17,561L-15,496Z" fill="rgb(70,117,119)" stroke="rgb(70,117,119)" stroke-width="1.51"/><path d="M388,486L441,485L416,426Z" fill="rgb(34,85,77)" stroke="rgb(34,85,77)" stroke-width="1.51"/><path d="M416,426L486,425L442,346Z" fill="rgb(34,87,75)" stroke="rgb(34,87,75)" stroke-width="1.51"/><path d="M442,346L533,273L444,265Z" fill="rgb(40,91,83)" stroke="rgb(40,91,83)" stroke-width="1.51"/><path d="M390,563L441,485L388,486Z" fill="rgb(34,82,80)" stroke="rgb(34,82,80)" stroke-width="1.51"/><path d="M385,626L390,563L291,575Z" fill="rgb(34,82,80)" stroke="rgb(34,82,80)" stroke-width="1.51"/><path d="M291,575L390,563L388,486Z" fill="rgb(34,86,76)" stroke="rgb(34,86,76)" stroke-width="1.51"/><path d="M221,602L274,628L291,575Z" fill="rgb(33,91,70)" stroke="rgb(33,91,70)" stroke-width="1.51"/><path d="M217,669L274,628L221,602Z" fill="rgb(36,91,74)" stroke="rgb(36,91,74)" stroke-width="1.51"/><path d="M492,510L486,425L441,485Z" fill="rgb(33,79,84)" stroke="rgb(33,79,84)" stroke-width="1.51"/><path d="M441,485L486,425L416,426Z" fill="rgb(34,83,79)" stroke="rgb(34,83,79)" stroke-width="1.51"/><path d="M-37,32L-76,106L-10,120Z" fill="rgb(97,146,149)" stroke="rgb(97,146,149)" stroke-width="1.51"/><path d="M-82,175L-85,63L-101,324Z" fill="rgb(88,140,132)" stroke="rgb(88,140,132)" stroke-width="1.51"/><path d="M303,53L276,2L237,45Z" fill="rgb(67,127,101)" stroke="rgb(67,127,101)" stroke-width="1.51"/><path d="M373,0L276,2L303,53Z" fill="rgb(69,122,109)" stroke="rgb(69,122,109)" stroke-width="1.51"/><path d="M364,69L373,0L303,53Z" fill="rgb(67,118,109)" stroke="rgb(67,118,109)" stroke-width="1.51"/><path d="M453,185L461,132L378,180Z" fill="rgb(53,102,99)" stroke="rgb(53,102,99)" stroke-width="1.51"/><path d="M508,147L461,132L453,185Z" fill="rgb(53,97,106)" stroke="rgb(53,97,106)" stroke-width="1.51"/><path d="M486,425L514,366L442,346Z" fill="rgb(34,85,77)" stroke="rgb(34,85,77)" stroke-width="1.51"/><path d="M41,596L81,647L115,580Z" fill="rgb(58,105,108)" stroke="rgb(58,105,108)" stroke-width="1.51"/><path d="M-25,623L81,647L41,596Z" fill="rgb(63,107,121)" stroke="rgb(63,107,121)" stroke-width="1.51"/><path d="M390,563L409,575L441,485Z" fill="rgb(33,80,83)" stroke="rgb(33,80,83)" stroke-width="1.51"/><path d="M385,626L409,575L390,563Z" fill="rgb(33,78,85)" stroke="rgb(33,78,85)" stroke-width="1.51"/><path d="M74,24L-37,32L-10,120Z" fill="rgb(99,147,152)" stroke="rgb(99,147,152)" stroke-width="1.51"/><path d="M135,-50L74,24L156,65Z" fill="rgb(88,141,132)" stroke="rgb(88,141,132)" stroke-width="1.51"/><path d="M81,647L128,661L115,580Z" fill="rgb(54,101,103)" stroke="rgb(54,101,103)" stroke-width="1.51"/><path d="M274,628L385,626L291,575Z" fill="rgb(34,85,77)" stroke="rgb(34,85,77)" stroke-width="1.51"/><path d="M128,661L217,669L221,602Z" fill="rgb(43,94,86)" stroke="rgb(43,94,86)" stroke-width="1.51"/><path d="M56,-8L-37,32L74,24Z" fill="rgb(100,147,154)" stroke="rgb(100,147,154)" stroke-width="1.51"/><path d="M276,2L212,-39L237,45Z" fill="rgb(72,132,105)" stroke="rgb(72,132,105)" stroke-width="1.51"/><path d="M514,366L533,273L442,346Z" fill="rgb(36,87,80)" stroke="rgb(36,87,80)" stroke-width="1.51"/><path d="M-37,32L-85,63L-76,106Z" fill="rgb(99,147,153)" stroke="rgb(99,147,153)" stroke-width="1.51"/><path d="M-76,106L-85,63L-82,175Z" fill="rgb(94,144,144)" stroke="rgb(94,144,144)" stroke-width="1.51"/><path d="M533,273L521,189L444,265Z" fill="rgb(44,91,94)" stroke="rgb(44,91,94)" stroke-width="1.51"/><path d="M-17,561L-25,623L41,596Z" fill="rgb(68,111,125)" stroke="rgb(68,111,125)" stroke-width="1.51"/><path d="M81,647L138,706L128,661Z" fill="rgb(52,97,105)" stroke="rgb(52,97,105)" stroke-width="1.51"/><path d="M-89,598L-25,623L-17,561Z" fill="rgb(68,111,125)" stroke="rgb(68,111,125)" stroke-width="1.51"/><path d="M489,563L492,510L441,485Z" fill="rgb(31,75,88)" stroke="rgb(31,75,88)" stroke-width="1.51"/><path d="M486,425L560,476L514,366Z" fill="rgb(33,80,83)" stroke="rgb(33,80,83)" stroke-width="1.51"/><path d="M609,251L561,196L533,273Z" fill="rgb(45,91,94)" stroke="rgb(45,91,94)" stroke-width="1.51"/><path d="M56,-8L1,-27L-37,32Z" fill="rgb(104,150,163)" stroke="rgb(104,150,163)" stroke-width="1.51"/><path d="M212,-39L135,-50L156,65Z" fill="rgb(83,138,123)" stroke="rgb(83,138,123)" stroke-width="1.51"/><path d="M422,28L373,0L364,69Z" fill="rgb(66,114,115)" stroke="rgb(66,114,115)" stroke-width="1.51"/><path d="M276,2L284,-115L212,-39Z" fill="rgb(70,130,104)" stroke="rgb(70,130,104)" stroke-width="1.51"/><path d="M521,189L508,147L453,185Z" fill="rgb(51,94,105)" stroke="rgb(51,94,105)" stroke-width="1.51"/><path d="M409,575L489,563L441,485Z" fill="rgb(32,76,87)" stroke="rgb(32,76,87)" stroke-width="1.51"/><path d="M283,718L385,626L274,628Z" fill="rgb(34,81,81)" stroke="rgb(34,81,81)" stroke-width="1.51"/><path d="M422,28L364,103L461,132Z" fill="rgb(61,108,110)" stroke="rgb(61,108,110)" stroke-width="1.51"/><path d="M533,33L422,28L461,132Z" fill="rgb(60,103,120)" stroke="rgb(60,103,120)" stroke-width="1.51"/><path d="M-37,32L-88,-38L-85,63Z" fill="rgb(104,149,161)" stroke="rgb(104,149,161)" stroke-width="1.51"/><path d="M44,-110L1,-27L56,-8Z" fill="rgb(101,148,156)" stroke="rgb(101,148,156)" stroke-width="1.51"/><path d="M-66,507L-89,598L-17,561Z" fill="rgb(69,115,122)" stroke="rgb(69,115,122)" stroke-width="1.51"/><path d="M-101,324L-89,598L-66,507Z" fill="rgb(70,121,115)" stroke="rgb(70,121,115)" stroke-width="1.51"/><path d="M128,661L138,706L217,669Z" fill="rgb(46,93,95)" stroke="rgb(46,93,95)" stroke-width="1.51"/><path d="M217,669L283,718L274,628Z" fill="rgb(34,86,76)" stroke="rgb(34,86,76)" stroke-width="1.51"/><path d="M78,752L138,706L81,647Z" fill="rgb(53,96,111)" stroke="rgb(53,96,111)" stroke-width="1.51"/><path d="M11,712L81,647L-25,623Z" fill="rgb(63,104,126)" stroke="rgb(63,104,126)" stroke-width="1.51"/><path d="M464,642L489,563L409,575Z" fill="rgb(29,72,92)" stroke="rgb(29,72,92)" stroke-width="1.51"/><path d="M492,510L560,476L486,425Z" fill="rgb(32,76,87)" stroke="rgb(32,76,87)" stroke-width="1.51"/><path d="M521,189L561,196L508,147Z" fill="rgb(50,94,105)" stroke="rgb(50,94,105)" stroke-width="1.51"/><path d="M522,-26L417,-50L422,28Z" fill="rgb(66,108,129)" stroke="rgb(66,108,129)" stroke-width="1.51"/><path d="M533,273L561,196L521,189Z" fill="rgb(46,91,98)" stroke="rgb(46,91,98)" stroke-width="1.51"/><path d="M595,376L533,273L514,366Z" fill="rgb(35,86,79)" stroke="rgb(35,86,79)" stroke-width="1.51"/><path d="M601,556L560,476L492,510Z" fill="rgb(30,73,90)" stroke="rgb(30,73,90)" stroke-width="1.51"/><path d="M233,739L283,718L217,669Z" fill="rgb(35,86,78)" stroke="rgb(35,86,78)" stroke-width="1.51"/><path d="M385,626L464,642L409,575Z" fill="rgb(31,74,90)" stroke="rgb(31,74,90)" stroke-width="1.51"/><path d="M560,476L595,376L514,366Z" fill="rgb(33,81,81)" stroke="rgb(33,81,81)" stroke-width="1.51"/><path d="M138,706L233,739L217,669Z" fill="rgb(41,89,89)" stroke="rgb(41,89,89)" stroke-width="1.51"/><path d="M138,706L137,807L233,739Z" fill="rgb(45,91,95)" stroke="rgb(45,91,95)" stroke-width="1.51"/><path d="M-68,677L11,712L-25,623Z" fill="rgb(65,105,132)" stroke="rgb(65,105,132)" stroke-width="1.51"/><path d="M135,-50L44,-110L56,-8Z" fill="rgb(95,144,145)" stroke="rgb(95,144,145)" stroke-width="1.51"/><path d="M199,-128L121,-111L135,-50Z" fill="rgb(85,139,128)" stroke="rgb(85,139,128)" stroke-width="1.51"/><path d="M199,-128L135,-50L212,-39Z" fill="rgb(81,137,120)" stroke="rgb(81,137,120)" stroke-width="1.51"/><path d="M489,563L601,556L492,510Z" fill="rgb(28,70,93)" stroke="rgb(28,70,93)" stroke-width="1.51"/><path d="M448,725L464,642L385,626Z" fill="rgb(26,68,95)" stroke="rgb(26,68,95)" stroke-width="1.51"/><path d="M345,741L385,626L283,718Z" fill="rgb(32,76,87)" stroke="rgb(32,76,87)" stroke-width="1.51"/><path d="M-89,598L-68,677L-25,623Z" fill="rgb(67,108,129)" stroke="rgb(67,108,129)" stroke-width="1.51"/><path d="M533,33L461,132L508,147Z" fill="rgb(56,97,117)" stroke="rgb(56,97,117)" stroke-width="1.51"/><path d="M595,376L609,251L533,273Z" fill="rgb(39,88,85)" stroke="rgb(39,88,85)" stroke-width="1.51"/><path d="M384,-87L284,-115L276,2Z" fill="rgb(70,124,112)" stroke="rgb(70,124,112)" stroke-width="1.51"/><path d="M422,28L417,-50L373,0Z" fill="rgb(69,114,123)" stroke="rgb(69,114,123)" stroke-width="1.51"/><path d="M595,140L508,147L561,196Z" fill="rgb(51,95,107)" stroke="rgb(51,95,107)" stroke-width="1.51"/><path d="M1,-27L-88,-38L-37,32Z" fill="rgb(105,150,165)" stroke="rgb(105,150,165)" stroke-width="1.51"/><path d="M-85,63L-88,-38L-101,324Z" fill="rgb(94,144,144)" stroke="rgb(94,144,144)" stroke-width="1.51"/><path d="M-28,-78L-88,-38L1,-27Z" fill="rgb(105,150,165)" stroke="rgb(105,150,165)" stroke-width="1.51"/><path d="M384,-87L276,2L373,0Z" fill="rgb(70,121,115)" stroke="rgb(70,121,115)" stroke-width="1.51"/><path d="M44,-110L-28,-78L1,-27Z" fill="rgb(105,149,163)" stroke="rgb(105,149,163)" stroke-width="1.51"/><path d="M284,-115L199,-128L212,-39Z" fill="rgb(73,133,108)" stroke="rgb(73,133,108)" stroke-width="1.51"/><path d="M11,712L78,752L81,647Z" fill="rgb(58,99,121)" stroke="rgb(58,99,121)" stroke-width="1.51"/><path d="M78,799L78,752L-24,807Z" fill="rgb(59,99,124)" stroke="rgb(59,99,124)" stroke-width="1.51"/><path d="M121,-111L44,-110L135,-50Z" fill="rgb(92,143,140)" stroke="rgb(92,143,140)" stroke-width="1.51"/><path d="M199,-128L44,-110L121,-111Z" fill="rgb(89,141,135)" stroke="rgb(89,141,135)" stroke-width="1.51"/><path d="M595,376L613,435L609,251Z" fill="rgb(34,85,77)" stroke="rgb(34,85,77)" stroke-width="1.51"/><path d="M560,476L613,435L595,376Z" fill="rgb(33,79,84)" stroke="rgb(33,79,84)" stroke-width="1.51"/><path d="M601,556L613,435L560,476Z" fill="rgb(31,75,89)" stroke="rgb(31,75,89)" stroke-width="1.51"/><path d="M609,251L595,140L561,196Z" fill="rgb(49,93,102)" stroke="rgb(49,93,102)" stroke-width="1.51"/><path d="M417,-50L384,-87L373,0Z" fill="rgb(69,115,122)" stroke="rgb(69,115,122)" stroke-width="1.51"/><path d="M414,-75L384,-87L417,-50Z" fill="rgb(69,114,123)" stroke="rgb(69,114,123)" stroke-width="1.51"/><path d="M564,68L533,33L508,147Z" fill="rgb(57,98,121)" stroke="rgb(57,98,121)" stroke-width="1.51"/><path d="M296,786L345,741L283,718Z" fill="rgb(33,79,84)" stroke="rgb(33,79,84)" stroke-width="1.51"/><path d="M296,786L283,718L233,739Z" fill="rgb(34,83,80)" stroke="rgb(34,83,80)" stroke-width="1.51"/><path d="M518,-80L414,-75L417,-50Z" fill="rgb(67,108,129)" stroke="rgb(67,108,129)" stroke-width="1.51"/><path d="M595,140L564,68L508,147Z" fill="rgb(55,97,115)" stroke="rgb(55,97,115)" stroke-width="1.51"/><path d="M-88,788L-24,807L11,712Z" fill="rgb(64,103,135)" stroke="rgb(64,103,135)" stroke-width="1.51"/><path d="M-89,598L-108,704L-68,677Z" fill="rgb(66,106,131)" stroke="rgb(66,106,131)" stroke-width="1.51"/><path d="M-101,324L-108,704L-89,598Z" fill="rgb(69,116,121)" stroke="rgb(69,116,121)" stroke-width="1.51"/><path d="M527,656L489,563L464,642Z" fill="rgb(23,65,98)" stroke="rgb(23,65,98)" stroke-width="1.51"/><path d="M237,818L296,786L233,739Z" fill="rgb(34,85,78)" stroke="rgb(34,85,78)" stroke-width="1.51"/><path d="M611,-52L522,-26L533,33Z" fill="rgb(64,103,135)" stroke="rgb(64,103,135)" stroke-width="1.51"/><path d="M533,33L522,-26L422,28Z" fill="rgb(63,103,132)" stroke="rgb(63,103,132)" stroke-width="1.51"/><path d="M569,637L601,556L489,563Z" fill="rgb(25,67,96)" stroke="rgb(25,67,96)" stroke-width="1.51"/><path d="M527,656L464,642L513,703Z" fill="rgb(16,61,103)" stroke="rgb(16,61,103)" stroke-width="1.51"/><path d="M448,725L385,626L345,741Z" fill="rgb(28,70,93)" stroke="rgb(28,70,93)" stroke-width="1.51"/><path d="M451,787L448,725L345,741Z" fill="rgb(26,68,96)" stroke="rgb(26,68,96)" stroke-width="1.51"/><path d="M78,752L137,807L138,706Z" fill="rgb(51,94,107)" stroke="rgb(51,94,107)" stroke-width="1.51"/><path d="M78,799L137,807L78,752Z" fill="rgb(54,96,112)" stroke="rgb(54,96,112)" stroke-width="1.51"/><path d="M-24,807L78,752L11,712Z" fill="rgb(61,101,129)" stroke="rgb(61,101,129)" stroke-width="1.51"/><path d="M-28,-78L-75,-117L-88,-38Z" fill="rgb(105,150,165)" stroke="rgb(105,150,165)" stroke-width="1.51"/><path d="M44,-110L-75,-117L-28,-78Z" fill="rgb(105,150,165)" stroke="rgb(105,150,165)" stroke-width="1.51"/><path d="M199,-128L-75,-117L44,-110Z" fill="rgb(98,146,151)" stroke="rgb(98,146,151)" stroke-width="1.51"/><path d="M296,786L339,805L345,741Z" fill="rgb(32,77,86)" stroke="rgb(32,77,86)" stroke-width="1.51"/><path d="M137,807L237,818L233,739Z" fill="rgb(41,88,88)" stroke="rgb(41,88,88)" stroke-width="1.51"/><path d="M568,725L569,637L527,656Z" fill="rgb(15,61,103)" stroke="rgb(15,61,103)" stroke-width="1.51"/><path d="M527,656L569,637L489,563Z" fill="rgb(23,65,99)" stroke="rgb(23,65,99)" stroke-width="1.51"/><path d="M448,725L513,703L464,642Z" fill="rgb(18,62,102)" stroke="rgb(18,62,102)" stroke-width="1.51"/><path d="M451,787L513,703L448,725Z" fill="rgb(17,62,102)" stroke="rgb(17,62,102)" stroke-width="1.51"/><path d="M237,818L339,805L296,786Z" fill="rgb(33,81,81)" stroke="rgb(33,81,81)" stroke-width="1.51"/><path d="M611,-52L518,-80L522,-26Z" fill="rgb(64,103,135)" stroke="rgb(64,103,135)" stroke-width="1.51"/><path d="M522,-26L518,-80L417,-50Z" fill="rgb(65,104,133)" stroke="rgb(65,104,133)" stroke-width="1.51"/><path d="M414,-75L518,-80L384,-87Z" fill="rgb(67,110,128)" stroke="rgb(67,110,128)" stroke-width="1.51"/><path d="M384,-87L607,-120L284,-115Z" fill="rgb(68,111,125)" stroke="rgb(68,111,125)" stroke-width="1.51"/><path d="M284,-115L607,-120L199,-128Z" fill="rgb(70,118,118)" stroke="rgb(70,118,118)" stroke-width="1.51"/><path d="M611,-52L533,33L564,68Z" fill="rgb(63,102,132)" stroke="rgb(63,102,132)" stroke-width="1.51"/><path d="M137,807L-24,807L237,818Z" fill="rgb(51,95,107)" stroke="rgb(51,95,107)" stroke-width="1.51"/><path d="M78,799L-24,807L137,807Z" fill="rgb(57,98,119)" stroke="rgb(57,98,119)" stroke-width="1.51"/><path d="M-88,788L11,712L-68,677Z" fill="rgb(64,103,135)" stroke="rgb(64,103,135)" stroke-width="1.51"/><path d="M-108,704L-88,788L-68,677Z" fill="rgb(64,103,135)" stroke="rgb(64,103,135)" stroke-width="1.51"/><path d="M513,703L568,725L527,656Z" fill="rgb(11,59,105)" stroke="rgb(11,59,105)" stroke-width="1.51"/><path d="M339,805L451,787L345,741Z" fill="rgb(29,71,92)" stroke="rgb(29,71,92)" stroke-width="1.51"/><path d="M528,822L568,725L513,703Z" fill="rgb(10,59,105)" stroke="rgb(10,59,105)" stroke-width="1.51"/><path d="M569,637L568,725L601,556Z" fill="rgb(20,63,101)" stroke="rgb(20,63,101)" stroke-width="1.51"/><path d="M613,435L611,-52L609,251Z" fill="rgb(47,92,99)" stroke="rgb(47,92,99)" stroke-width="1.51"/><path d="M609,251L611,-52L595,140Z" fill="rgb(55,97,116)" stroke="rgb(55,97,116)" stroke-width="1.51"/><path d="M595,140L611,-52L564,68Z" fill="rgb(60,100,126)" stroke="rgb(60,100,126)" stroke-width="1.51"/><path d="M611,-52L607,-120L518,-80Z" fill="rgb(64,103,135)" stroke="rgb(64,103,135)" stroke-width="1.51"/><path d="M518,-80L607,-120L384,-87Z" fill="rgb(64,103,135)" stroke="rgb(64,103,135)" stroke-width="1.51"/><path d="M451,787L528,822L513,703Z" fill="rgb(11,59,105)" stroke="rgb(11,59,105)" stroke-width="1.51"/><path d="M339,805L528,822L451,787Z" fill="rgb(23,65,99)" stroke="rgb(23,65,99)" stroke-width="1.51"/><path d="M237,818L528,822L339,805Z" fill="rgb(30,73,90)" stroke="rgb(30,73,90)" stroke-width="1.51"/><path d="M528,822L578,823L568,725Z" fill="rgb(10,59,105)" stroke="rgb(10,59,105)" stroke-width="1.51"/><path d="M568,725L578,823L601,556Z" fill="rgb(10,59,105)" stroke="rgb(10,59,105)" stroke-width="1.51"/><path d="M601,556L578,823L613,435Z" fill="rgb(24,66,98)" stroke="rgb(24,66,98)" stroke-width="1.51"/><path d="M237,818L578,823L528,822Z" fill="rgb(22,64,100)" stroke="rgb(22,64,100)" stroke-width="1.51"/></svg>