<svg xmlns="http://www.w3.org/2000/svg" width="1025" height="700"><path d="M518,323L467,334L523,398Z" fill="rgb(11,58,105)" stroke="rgb(11,58,105)" stroke-width="1.51"/><path d="M467,334L456,379L523,398Z" fill="rgb(16,60,102)" stroke="rgb(16,60,102)" stroke-width="1.51"/><path d="M456,379L446,438L523,398Z" fill="rgb(22,65,98)" stroke="rgb(22,65,98)" stroke-width="1.51"/><path d="M523,398L609,376L518,323Z" fill="rgb(20,64,100)" stroke="rgb(20,64,100)" stroke-width="1.51"/><path d="M446,438L570,444L523,398Z" fill="rgb(24,69,95)" stroke="rgb(24,69,95)" stroke-width="1.51"/><path d="M570,444L609,376L523,398Z" fill="rgb(26,71,93)" stroke="rgb(26,71,93)" stroke-width="1.51"/><path d="M456,379L388,399L446,438Z" fill="rgb(23,63,98)" stroke="rgb(23,63,98)" stroke-width="1.51"/><path d="M362,310L388,399L456,379Z" fill="rgb(15,57,104)" stroke="rgb(15,57,104)" stroke-width="1.51"/><path d="M609,376L623,335L518,323Z" fill="rgb(21,65,99)" stroke="rgb(21,65,99)" stroke-width="1.51"/><path d="M475,221L423,244L467,334Z" fill="rgb(11,53,105)" stroke="rgb(11,53,105)" stroke-width="1.51"/><path d="M467,334L362,310L456,379Z" fill="rgb(11,56,105)" stroke="rgb(11,56,105)" stroke-width="1.51"/><path d="M475,221L467,334L518,323Z" fill="rgb(11,56,105)" stroke="rgb(11,56,105)" stroke-width="1.51"/><path d="M545,202L475,221L518,323Z" fill="rgb(11,55,105)" stroke="rgb(11,55,105)" stroke-width="1.51"/><path d="M423,244L362,310L467,334Z" fill="rgb(11,54,105)" stroke="rgb(11,54,105)" stroke-width="1.51"/><path d="M570,444L600,473L609,376Z" fill="rgb(28,76,87)" stroke="rgb(28,76,87)" stroke-width="1.51"/><path d="M609,376L696,413L623,335Z" fill="rgb(27,73,89)" stroke="rgb(27,73,89)" stroke-width="1.51"/><path d="M532,546L600,473L570,444Z" fill="rgb(29,82,81)" stroke="rgb(29,82,81)" stroke-width="1.51"/><path d="M623,335L545,202L518,323Z" fill="rgb(20,60,101)" stroke="rgb(20,60,101)" stroke-width="1.51"/><path d="M388,399L392,490L446,438Z" fill="rgb(27,68,92)" stroke="rgb(27,68,92)" stroke-width="1.51"/><path d="M446,438L532,546L570,444Z" fill="rgb(28,76,87)" stroke="rgb(28,76,87)" stroke-width="1.51"/><path d="M324,501L392,490L388,399Z" fill="rgb(30,69,90)" stroke="rgb(30,69,90)" stroke-width="1.51"/><path d="M362,310L336,321L388,399Z" fill="rgb(11,54,105)" stroke="rgb(11,54,105)" stroke-width="1.51"/><path d="M343,228L336,321L362,310Z" fill="rgb(11,51,105)" stroke="rgb(11,51,105)" stroke-width="1.51"/><path d="M392,490L447,530L446,438Z" fill="rgb(30,74,86)" stroke="rgb(30,74,86)" stroke-width="1.51"/><path d="M447,530L532,546L446,438Z" fill="rgb(30,78,84)" stroke="rgb(30,78,84)" stroke-width="1.51"/><path d="M545,202L452,173L475,221Z" fill="rgb(11,52,105)" stroke="rgb(11,52,105)" stroke-width="1.51"/><path d="M475,221L452,173L423,244Z" fill="rgb(11,51,105)" stroke="rgb(11,51,105)" stroke-width="1.51"/><path d="M638,202L555,181L545,202Z" fill="rgb(22,58,99)" stroke="rgb(22,58,99)" stroke-width="1.51"/><path d="M447,530L501,637L532,546Z" fill="rgb(58,97,103)" stroke="rgb(58,97,103)" stroke-width="1.51"/><path d="M392,490L416,534L447,530Z" fill="rgb(31,78,82)" stroke="rgb(31,78,82)" stroke-width="1.51"/><path d="M423,244L343,228L362,310Z" fill="rgb(11,51,105)" stroke="rgb(11,51,105)" stroke-width="1.51"/><path d="M555,181L452,173L545,202Z" fill="rgb(12,52,105)" stroke="rgb(12,52,105)" stroke-width="1.51"/><path d="M600,473L696,413L609,376Z" fill="rgb(29,79,84)" stroke="rgb(29,79,84)" stroke-width="1.51"/><path d="M623,335L638,202L545,202Z" fill="rgb(24,62,97)" stroke="rgb(24,62,97)" stroke-width="1.51"/><path d="M695,502L696,413L600,473Z" fill="rgb(29,87,75)" stroke="rgb(29,87,75)" stroke-width="1.51"/><path d="M396,167L343,228L423,244Z" fill="rgb(11,49,105)" stroke="rgb(11,49,105)" stroke-width="1.51"/><path d="M336,321L297,407L388,399Z" fill="rgb(18,57,102)" stroke="rgb(18,57,102)" stroke-width="1.51"/><path d="M392,490L324,501L416,534Z" fill="rgb(32,76,83)" stroke="rgb(32,76,83)" stroke-width="1.51"/><path d="M211,413L297,407L199,340Z" fill="rgb(24,54,98)" stroke="rgb(24,54,98)" stroke-width="1.51"/><path d="M696,280L638,202L623,335Z" fill="rgb(28,68,92)" stroke="rgb(28,68,92)" stroke-width="1.51"/><path d="M696,413L696,280L623,335Z" fill="rgb(27,72,90)" stroke="rgb(27,72,90)" stroke-width="1.51"/><path d="M532,546L620,542L600,473Z" fill="rgb(28,88,75)" stroke="rgb(28,88,75)" stroke-width="1.51"/><path d="M452,173L396,167L423,244Z" fill="rgb(11,49,105)" stroke="rgb(11,49,105)" stroke-width="1.51"/><path d="M312,130L396,167L367,47Z" fill="rgb(24,41,96)" stroke="rgb(24,41,96)" stroke-width="1.51"/><path d="M297,407L324,501L388,399Z" fill="rgb(27,64,93)" stroke="rgb(27,64,93)" stroke-width="1.51"/><path d="M620,542L695,502L600,473Z" fill="rgb(27,90,71)" stroke="rgb(27,90,71)" stroke-width="1.51"/><path d="M696,280L688,209L638,202Z" fill="rgb(30,68,90)" stroke="rgb(30,68,90)" stroke-width="1.51"/><path d="M638,202L619,146L555,181Z" fill="rgb(25,59,97)" stroke="rgb(25,59,97)" stroke-width="1.51"/><path d="M534,40L462,50L452,173Z" fill="rgb(28,42,93)" stroke="rgb(28,42,93)" stroke-width="1.51"/><path d="M688,209L619,146L638,202Z" fill="rgb(29,64,92)" stroke="rgb(29,64,92)" stroke-width="1.51"/><path d="M324,501L310,560L416,534Z" fill="rgb(37,79,84)" stroke="rgb(37,79,84)" stroke-width="1.51"/><path d="M405,640L501,637L447,530Z" fill="rgb(77,107,119)" stroke="rgb(77,107,119)" stroke-width="1.51"/><path d="M532,546L640,607L620,542Z" fill="rgb(55,104,91)" stroke="rgb(55,104,91)" stroke-width="1.51"/><path d="M240,493L310,560L324,501Z" fill="rgb(33,74,82)" stroke="rgb(33,74,82)" stroke-width="1.51"/><path d="M405,640L447,530L416,534Z" fill="rgb(57,93,102)" stroke="rgb(57,93,102)" stroke-width="1.51"/><path d="M620,542L685,568L695,502Z" fill="rgb(34,100,70)" stroke="rgb(34,100,70)" stroke-width="1.51"/><path d="M640,607L685,568L620,542Z" fill="rgb(58,111,90)" stroke="rgb(58,111,90)" stroke-width="1.51"/><path d="M343,228L249,239L336,321Z" fill="rgb(11,49,105)" stroke="rgb(11,49,105)" stroke-width="1.51"/><path d="M297,407L240,493L324,501Z" fill="rgb(31,67,89)" stroke="rgb(31,67,89)" stroke-width="1.51"/><path d="M312,130L249,239L343,228Z" fill="rgb(11,46,105)" stroke="rgb(11,46,105)" stroke-width="1.51"/><path d="M696,413L782,365L696,280Z" fill="rgb(29,78,84)" stroke="rgb(29,78,84)" stroke-width="1.51"/><path d="M696,280L818,261L688,209Z" fill="rgb(32,74,84)" stroke="rgb(32,74,84)" stroke-width="1.51"/><path d="M794,466L782,365L696,413Z" fill="rgb(28,89,72)" stroke="rgb(28,89,72)" stroke-width="1.51"/><path d="M794,466L696,413L695,502Z" fill="rgb(26,93,68)" stroke="rgb(26,93,68)" stroke-width="1.51"/><path d="M559,663L640,607L532,546Z" fill="rgb(78,116,114)" stroke="rgb(78,116,114)" stroke-width="1.51"/><path d="M782,365L786,333L696,280Z" fill="rgb(30,79,82)" stroke="rgb(30,79,82)" stroke-width="1.51"/><path d="M211,413L240,493L297,407Z" fill="rgb(29,62,93)" stroke="rgb(29,62,93)" stroke-width="1.51"/><path d="M217,628L339,607L310,560Z" fill="rgb(75,100,117)" stroke="rgb(75,100,117)" stroke-width="1.51"/><path d="M310,560L339,607L416,534Z" fill="rgb(58,91,101)" stroke="rgb(58,91,101)" stroke-width="1.51"/><path d="M199,340L297,407L336,321Z" fill="rgb(13,53,104)" stroke="rgb(13,53,104)" stroke-width="1.51"/><path d="M339,607L405,640L416,534Z" fill="rgb(72,101,115)" stroke="rgb(72,101,115)" stroke-width="1.51"/><path d="M462,50L396,167L452,173Z" fill="rgb(22,45,98)" stroke="rgb(22,45,98)" stroke-width="1.51"/><path d="M396,167L312,130L343,228Z" fill="rgb(11,46,105)" stroke="rgb(11,46,105)" stroke-width="1.51"/><path d="M249,239L199,340L336,321Z" fill="rgb(11,49,105)" stroke="rgb(11,49,105)" stroke-width="1.51"/><path d="M522,689L559,663L501,637Z" fill="rgb(111,132,149)" stroke="rgb(111,132,149)" stroke-width="1.51"/><path d="M501,637L559,663L532,546Z" fill="rgb(84,115,124)" stroke="rgb(84,115,124)" stroke-width="1.51"/><path d="M900,336L818,261L786,333Z" fill="rgb(58,95,103)" stroke="rgb(58,95,103)" stroke-width="1.51"/><path d="M793,518L794,466L695,502Z" fill="rgb(19,100,59)" stroke="rgb(19,100,59)" stroke-width="1.51"/><path d="M534,40L452,173L555,181Z" fill="rgb(22,47,99)" stroke="rgb(22,47,99)" stroke-width="1.51"/><path d="M685,568L720,596L695,502Z" fill="rgb(45,110,76)" stroke="rgb(45,110,76)" stroke-width="1.51"/><path d="M640,607L720,596L685,568Z" fill="rgb(68,121,95)" stroke="rgb(68,121,95)" stroke-width="1.51"/><path d="M772,626L720,596L710,735Z" fill="rgb(105,150,120)" stroke="rgb(105,150,120)" stroke-width="1.51"/><path d="M647,42L534,40L619,146Z" fill="rgb(37,51,84)" stroke="rgb(37,51,84)" stroke-width="1.51"/><path d="M619,146L534,40L555,181Z" fill="rgb(30,51,92)" stroke="rgb(30,51,92)" stroke-width="1.51"/><path d="M199,340L132,418L211,413Z" fill="rgb(30,52,93)" stroke="rgb(30,52,93)" stroke-width="1.51"/><path d="M183,530L215,543L240,493Z" fill="rgb(37,71,78)" stroke="rgb(37,71,78)" stroke-width="1.51"/><path d="M249,239L175,328L199,340Z" fill="rgb(20,46,100)" stroke="rgb(20,46,100)" stroke-width="1.51"/><path d="M129,263L175,328L249,239Z" fill="rgb(23,43,98)" stroke="rgb(23,43,98)" stroke-width="1.51"/><path d="M452,721L522,689L501,637Z" fill="rgb(121,137,161)" stroke="rgb(121,137,161)" stroke-width="1.51"/><path d="M664,721L720,596L640,607Z" fill="rgb(99,139,122)" stroke="rgb(99,139,122)" stroke-width="1.51"/><path d="M720,596L793,518L695,502Z" fill="rgb(31,107,64)" stroke="rgb(31,107,64)" stroke-width="1.51"/><path d="M688,209L729,120L619,146Z" fill="rgb(33,65,87)" stroke="rgb(33,65,87)" stroke-width="1.51"/><path d="M758,140L729,120L688,209Z" fill="rgb(35,69,83)" stroke="rgb(35,69,83)" stroke-width="1.51"/><path d="M786,333L818,261L696,280Z" fill="rgb(31,79,81)" stroke="rgb(31,79,81)" stroke-width="1.51"/><path d="M848,390L786,333L782,365Z" fill="rgb(46,92,91)" stroke="rgb(46,92,91)" stroke-width="1.51"/><path d="M848,390L782,365L794,466Z" fill="rgb(46,99,85)" stroke="rgb(46,99,85)" stroke-width="1.51"/><path d="M240,493L215,543L310,560Z" fill="rgb(38,76,85)" stroke="rgb(38,76,85)" stroke-width="1.51"/><path d="M162,448L240,493L211,413Z" fill="rgb(34,61,87)" stroke="rgb(34,61,87)" stroke-width="1.51"/><path d="M818,261L758,140L688,209Z" fill="rgb(33,74,82)" stroke="rgb(33,74,82)" stroke-width="1.51"/><path d="M405,-2L367,47L462,50Z" fill="rgb(34,35,85)" stroke="rgb(34,35,85)" stroke-width="1.51"/><path d="M462,50L367,47L396,167Z" fill="rgb(28,40,93)" stroke="rgb(28,40,93)" stroke-width="1.51"/><path d="M312,130L204,147L249,239Z" fill="rgb(12,43,104)" stroke="rgb(12,43,104)" stroke-width="1.51"/><path d="M405,640L452,721L501,637Z" fill="rgb(112,129,153)" stroke="rgb(112,129,153)" stroke-width="1.51"/><path d="M339,607L405,693L405,640Z" fill="rgb(102,120,142)" stroke="rgb(102,120,142)" stroke-width="1.51"/><path d="M279,711L405,693L339,607Z" fill="rgb(115,127,155)" stroke="rgb(115,127,155)" stroke-width="1.51"/><path d="M132,418L162,448L211,413Z" fill="rgb(35,56,86)" stroke="rgb(35,56,86)" stroke-width="1.51"/><path d="M905,472L848,390L794,466Z" fill="rgb(63,114,93)" stroke="rgb(63,114,93)" stroke-width="1.51"/><path d="M713,37L647,42L729,120Z" fill="rgb(42,58,73)" stroke="rgb(42,58,73)" stroke-width="1.51"/><path d="M729,120L647,42L619,146Z" fill="rgb(38,58,81)" stroke="rgb(38,58,81)" stroke-width="1.51"/><path d="M534,40L459,-5L462,50Z" fill="rgb(35,37,85)" stroke="rgb(35,37,85)" stroke-width="1.51"/><path d="M647,42L542,9L534,40Z" fill="rgb(39,44,79)" stroke="rgb(39,44,79)" stroke-width="1.51"/><path d="M215,543L217,628L310,560Z" fill="rgb(64,91,106)" stroke="rgb(64,91,106)" stroke-width="1.51"/><path d="M162,448L183,530L240,493Z" fill="rgb(37,66,80)" stroke="rgb(37,66,80)" stroke-width="1.51"/><path d="M405,693L452,721L405,640Z" fill="rgb(123,135,162)" stroke="rgb(123,135,162)" stroke-width="1.51"/><path d="M256,51L204,147L312,130Z" fill="rgb(24,37,96)" stroke="rgb(24,37,96)" stroke-width="1.51"/><path d="M367,47L297,56L312,130Z" fill="rgb(29,36,91)" stroke="rgb(29,36,91)" stroke-width="1.51"/><path d="M330,20L297,56L367,47Z" fill="rgb(33,33,87)" stroke="rgb(33,33,87)" stroke-width="1.51"/><path d="M542,9L459,-5L534,40Z" fill="rgb(35,37,83)" stroke="rgb(35,37,83)" stroke-width="1.51"/><path d="M162,448L95,544L183,530Z" fill="rgb(40,65,73)" stroke="rgb(40,65,73)" stroke-width="1.51"/><path d="M175,328L132,418L199,340Z" fill="rgb(27,47,95)" stroke="rgb(27,47,95)" stroke-width="1.51"/><path d="M95,283L132,418L175,328Z" fill="rgb(28,43,93)" stroke="rgb(28,43,93)" stroke-width="1.51"/><path d="M927,279L845,219L818,261Z" fill="rgb(70,100,113)" stroke="rgb(70,100,113)" stroke-width="1.51"/><path d="M818,261L845,219L758,140Z" fill="rgb(49,84,94)" stroke="rgb(49,84,94)" stroke-width="1.51"/><path d="M459,-5L405,-2L462,50Z" fill="rgb(35,35,83)" stroke="rgb(35,35,83)" stroke-width="1.51"/><path d="M977,391L900,336L848,390Z" fill="rgb(86,118,125)" stroke="rgb(86,118,125)" stroke-width="1.51"/><path d="M720,596L772,626L793,518Z" fill="rgb(59,125,81)" stroke="rgb(59,125,81)" stroke-width="1.51"/><path d="M664,721L640,607L559,663Z" fill="rgb(112,142,139)" stroke="rgb(112,142,139)" stroke-width="1.51"/><path d="M664,721L559,663L639,768Z" fill="rgb(133,155,159)" stroke="rgb(133,155,159)" stroke-width="1.51"/><path d="M405,-2L330,20L367,47Z" fill="rgb(34,33,84)" stroke="rgb(34,33,84)" stroke-width="1.51"/><path d="M297,56L256,51L312,130Z" fill="rgb(28,35,92)" stroke="rgb(28,35,92)" stroke-width="1.51"/><path d="M204,147L129,263L249,239Z" fill="rgb(21,41,99)" stroke="rgb(21,41,99)" stroke-width="1.51"/><path d="M158,602L217,628L215,543Z" fill="rgb(74,93,108)" stroke="rgb(74,93,108)" stroke-width="1.51"/><path d="M385,779L456,784L452,721Z" fill="rgb(132,141,171)" stroke="rgb(132,141,171)" stroke-width="1.51"/><path d="M158,602L215,543L183,530Z" fill="rgb(57,81,91)" stroke="rgb(57,81,91)" stroke-width="1.51"/><path d="M647,42L653,-5L542,9Z" fill="rgb(41,46,74)" stroke="rgb(41,46,74)" stroke-width="1.51"/><path d="M531,-90L425,-68L459,-5Z" fill="rgb(37,34,81)" stroke="rgb(37,34,81)" stroke-width="1.51"/><path d="M792,100L713,37L729,120Z" fill="rgb(41,64,71)" stroke="rgb(41,64,71)" stroke-width="1.51"/><path d="M792,100L729,120L758,140Z" fill="rgb(39,68,75)" stroke="rgb(39,68,75)" stroke-width="1.51"/><path d="M845,219L792,100L758,140Z" fill="rgb(48,79,88)" stroke="rgb(48,79,88)" stroke-width="1.51"/><path d="M639,768L559,663L522,689Z" fill="rgb(133,150,164)" stroke="rgb(133,150,164)" stroke-width="1.51"/><path d="M81,212L95,283L129,263Z" fill="rgb(30,37,90)" stroke="rgb(30,37,90)" stroke-width="1.51"/><path d="M330,20L256,51L297,56Z" fill="rgb(32,32,87)" stroke="rgb(32,32,87)" stroke-width="1.51"/><path d="M713,37L653,-5L647,42Z" fill="rgb(43,52,70)" stroke="rgb(43,52,70)" stroke-width="1.51"/><path d="M848,390L900,336L786,333Z" fill="rgb(62,100,105)" stroke="rgb(62,100,105)" stroke-width="1.51"/><path d="M845,219L851,101L792,100Z" fill="rgb(60,85,96)" stroke="rgb(60,85,96)" stroke-width="1.51"/><path d="M905,472L794,466L793,518Z" fill="rgb(53,115,80)" stroke="rgb(53,115,80)" stroke-width="1.51"/><path d="M713,37L719,19L653,-5Z" fill="rgb(44,54,67)" stroke="rgb(44,54,67)" stroke-width="1.51"/><path d="M792,100L719,19L713,37Z" fill="rgb(43,61,67)" stroke="rgb(43,61,67)" stroke-width="1.51"/><path d="M129,263L95,283L175,328Z" fill="rgb(28,41,93)" stroke="rgb(28,41,93)" stroke-width="1.51"/><path d="M81,212L129,263L204,147Z" fill="rgb(27,37,94)" stroke="rgb(27,37,94)" stroke-width="1.51"/><path d="M241,685L279,711L339,607Z" fill="rgb(114,124,154)" stroke="rgb(114,124,154)" stroke-width="1.51"/><path d="M217,628L241,685L339,607Z" fill="rgb(98,114,139)" stroke="rgb(98,114,139)" stroke-width="1.51"/><path d="M772,626L869,554L793,518Z" fill="rgb(69,131,87)" stroke="rgb(69,131,87)" stroke-width="1.51"/><path d="M894,608L869,554L772,626Z" fill="rgb(102,151,114)" stroke="rgb(102,151,114)" stroke-width="1.51"/><path d="M217,628L155,678L241,685Z" fill="rgb(113,118,146)" stroke="rgb(113,118,146)" stroke-width="1.51"/><path d="M95,544L158,602L183,530Z" fill="rgb(58,78,87)" stroke="rgb(58,78,87)" stroke-width="1.51"/><path d="M89,454L162,448L132,418Z" fill="rgb(38,55,81)" stroke="rgb(38,55,81)" stroke-width="1.51"/><path d="M869,554L905,472L793,518Z" fill="rgb(62,126,84)" stroke="rgb(62,126,84)" stroke-width="1.51"/><path d="M47,420L89,454L132,418Z" fill="rgb(39,52,79)" stroke="rgb(39,52,79)" stroke-width="1.51"/><path d="M452,721L456,784L522,689Z" fill="rgb(132,143,171)" stroke="rgb(132,143,171)" stroke-width="1.51"/><path d="M385,779L452,721L405,693Z" fill="rgb(132,140,171)" stroke="rgb(132,140,171)" stroke-width="1.51"/><path d="M664,721L710,735L720,596Z" fill="rgb(124,158,141)" stroke="rgb(124,158,141)" stroke-width="1.51"/><path d="M639,768L710,735L664,721Z" fill="rgb(134,161,153)" stroke="rgb(134,161,153)" stroke-width="1.51"/><path d="M548,823L639,768L522,689Z" fill="rgb(133,150,164)" stroke="rgb(133,150,164)" stroke-width="1.51"/><path d="M318,768L385,779L405,693Z" fill="rgb(132,138,171)" stroke="rgb(132,138,171)" stroke-width="1.51"/><path d="M256,51L180,68L204,147Z" fill="rgb(30,33,89)" stroke="rgb(30,33,89)" stroke-width="1.51"/><path d="M205,-35L180,68L256,51Z" fill="rgb(36,27,81)" stroke="rgb(36,27,81)" stroke-width="1.51"/><path d="M900,336L927,279L818,261Z" fill="rgb(77,106,119)" stroke="rgb(77,106,119)" stroke-width="1.51"/><path d="M977,391L927,279L900,336Z" fill="rgb(96,121,138)" stroke="rgb(96,121,138)" stroke-width="1.51"/><path d="M330,20L310,-57L256,51Z" fill="rgb(36,29,81)" stroke="rgb(36,29,81)" stroke-width="1.51"/><path d="M405,-2L310,-57L330,20Z" fill="rgb(36,30,81)" stroke="rgb(36,30,81)" stroke-width="1.51"/><path d="M459,-5L425,-68L405,-2Z" fill="rgb(36,33,81)" stroke="rgb(36,33,81)" stroke-width="1.51"/><path d="M531,-90L459,-5L542,9Z" fill="rgb(37,35,81)" stroke="rgb(37,35,81)" stroke-width="1.51"/><path d="M180,68L133,124L204,147Z" fill="rgb(31,33,88)" stroke="rgb(31,33,88)" stroke-width="1.51"/><path d="M792,100L791,-12L719,19Z" fill="rgb(44,62,62)" stroke="rgb(44,62,62)" stroke-width="1.51"/><path d="M892,167L851,101L845,219Z" fill="rgb(71,95,111)" stroke="rgb(71,95,111)" stroke-width="1.51"/><path d="M936,237L892,167L845,219Z" fill="rgb(81,104,122)" stroke="rgb(81,104,122)" stroke-width="1.51"/><path d="M158,602L155,678L217,628Z" fill="rgb(99,107,129)" stroke="rgb(99,107,129)" stroke-width="1.51"/><path d="M89,454L95,544L162,448Z" fill="rgb(41,60,74)" stroke="rgb(41,60,74)" stroke-width="1.51"/><path d="M95,283L47,420L132,418Z" fill="rgb(34,44,86)" stroke="rgb(34,44,86)" stroke-width="1.51"/><path d="M133,124L81,212L204,147Z" fill="rgb(28,34,92)" stroke="rgb(28,34,92)" stroke-width="1.51"/><path d="M279,711L318,768L405,693Z" fill="rgb(132,137,171)" stroke="rgb(132,137,171)" stroke-width="1.51"/><path d="M217,776L318,768L279,711Z" fill="rgb(132,135,171)" stroke="rgb(132,135,171)" stroke-width="1.51"/><path d="M217,776L279,711L241,685Z" fill="rgb(132,134,170)" stroke="rgb(132,134,170)" stroke-width="1.51"/><path d="M653,-5L531,-90L542,9Z" fill="rgb(40,41,75)" stroke="rgb(40,41,75)" stroke-width="1.51"/><path d="M655,-88L531,-90L653,-5Z" fill="rgb(42,45,72)" stroke="rgb(42,45,72)" stroke-width="1.51"/><path d="M927,279L936,237L845,219Z" fill="rgb(85,108,127)" stroke="rgb(85,108,127)" stroke-width="1.51"/><path d="M871,22L792,100L851,101Z" fill="rgb(67,81,90)" stroke="rgb(67,81,90)" stroke-width="1.51"/><path d="M1007,239L936,237L927,279Z" fill="rgb(105,122,146)" stroke="rgb(105,122,146)" stroke-width="1.51"/><path d="M89,454L10,484L95,544Z" fill="rgb(43,59,68)" stroke="rgb(43,59,68)" stroke-width="1.51"/><path d="M-20,376L47,420L-20,315Z" fill="rgb(39,38,78)" stroke="rgb(39,38,78)" stroke-width="1.51"/><path d="M905,472L977,391L848,390Z" fill="rgb(88,126,118)" stroke="rgb(88,126,118)" stroke-width="1.51"/><path d="M944,536L940,490L905,472Z" fill="rgb(95,143,112)" stroke="rgb(95,143,112)" stroke-width="1.51"/><path d="M944,536L905,472L869,554Z" fill="rgb(84,140,100)" stroke="rgb(84,140,100)" stroke-width="1.51"/><path d="M425,-68L310,-57L405,-2Z" fill="rgb(36,31,81)" stroke="rgb(36,31,81)" stroke-width="1.51"/><path d="M468,-122L310,-57L425,-68Z" fill="rgb(36,32,81)" stroke="rgb(36,32,81)" stroke-width="1.51"/><path d="M456,784L548,823L522,689Z" fill="rgb(132,144,171)" stroke="rgb(132,144,171)" stroke-width="1.51"/><path d="M639,768L733,766L710,735Z" fill="rgb(133,163,151)" stroke="rgb(133,163,151)" stroke-width="1.51"/><path d="M385,779L548,823L456,784Z" fill="rgb(132,142,171)" stroke="rgb(132,142,171)" stroke-width="1.51"/><path d="M185,823L548,823L385,779Z" fill="rgb(132,138,171)" stroke="rgb(132,138,171)" stroke-width="1.51"/><path d="M818,721L894,608L772,626Z" fill="rgb(128,168,138)" stroke="rgb(128,168,138)" stroke-width="1.51"/><path d="M710,735L818,721L772,626Z" fill="rgb(129,169,139)" stroke="rgb(129,169,139)" stroke-width="1.51"/><path d="M785,822L733,766L639,768Z" fill="rgb(133,166,147)" stroke="rgb(133,166,147)" stroke-width="1.51"/><path d="M71,622L155,678L158,602Z" fill="rgb(99,103,123)" stroke="rgb(99,103,123)" stroke-width="1.51"/><path d="M133,124L72,167L81,212Z" fill="rgb(31,32,89)" stroke="rgb(31,32,89)" stroke-width="1.51"/><path d="M-20,315L47,420L95,283Z" fill="rgb(35,38,85)" stroke="rgb(35,38,85)" stroke-width="1.51"/><path d="M86,40L72,167L133,124Z" fill="rgb(35,27,81)" stroke="rgb(35,27,81)" stroke-width="1.51"/><path d="M86,40L133,124L180,68Z" fill="rgb(36,26,80)" stroke="rgb(36,26,80)" stroke-width="1.51"/><path d="M871,22L851,101L959,62Z" fill="rgb(87,92,107)" stroke="rgb(87,92,107)" stroke-width="1.51"/><path d="M871,22L791,-12L792,100Z" fill="rgb(61,73,78)" stroke="rgb(61,73,78)" stroke-width="1.51"/><path d="M739,-95L655,-88L653,-5Z" fill="rgb(44,51,66)" stroke="rgb(44,51,66)" stroke-width="1.51"/><path d="M739,-95L653,-5L719,19Z" fill="rgb(45,53,64)" stroke="rgb(45,53,64)" stroke-width="1.51"/><path d="M940,490L977,391L905,472Z" fill="rgb(100,138,124)" stroke="rgb(100,138,124)" stroke-width="1.51"/><path d="M894,608L944,536L869,554Z" fill="rgb(107,155,119)" stroke="rgb(107,155,119)" stroke-width="1.51"/><path d="M1022,418L977,391L940,490Z" fill="rgb(115,145,141)" stroke="rgb(115,145,141)" stroke-width="1.51"/><path d="M956,646L1008,525L944,536Z" fill="rgb(137,174,145)" stroke="rgb(137,174,145)" stroke-width="1.51"/><path d="M733,766L818,721L710,735Z" fill="rgb(133,170,144)" stroke="rgb(133,170,144)" stroke-width="1.51"/><path d="M531,-90L468,-122L425,-68Z" fill="rgb(37,34,81)" stroke="rgb(37,34,81)" stroke-width="1.51"/><path d="M655,-88L468,-122L531,-90Z" fill="rgb(39,39,78)" stroke="rgb(39,39,78)" stroke-width="1.51"/><path d="M310,-57L205,-35L256,51Z" fill="rgb(35,27,81)" stroke="rgb(35,27,81)" stroke-width="1.51"/><path d="M239,-104L205,-35L310,-57Z" fill="rgb(36,26,80)" stroke="rgb(36,26,80)" stroke-width="1.51"/><path d="M318,768L185,823L385,779Z" fill="rgb(132,136,171)" stroke="rgb(132,136,171)" stroke-width="1.51"/><path d="M155,678L217,776L241,685Z" fill="rgb(133,131,166)" stroke="rgb(133,131,166)" stroke-width="1.51"/><path d="M62,765L185,823L217,776Z" fill="rgb(135,127,161)" stroke="rgb(135,127,161)" stroke-width="1.51"/><path d="M95,544L71,622L158,602Z" fill="rgb(76,86,98)" stroke="rgb(76,86,98)" stroke-width="1.51"/><path d="M-23,538L71,622L95,544Z" fill="rgb(66,76,82)" stroke="rgb(66,76,82)" stroke-width="1.51"/><path d="M768,-85L739,-95L719,19Z" fill="rgb(45,57,60)" stroke="rgb(45,57,60)" stroke-width="1.51"/><path d="M959,62L851,101L892,167Z" fill="rgb(88,98,117)" stroke="rgb(88,98,117)" stroke-width="1.51"/><path d="M47,420L10,484L89,454Z" fill="rgb(42,52,72)" stroke="rgb(42,52,72)" stroke-width="1.51"/><path d="M-20,376L10,484L47,420Z" fill="rgb(43,47,72)" stroke="rgb(43,47,72)" stroke-width="1.51"/><path d="M1007,239L968,149L936,237Z" fill="rgb(111,123,151)" stroke="rgb(111,123,151)" stroke-width="1.51"/><path d="M936,237L968,149L892,167Z" fill="rgb(97,112,137)" stroke="rgb(97,112,137)" stroke-width="1.51"/><path d="M655,-88L739,-95L468,-122Z" fill="rgb(43,45,72)" stroke="rgb(43,45,72)" stroke-width="1.51"/><path d="M768,-85L719,19L791,-12Z" fill="rgb(46,58,59)" stroke="rgb(46,58,59)" stroke-width="1.51"/><path d="M-20,315L95,283L-14,233Z" fill="rgb(35,33,83)" stroke="rgb(35,33,83)" stroke-width="1.51"/><path d="M881,-102L768,-85L791,-12Z" fill="rgb(61,69,72)" stroke="rgb(61,69,72)" stroke-width="1.51"/><path d="M-14,233L95,283L81,212Z" fill="rgb(33,34,86)" stroke="rgb(33,34,86)" stroke-width="1.51"/><path d="M1060,292L1007,239L927,279Z" fill="rgb(121,133,161)" stroke="rgb(121,133,161)" stroke-width="1.51"/><path d="M12,154L-14,233L81,212Z" fill="rgb(34,29,84)" stroke="rgb(34,29,84)" stroke-width="1.51"/><path d="M136,-36L86,40L180,68Z" fill="rgb(39,21,73)" stroke="rgb(39,21,73)" stroke-width="1.51"/><path d="M977,391L1060,292L927,279Z" fill="rgb(118,133,157)" stroke="rgb(118,133,157)" stroke-width="1.51"/><path d="M1031,477L1022,418L940,490Z" fill="rgb(123,154,143)" stroke="rgb(123,154,143)" stroke-width="1.51"/><path d="M818,721L869,737L894,608Z" fill="rgb(164,191,169)" stroke="rgb(164,191,169)" stroke-width="1.51"/><path d="M944,536L1008,525L940,490Z" fill="rgb(108,154,121)" stroke="rgb(108,154,121)" stroke-width="1.51"/><path d="M854,793L869,737L818,721Z" fill="rgb(165,192,171)" stroke="rgb(165,192,171)" stroke-width="1.51"/><path d="M785,822L818,721L733,766Z" fill="rgb(137,174,146)" stroke="rgb(137,174,146)" stroke-width="1.51"/><path d="M12,154L81,212L72,167Z" fill="rgb(32,30,86)" stroke="rgb(32,30,86)" stroke-width="1.51"/><path d="M86,40L12,154L72,167Z" fill="rgb(36,25,79)" stroke="rgb(36,25,79)" stroke-width="1.51"/><path d="M956,646L944,536L894,608Z" fill="rgb(137,174,146)" stroke="rgb(137,174,146)" stroke-width="1.51"/><path d="M205,-35L136,-36L180,68Z" fill="rgb(38,21,73)" stroke="rgb(38,21,73)" stroke-width="1.51"/><path d="M468,-122L239,-104L310,-57Z" fill="rgb(36,30,81)" stroke="rgb(36,30,81)" stroke-width="1.51"/><path d="M940,691L956,646L894,608Z" fill="rgb(168,194,173)" stroke="rgb(168,194,173)" stroke-width="1.51"/><path d="M155,-79L136,-36L205,-35Z" fill="rgb(39,21,73)" stroke="rgb(39,21,73)" stroke-width="1.51"/><path d="M548,823L785,822L639,768Z" fill="rgb(133,160,154)" stroke="rgb(133,160,154)" stroke-width="1.51"/><path d="M1008,525L1031,477L940,490Z" fill="rgb(120,159,135)" stroke="rgb(120,159,135)" stroke-width="1.51"/><path d="M1022,418L1060,292L977,391Z" fill="rgb(130,145,166)" stroke="rgb(130,145,166)" stroke-width="1.51"/><path d="M1085,494L1031,477L1079,535Z" fill="rgb(133,168,146)" stroke="rgb(133,168,146)" stroke-width="1.51"/><path d="M71,622L68,696L155,678Z" fill="rgb(117,112,136)" stroke="rgb(117,112,136)" stroke-width="1.51"/><path d="M15,684L68,696L71,622Z" fill="rgb(118,109,132)" stroke="rgb(118,109,132)" stroke-width="1.51"/><path d="M-23,538L95,544L10,484Z" fill="rgb(45,60,61)" stroke="rgb(45,60,61)" stroke-width="1.51"/><path d="M871,22L881,-102L791,-12Z" fill="rgb(73,76,83)" stroke="rgb(73,76,83)" stroke-width="1.51"/><path d="M968,149L959,62L892,167Z" fill="rgb(102,109,133)" stroke="rgb(102,109,133)" stroke-width="1.51"/><path d="M1016,56L959,62L968,149Z" fill="rgb(118,115,142)" stroke="rgb(118,115,142)" stroke-width="1.51"/><path d="M1079,535L1031,477L1008,525Z" fill="rgb(133,170,144)" stroke="rgb(133,170,144)" stroke-width="1.51"/><path d="M869,737L940,691L894,608Z" fill="rgb(174,198,179)" stroke="rgb(174,198,179)" stroke-width="1.51"/><path d="M923,819L940,691L869,737Z" fill="rgb(191,209,195)" stroke="rgb(191,209,195)" stroke-width="1.51"/><path d="M-103,487L-23,538L10,484Z" fill="rgb(45,56,61)" stroke="rgb(45,56,61)" stroke-width="1.51"/><path d="M-66,398L10,484L-20,376Z" fill="rgb(42,45,72)" stroke="rgb(42,45,72)" stroke-width="1.51"/><path d="M785,822L854,793L818,721Z" fill="rgb(154,185,161)" stroke="rgb(154,185,161)" stroke-width="1.51"/><path d="M217,776L185,823L318,768Z" fill="rgb(133,133,169)" stroke="rgb(133,133,169)" stroke-width="1.51"/><path d="M62,765L217,776L155,678Z" fill="rgb(135,126,159)" stroke="rgb(135,126,159)" stroke-width="1.51"/><path d="M136,-36L82,-16L86,40Z" fill="rgb(41,16,67)" stroke="rgb(41,16,67)" stroke-width="1.51"/><path d="M86,40L-39,76L12,154Z" fill="rgb(39,19,71)" stroke="rgb(39,19,71)" stroke-width="1.51"/><path d="M239,-104L155,-79L205,-35Z" fill="rgb(38,23,76)" stroke="rgb(38,23,76)" stroke-width="1.51"/><path d="M55,-64L82,-16L136,-36Z" fill="rgb(41,15,66)" stroke="rgb(41,15,66)" stroke-width="1.51"/><path d="M1050,121L1016,56L968,149Z" fill="rgb(129,124,156)" stroke="rgb(129,124,156)" stroke-width="1.51"/><path d="M1100,378L1060,292L1022,418Z" fill="rgb(132,146,169)" stroke="rgb(132,146,169)" stroke-width="1.51"/><path d="M-117,284L-66,398L-20,315Z" fill="rgb(37,34,81)" stroke="rgb(37,34,81)" stroke-width="1.51"/><path d="M-20,315L-66,398L-20,376Z" fill="rgb(38,37,79)" stroke="rgb(38,37,79)" stroke-width="1.51"/><path d="M-14,233L-63,218L-20,315Z" fill="rgb(36,31,81)" stroke="rgb(36,31,81)" stroke-width="1.51"/><path d="M12,154L-63,218L-14,233Z" fill="rgb(36,28,81)" stroke="rgb(36,28,81)" stroke-width="1.51"/><path d="M-101,120L-63,218L12,154Z" fill="rgb(36,26,79)" stroke="rgb(36,26,79)" stroke-width="1.51"/><path d="M68,696L62,765L155,678Z" fill="rgb(136,123,154)" stroke="rgb(136,123,154)" stroke-width="1.51"/><path d="M-41,605L15,684L71,622Z" fill="rgb(103,96,113)" stroke="rgb(103,96,113)" stroke-width="1.51"/><path d="M-41,605L71,622L-23,538Z" fill="rgb(78,79,87)" stroke="rgb(78,79,87)" stroke-width="1.51"/><path d="M959,62L936,-29L871,22Z" fill="rgb(99,95,111)" stroke="rgb(99,95,111)" stroke-width="1.51"/><path d="M768,-85L881,-102L739,-95Z" fill="rgb(55,65,66)" stroke="rgb(55,65,66)" stroke-width="1.51"/><path d="M1007,-10L936,-29L959,62Z" fill="rgb(115,104,125)" stroke="rgb(115,104,125)" stroke-width="1.51"/><path d="M-116,525L-41,605L-23,538Z" fill="rgb(61,69,72)" stroke="rgb(61,69,72)" stroke-width="1.51"/><path d="M-21,822L62,765L15,684Z" fill="rgb(137,118,146)" stroke="rgb(137,118,146)" stroke-width="1.51"/><path d="M15,684L62,765L68,696Z" fill="rgb(137,120,149)" stroke="rgb(137,120,149)" stroke-width="1.51"/><path d="M1031,477L1085,494L1022,418Z" fill="rgb(133,162,152)" stroke="rgb(133,162,152)" stroke-width="1.51"/><path d="M1079,535L1008,525L1060,633Z" fill="rgb(157,187,163)" stroke="rgb(157,187,163)" stroke-width="1.51"/><path d="M1050,121L968,149L1007,239Z" fill="rgb(126,130,164)" stroke="rgb(126,130,164)" stroke-width="1.51"/><path d="M933,-104L881,-102L936,-29Z" fill="rgb(97,92,106)" stroke="rgb(97,92,106)" stroke-width="1.51"/><path d="M936,-29L881,-102L871,22Z" fill="rgb(90,87,99)" stroke="rgb(90,87,99)" stroke-width="1.51"/><path d="M739,-95L881,-102L468,-122Z" fill="rgb(45,52,64)" stroke="rgb(45,52,64)" stroke-width="1.51"/><path d="M1085,494L1100,378L1022,418Z" fill="rgb(133,157,158)" stroke="rgb(133,157,158)" stroke-width="1.51"/><path d="M1106,207L1050,121L1007,239Z" fill="rgb(132,135,171)" stroke="rgb(132,135,171)" stroke-width="1.51"/><path d="M1106,207L1007,239L1060,292Z" fill="rgb(132,138,171)" stroke="rgb(132,138,171)" stroke-width="1.51"/><path d="M1060,633L956,646L1045,732Z" fill="rgb(219,227,221)" stroke="rgb(219,227,221)" stroke-width="1.51"/><path d="M1060,633L1008,525L956,646Z" fill="rgb(172,197,177)" stroke="rgb(172,197,177)" stroke-width="1.51"/><path d="M-26,-21L-39,76L86,40Z" fill="rgb(42,12,62)" stroke="rgb(42,12,62)" stroke-width="1.51"/><path d="M-26,-21L86,40L82,-16Z" fill="rgb(42,12,62)" stroke="rgb(42,12,62)" stroke-width="1.51"/><path d="M-66,398L-103,487L10,484Z" fill="rgb(44,50,67)" stroke="rgb(44,50,67)" stroke-width="1.51"/><path d="M-117,284L-103,487L-66,398Z" fill="rgb(40,41,76)" stroke="rgb(40,41,76)" stroke-width="1.51"/><path d="M155,-79L55,-64L136,-36Z" fill="rgb(40,17,68)" stroke="rgb(40,17,68)" stroke-width="1.51"/><path d="M13,-121L55,-64L155,-79Z" fill="rgb(41,14,64)" stroke="rgb(41,14,64)" stroke-width="1.51"/><path d="M-63,218L-117,284L-20,315Z" fill="rgb(36,32,81)" stroke="rgb(36,32,81)" stroke-width="1.51"/><path d="M-101,120L-117,284L-63,218Z" fill="rgb(36,28,81)" stroke="rgb(36,28,81)" stroke-width="1.51"/><path d="M1079,637L1060,633L1045,732Z" fill="rgb(219,227,221)" stroke="rgb(219,227,221)" stroke-width="1.51"/><path d="M854,793L923,819L869,737Z" fill="rgb(180,202,184)" stroke="rgb(180,202,184)" stroke-width="1.51"/><path d="M785,822L923,819L854,793Z" fill="rgb(168,194,174)" stroke="rgb(168,194,174)" stroke-width="1.51"/><path d="M1134,317L1106,207L1060,292Z" fill="rgb(132,140,171)" stroke="rgb(132,140,171)" stroke-width="1.51"/><path d="M1103,-21L1007,-10L1016,56Z" fill="rgb(137,117,146)" stroke="rgb(137,117,146)" stroke-width="1.51"/><path d="M1107,79L1016,56L1050,121Z" fill="rgb(135,125,157)" stroke="rgb(135,125,157)" stroke-width="1.51"/><path d="M1016,56L1007,-10L959,62Z" fill="rgb(125,113,138)" stroke="rgb(125,113,138)" stroke-width="1.51"/><path d="M1138,807L1085,494L1079,535Z" fill="rgb(185,205,189)" stroke="rgb(185,205,189)" stroke-width="1.51"/><path d="M1138,807L1134,317L1085,494Z" fill="rgb(142,177,150)" stroke="rgb(142,177,150)" stroke-width="1.51"/><path d="M1085,494L1134,317L1100,378Z" fill="rgb(133,151,163)" stroke="rgb(133,151,163)" stroke-width="1.51"/><path d="M1100,378L1134,317L1060,292Z" fill="rgb(132,143,171)" stroke="rgb(132,143,171)" stroke-width="1.51"/><path d="M1036,-72L933,-104L936,-29Z" fill="rgb(116,103,124)" stroke="rgb(116,103,124)" stroke-width="1.51"/><path d="M881,-102L933,-104L468,-122Z" fill="rgb(46,58,59)" stroke="rgb(46,58,59)" stroke-width="1.51"/><path d="M-103,487L-116,525L-23,538Z" fill="rgb(46,58,59)" stroke="rgb(46,58,59)" stroke-width="1.51"/><path d="M-41,605L-87,706L15,684Z" fill="rgb(118,104,126)" stroke="rgb(118,104,126)" stroke-width="1.51"/><path d="M-117,284L-116,525L-103,487Z" fill="rgb(43,46,70)" stroke="rgb(43,46,70)" stroke-width="1.51"/><path d="M1060,633L1079,637L1079,535Z" fill="rgb(179,201,184)" stroke="rgb(179,201,184)" stroke-width="1.51"/><path d="M1045,732L956,646L940,691Z" fill="rgb(214,224,216)" stroke="rgb(214,224,216)" stroke-width="1.51"/><path d="M-39,76L-101,120L12,154Z" fill="rgb(39,21,73)" stroke="rgb(39,21,73)" stroke-width="1.51"/><path d="M-75,50L-101,120L-39,76Z" fill="rgb(40,18,68)" stroke="rgb(40,18,68)" stroke-width="1.51"/><path d="M1107,79L1101,120L1106,207Z" fill="rgb(133,130,165)" stroke="rgb(133,130,165)" stroke-width="1.51"/><path d="M1106,207L1101,120L1050,121Z" fill="rgb(133,131,167)" stroke="rgb(133,131,167)" stroke-width="1.51"/><path d="M55,-64L-26,-21L82,-16Z" fill="rgb(42,11,61)" stroke="rgb(42,11,61)" stroke-width="1.51"/><path d="M-26,-21L-75,50L-39,76Z" fill="rgb(41,12,62)" stroke="rgb(41,12,62)" stroke-width="1.51"/><path d="M923,819L1045,732L940,691Z" fill="rgb(216,225,218)" stroke="rgb(216,225,218)" stroke-width="1.51"/><path d="M1101,120L1107,79L1050,121Z" fill="rgb(134,127,161)" stroke="rgb(134,127,161)" stroke-width="1.51"/><path d="M1007,-10L1036,-72L936,-29Z" fill="rgb(125,109,133)" stroke="rgb(125,109,133)" stroke-width="1.51"/><path d="M1134,317L1107,79L1106,207Z" fill="rgb(132,135,171)" stroke="rgb(132,135,171)" stroke-width="1.51"/><path d="M-116,525L-116,634L-41,605Z" fill="rgb(78,79,87)" stroke="rgb(78,79,87)" stroke-width="1.51"/><path d="M-121,-31L-116,634L-116,525Z" fill="rgb(39,39,78)" stroke="rgb(39,39,78)" stroke-width="1.51"/><path d="M-116,634L-87,706L-41,605Z" fill="rgb(109,99,117)" stroke="rgb(109,99,117)" stroke-width="1.51"/><path d="M62,765L-21,822L185,823Z" fill="rgb(136,122,152)" stroke="rgb(136,122,152)" stroke-width="1.51"/><path d="M-26,-21L-121,-31L-75,50Z" fill="rgb(42,8,58)" stroke="rgb(42,8,58)" stroke-width="1.51"/><path d="M55,-64L13,-121L-26,-21Z" fill="rgb(42,9,59)" stroke="rgb(42,9,59)" stroke-width="1.51"/><path d="M239,-104L13,-121L155,-79Z" fill="rgb(40,19,70)" stroke="rgb(40,19,70)" stroke-width="1.51"/><path d="M468,-122L13,-121L239,-104Z" fill="rgb(36,26,79)" stroke="rgb(36,26,79)" stroke-width="1.51"/><path d="M1081,-59L1036,-72L1007,-10Z" fill="rgb(137,116,144)" stroke="rgb(137,116,144)" stroke-width="1.51"/><path d="M-87,706L-21,822L15,684Z" fill="rgb(137,116,144)" stroke="rgb(137,116,144)" stroke-width="1.51"/><path d="M1042,801L1094,727L1045,732Z" fill="rgb(240,240,240)" stroke="rgb(240,240,240)" stroke-width="1.51"/><path d="M1045,732L1094,727L1079,637Z" fill="rgb(239,240,239)" stroke="rgb(239,240,239)" stroke-width="1.51"/><path d="M1079,637L1138,807L1079,535Z" fill="rgb(215,224,217)" stroke="rgb(215,224,217)" stroke-width="1.51"/><path d="M923,819L1042,801L1045,732Z" fill="rgb(231,234,231)" stroke="rgb(231,234,231)" stroke-width="1.51"/><path d="M1107,79L1103,-21L1016,56Z" fill="rgb(136,120,150)" stroke="rgb(136,120,150)" stroke-width="1.51"/><path d="M1134,317L1103,-21L1107,79Z" fill="rgb(134,129,163)" stroke="rgb(134,129,163)" stroke-width="1.51"/><path d="M1103,-21L1081,-59L1007,-10Z" fill="rgb(137,116,144)" stroke="rgb(137,116,144)" stroke-width="1.51"/><path d="M1036,-72L1081,-59L933,-104Z" fill="rgb(134,114,141)" stroke="rgb(134,114,141)" stroke-width="1.51"/><path d="M-87,706L-94,791L-21,822Z" fill="rgb(137,116,144)" stroke="rgb(137,116,144)" stroke-width="1.51"/><path d="M-116,634L-94,791L-87,706Z" fill="rgb(137,116,144)" stroke="rgb(137,116,144)" stroke-width="1.51"/><path d="M-79,-92L-121,-31L-26,-21Z" fill="rgb(42,8,58)" stroke="rgb(42,8,58)" stroke-width="1.51"/><path d="M-75,50L-121,-31L-101,120Z" fill="rgb(41,14,64)" stroke="rgb(41,14,64)" stroke-width="1.51"/><path d="M-101,120L-121,-31L-117,284Z" fill="rgb(38,22,74)" stroke="rgb(38,22,74)" stroke-width="1.51"/><path d="M-117,284L-121,-31L-116,525Z" fill="rgb(36,31,81)" stroke="rgb(36,31,81)" stroke-width="1.51"/><path d="M13,-121L-79,-92L-26,-21Z" fill="rgb(42,8,58)" stroke="rgb(42,8,58)" stroke-width="1.51"/><path d="M923,819L1138,807L1042,801Z" fill="rgb(240,240,240)" stroke="rgb(240,240,240)" stroke-width="1.51"/><path d="M1042,801L1138,807L1094,727Z" fill="rgb(240,240,240)" stroke="rgb(240,240,240)" stroke-width="1.51"/><path d="M1094,727L1138,807L1079,637Z" fill="rgb(240,240,240)" stroke="rgb(240,240,240)" stroke-width="1.51"/></svg>