<svg xmlns="http://www.w3.org/2000/svg" width="1024" height="800"><path d="M491,425L447,443L458,484Z" fill="rgb(89,79,98)" stroke="rgb(89,79,98)" stroke-width="1.51"/><path d="M458,484L518,515L491,425Z" fill="rgb(74,66,88)" stroke="rgb(74,66,88)" stroke-width="1.51"/><path d="M491,425L460,359L447,443Z" fill="rgb(100,89,108)" stroke="rgb(100,89,108)" stroke-width="1.51"/><path d="M588,439L529,375L491,425Z" fill="rgb(76,70,93)" stroke="rgb(76,70,93)" stroke-width="1.51"/><path d="M529,375L460,359L491,425Z" fill="rgb(98,89,108)" stroke="rgb(98,89,108)" stroke-width="1.51"/><path d="M518,515L588,439L491,425Z" fill="rgb(65,59,83)" stroke="rgb(65,59,83)" stroke-width="1.51"/><path d="M447,443L367,490L458,484Z" fill="rgb(99,86,100)" stroke="rgb(99,86,100)" stroke-width="1.51"/><path d="M458,484L505,600L518,515Z" fill="rgb(58,50,73)" stroke="rgb(58,50,73)" stroke-width="1.51"/><path d="M342,449L367,490L447,443Z" fill="rgb(117,101,111)" stroke="rgb(117,101,111)" stroke-width="1.51"/><path d="M588,439L581,379L529,375Z" fill="rgb(74,68,91)" stroke="rgb(74,68,91)" stroke-width="1.51"/><path d="M529,375L461,305L460,359Z" fill="rgb(122,108,120)" stroke="rgb(122,108,120)" stroke-width="1.51"/><path d="M349,390L342,449L447,443Z" fill="rgb(129,112,120)" stroke="rgb(129,112,120)" stroke-width="1.51"/><path d="M518,515L600,536L588,439Z" fill="rgb(50,44,68)" stroke="rgb(50,44,68)" stroke-width="1.51"/><path d="M505,600L571,562L518,515Z" fill="rgb(52,50,74)" stroke="rgb(52,50,74)" stroke-width="1.51"/><path d="M571,562L600,536L518,515Z" fill="rgb(44,37,62)" stroke="rgb(44,37,62)" stroke-width="1.51"/><path d="M588,439L658,421L581,379Z" fill="rgb(63,56,80)" stroke="rgb(63,56,80)" stroke-width="1.51"/><path d="M460,359L349,390L447,443Z" fill="rgb(122,108,119)" stroke="rgb(122,108,119)" stroke-width="1.51"/><path d="M412,612L505,600L458,484Z" fill="rgb(76,72,89)" stroke="rgb(76,72,89)" stroke-width="1.51"/><path d="M460,359L389,302L349,390Z" fill="rgb(153,134,135)" stroke="rgb(153,134,135)" stroke-width="1.51"/><path d="M513,276L461,305L529,375Z" fill="rgb(129,114,123)" stroke="rgb(129,114,123)" stroke-width="1.51"/><path d="M367,490L387,588L458,484Z" fill="rgb(95,80,93)" stroke="rgb(95,80,93)" stroke-width="1.51"/><path d="M314,503L387,588L367,490Z" fill="rgb(111,92,101)" stroke="rgb(111,92,101)" stroke-width="1.51"/><path d="M387,588L412,612L458,484Z" fill="rgb(91,82,95)" stroke="rgb(91,82,95)" stroke-width="1.51"/><path d="M342,449L314,503L367,490Z" fill="rgb(129,110,114)" stroke="rgb(129,110,114)" stroke-width="1.51"/><path d="M287,414L314,503L342,449Z" fill="rgb(123,106,112)" stroke="rgb(123,106,112)" stroke-width="1.51"/><path d="M461,305L389,302L460,359Z" fill="rgb(153,133,135)" stroke="rgb(153,133,135)" stroke-width="1.51"/><path d="M505,600L561,654L571,562Z" fill="rgb(54,64,84)" stroke="rgb(54,64,84)" stroke-width="1.51"/><path d="M637,580L665,486L600,536Z" fill="rgb(30,24,49)" stroke="rgb(30,24,49)" stroke-width="1.51"/><path d="M412,612L491,637L505,600Z" fill="rgb(78,87,101)" stroke="rgb(78,87,101)" stroke-width="1.51"/><path d="M665,486L658,421L588,439Z" fill="rgb(48,42,67)" stroke="rgb(48,42,67)" stroke-width="1.51"/><path d="M589,281L513,276L529,375Z" fill="rgb(122,107,117)" stroke="rgb(122,107,117)" stroke-width="1.51"/><path d="M589,281L529,375L581,379Z" fill="rgb(100,88,104)" stroke="rgb(100,88,104)" stroke-width="1.51"/><path d="M461,305L427,212L389,302Z" fill="rgb(183,158,150)" stroke="rgb(183,158,150)" stroke-width="1.51"/><path d="M600,536L665,486L588,439Z" fill="rgb(43,37,62)" stroke="rgb(43,37,62)" stroke-width="1.51"/><path d="M637,580L600,536L571,562Z" fill="rgb(39,37,61)" stroke="rgb(39,37,61)" stroke-width="1.51"/><path d="M349,390L287,414L342,449Z" fill="rgb(138,121,126)" stroke="rgb(138,121,126)" stroke-width="1.51"/><path d="M282,345L287,414L349,390Z" fill="rgb(142,125,127)" stroke="rgb(142,125,127)" stroke-width="1.51"/><path d="M561,654L637,580L571,562Z" fill="rgb(45,53,74)" stroke="rgb(45,53,74)" stroke-width="1.51"/><path d="M665,336L589,281L581,379Z" fill="rgb(98,84,99)" stroke="rgb(98,84,99)" stroke-width="1.51"/><path d="M491,637L561,654L505,600Z" fill="rgb(62,78,96)" stroke="rgb(62,78,96)" stroke-width="1.51"/><path d="M412,612L460,671L491,637Z" fill="rgb(87,101,111)" stroke="rgb(87,101,111)" stroke-width="1.51"/><path d="M491,637L514,748L561,654Z" fill="rgb(66,92,107)" stroke="rgb(66,92,107)" stroke-width="1.51"/><path d="M349,642L460,671L412,612Z" fill="rgb(106,116,121)" stroke="rgb(106,116,121)" stroke-width="1.51"/><path d="M658,421L665,336L581,379Z" fill="rgb(71,62,84)" stroke="rgb(71,62,84)" stroke-width="1.51"/><path d="M682,306L665,336L734,382Z" fill="rgb(81,70,86)" stroke="rgb(81,70,86)" stroke-width="1.51"/><path d="M389,302L282,345L349,390Z" fill="rgb(178,154,147)" stroke="rgb(178,154,147)" stroke-width="1.51"/><path d="M387,588L349,642L412,612Z" fill="rgb(112,113,117)" stroke="rgb(112,113,117)" stroke-width="1.51"/><path d="M274,596L349,642L387,588Z" fill="rgb(125,123,122)" stroke="rgb(125,123,122)" stroke-width="1.51"/><path d="M274,596L387,588L314,503Z" fill="rgb(112,100,105)" stroke="rgb(112,100,105)" stroke-width="1.51"/><path d="M589,281L571,236L513,276Z" fill="rgb(140,120,124)" stroke="rgb(140,120,124)" stroke-width="1.51"/><path d="M513,276L427,212L461,305Z" fill="rgb(168,145,142)" stroke="rgb(168,145,142)" stroke-width="1.51"/><path d="M635,191L571,236L589,281Z" fill="rgb(113,98,106)" stroke="rgb(113,98,106)" stroke-width="1.51"/><path d="M211,525L274,596L314,503Z" fill="rgb(81,71,83)" stroke="rgb(81,71,83)" stroke-width="1.51"/><path d="M211,525L314,503L195,452Z" fill="rgb(78,69,83)" stroke="rgb(78,69,83)" stroke-width="1.51"/><path d="M536,205L427,212L513,276Z" fill="rgb(136,120,125)" stroke="rgb(136,120,125)" stroke-width="1.51"/><path d="M389,302L259,261L282,345Z" fill="rgb(186,161,150)" stroke="rgb(186,161,150)" stroke-width="1.51"/><path d="M637,580L716,537L665,486Z" fill="rgb(23,18,43)" stroke="rgb(23,18,43)" stroke-width="1.51"/><path d="M747,452L734,382L658,421Z" fill="rgb(51,49,72)" stroke="rgb(51,49,72)" stroke-width="1.51"/><path d="M719,582L716,537L637,580Z" fill="rgb(26,28,51)" stroke="rgb(26,28,51)" stroke-width="1.51"/><path d="M665,336L682,306L589,281Z" fill="rgb(103,87,98)" stroke="rgb(103,87,98)" stroke-width="1.51"/><path d="M734,382L665,336L658,421Z" fill="rgb(61,53,75)" stroke="rgb(61,53,75)" stroke-width="1.51"/><path d="M427,212L387,220L389,302Z" fill="rgb(181,157,148)" stroke="rgb(181,157,148)" stroke-width="1.51"/><path d="M571,236L536,205L513,276Z" fill="rgb(127,112,118)" stroke="rgb(127,112,118)" stroke-width="1.51"/><path d="M561,161L536,205L571,236Z" fill="rgb(101,90,101)" stroke="rgb(101,90,101)" stroke-width="1.51"/><path d="M460,671L514,748L491,637Z" fill="rgb(78,102,114)" stroke="rgb(78,102,114)" stroke-width="1.51"/><path d="M349,642L447,714L460,671Z" fill="rgb(105,123,127)" stroke="rgb(105,123,127)" stroke-width="1.51"/><path d="M387,745L447,714L349,642Z" fill="rgb(117,134,134)" stroke="rgb(117,134,134)" stroke-width="1.51"/><path d="M747,452L658,421L665,486Z" fill="rgb(40,35,60)" stroke="rgb(40,35,60)" stroke-width="1.51"/><path d="M716,537L747,452L665,486Z" fill="rgb(33,32,55)" stroke="rgb(33,32,55)" stroke-width="1.51"/><path d="M634,745L671,647L561,654Z" fill="rgb(47,72,89)" stroke="rgb(47,72,89)" stroke-width="1.51"/><path d="M561,654L671,647L637,580Z" fill="rgb(42,56,76)" stroke="rgb(42,56,76)" stroke-width="1.51"/><path d="M671,647L719,582L637,580Z" fill="rgb(30,39,60)" stroke="rgb(30,39,60)" stroke-width="1.51"/><path d="M716,537L816,503L747,452Z" fill="rgb(37,43,64)" stroke="rgb(37,43,64)" stroke-width="1.51"/><path d="M282,345L230,338L287,414Z" fill="rgb(131,117,121)" stroke="rgb(131,117,121)" stroke-width="1.51"/><path d="M259,261L230,338L282,345Z" fill="rgb(152,134,130)" stroke="rgb(152,134,130)" stroke-width="1.51"/><path d="M195,452L314,503L287,414Z" fill="rgb(99,87,98)" stroke="rgb(99,87,98)" stroke-width="1.51"/><path d="M230,338L195,452L287,414Z" fill="rgb(100,91,103)" stroke="rgb(100,91,103)" stroke-width="1.51"/><path d="M274,596L284,665L349,642Z" fill="rgb(112,120,120)" stroke="rgb(112,120,120)" stroke-width="1.51"/><path d="M224,687L284,665L274,596Z" fill="rgb(93,109,113)" stroke="rgb(93,109,113)" stroke-width="1.51"/><path d="M447,714L514,748L460,671Z" fill="rgb(86,110,119)" stroke="rgb(86,110,119)" stroke-width="1.51"/><path d="M499,812L514,748L447,714Z" fill="rgb(84,113,121)" stroke="rgb(84,113,121)" stroke-width="1.51"/><path d="M387,220L259,261L389,302Z" fill="rgb(215,185,165)" stroke="rgb(215,185,165)" stroke-width="1.51"/><path d="M682,306L635,191L589,281Z" fill="rgb(120,102,108)" stroke="rgb(120,102,108)" stroke-width="1.51"/><path d="M734,382L718,280L682,306Z" fill="rgb(92,82,95)" stroke="rgb(92,82,95)" stroke-width="1.51"/><path d="M799,277L718,280L734,382Z" fill="rgb(101,97,106)" stroke="rgb(101,97,106)" stroke-width="1.51"/><path d="M427,212L415,165L387,220Z" fill="rgb(149,131,128)" stroke="rgb(149,131,128)" stroke-width="1.51"/><path d="M387,220L269,206L259,261Z" fill="rgb(177,155,142)" stroke="rgb(177,155,142)" stroke-width="1.51"/><path d="M497,138L415,165L427,212Z" fill="rgb(117,106,111)" stroke="rgb(117,106,111)" stroke-width="1.51"/><path d="M301,722L387,745L349,642Z" fill="rgb(137,151,143)" stroke="rgb(137,151,143)" stroke-width="1.51"/><path d="M536,205L497,138L427,212Z" fill="rgb(110,99,109)" stroke="rgb(110,99,109)" stroke-width="1.51"/><path d="M635,191L561,161L571,236Z" fill="rgb(91,81,93)" stroke="rgb(91,81,93)" stroke-width="1.51"/><path d="M718,280L635,191L682,306Z" fill="rgb(112,93,99)" stroke="rgb(112,93,99)" stroke-width="1.51"/><path d="M514,748L581,753L561,654Z" fill="rgb(63,91,105)" stroke="rgb(63,91,105)" stroke-width="1.51"/><path d="M499,812L581,753L514,748Z" fill="rgb(71,102,114)" stroke="rgb(71,102,114)" stroke-width="1.51"/><path d="M259,261L227,266L230,338Z" fill="rgb(157,138,132)" stroke="rgb(157,138,132)" stroke-width="1.51"/><path d="M230,338L155,436L195,452Z" fill="rgb(78,74,89)" stroke="rgb(78,74,89)" stroke-width="1.51"/><path d="M269,206L227,266L259,261Z" fill="rgb(160,141,132)" stroke="rgb(160,141,132)" stroke-width="1.51"/><path d="M211,525L184,576L274,596Z" fill="rgb(65,64,78)" stroke="rgb(65,64,78)" stroke-width="1.51"/><path d="M147,491L184,576L211,525Z" fill="rgb(43,40,58)" stroke="rgb(43,40,58)" stroke-width="1.51"/><path d="M561,161L497,138L536,205Z" fill="rgb(86,80,94)" stroke="rgb(86,80,94)" stroke-width="1.51"/><path d="M284,665L301,722L349,642Z" fill="rgb(122,137,133)" stroke="rgb(122,137,133)" stroke-width="1.51"/><path d="M237,724L301,722L284,665Z" fill="rgb(105,126,125)" stroke="rgb(105,126,125)" stroke-width="1.51"/><path d="M195,452L147,491L211,525Z" fill="rgb(54,51,68)" stroke="rgb(54,51,68)" stroke-width="1.51"/><path d="M129,342L155,436L230,338Z" fill="rgb(83,79,91)" stroke="rgb(83,79,91)" stroke-width="1.51"/><path d="M378,119L269,206L387,220Z" fill="rgb(163,144,134)" stroke="rgb(163,144,134)" stroke-width="1.51"/><path d="M378,119L387,220L415,165Z" fill="rgb(136,121,119)" stroke="rgb(136,121,119)" stroke-width="1.51"/><path d="M581,753L634,745L561,654Z" fill="rgb(55,83,97)" stroke="rgb(55,83,97)" stroke-width="1.51"/><path d="M671,647L722,682L719,582Z" fill="rgb(33,55,73)" stroke="rgb(33,55,73)" stroke-width="1.51"/><path d="M634,745L722,682L671,647Z" fill="rgb(37,63,80)" stroke="rgb(37,63,80)" stroke-width="1.51"/><path d="M820,436L804,373L747,452Z" fill="rgb(57,70,88)" stroke="rgb(57,70,88)" stroke-width="1.51"/><path d="M155,436L147,491L195,452Z" fill="rgb(57,56,73)" stroke="rgb(57,56,73)" stroke-width="1.51"/><path d="M747,452L804,373L734,382Z" fill="rgb(59,66,87)" stroke="rgb(59,66,87)" stroke-width="1.51"/><path d="M816,503L716,537L719,582Z" fill="rgb(28,35,57)" stroke="rgb(28,35,57)" stroke-width="1.51"/><path d="M821,604L816,503L719,582Z" fill="rgb(32,51,70)" stroke="rgb(32,51,70)" stroke-width="1.51"/><path d="M816,503L820,436L747,452Z" fill="rgb(47,60,79)" stroke="rgb(47,60,79)" stroke-width="1.51"/><path d="M184,576L224,687L274,596Z" fill="rgb(74,85,94)" stroke="rgb(74,85,94)" stroke-width="1.51"/><path d="M161,669L224,687L184,576Z" fill="rgb(58,81,90)" stroke="rgb(58,81,90)" stroke-width="1.51"/><path d="M442,50L378,119L415,165Z" fill="rgb(122,111,113)" stroke="rgb(122,111,113)" stroke-width="1.51"/><path d="M429,829L499,812L447,714Z" fill="rgb(98,126,129)" stroke="rgb(98,126,129)" stroke-width="1.51"/><path d="M581,753L605,791L634,745Z" fill="rgb(55,86,99)" stroke="rgb(55,86,99)" stroke-width="1.51"/><path d="M429,829L447,714L387,745Z" fill="rgb(111,134,134)" stroke="rgb(111,134,134)" stroke-width="1.51"/><path d="M736,763L788,676L722,682Z" fill="rgb(39,82,94)" stroke="rgb(39,82,94)" stroke-width="1.51"/><path d="M499,812L605,791L581,753Z" fill="rgb(65,98,109)" stroke="rgb(65,98,109)" stroke-width="1.51"/><path d="M147,491L148,597L184,576Z" fill="rgb(46,47,64)" stroke="rgb(46,47,64)" stroke-width="1.51"/><path d="M301,722L358,807L387,745Z" fill="rgb(141,158,148)" stroke="rgb(141,158,148)" stroke-width="1.51"/><path d="M224,687L237,724L284,665Z" fill="rgb(91,114,116)" stroke="rgb(91,114,116)" stroke-width="1.51"/><path d="M161,669L237,724L224,687Z" fill="rgb(71,99,104)" stroke="rgb(71,99,104)" stroke-width="1.51"/><path d="M155,436L65,414L147,491Z" fill="rgb(82,77,91)" stroke="rgb(82,77,91)" stroke-width="1.51"/><path d="M147,491L83,579L148,597Z" fill="rgb(63,62,76)" stroke="rgb(63,62,76)" stroke-width="1.51"/><path d="M150,279L129,342L230,338Z" fill="rgb(108,99,105)" stroke="rgb(108,99,105)" stroke-width="1.51"/><path d="M150,279L230,338L227,266Z" fill="rgb(135,121,119)" stroke="rgb(135,121,119)" stroke-width="1.51"/><path d="M718,280L762,213L635,191Z" fill="rgb(95,84,93)" stroke="rgb(95,84,93)" stroke-width="1.51"/><path d="M804,373L799,277L734,382Z" fill="rgb(89,93,105)" stroke="rgb(89,93,105)" stroke-width="1.51"/><path d="M886,277L799,277L804,373Z" fill="rgb(112,123,125)" stroke="rgb(112,123,125)" stroke-width="1.51"/><path d="M265,838L358,807L301,722Z" fill="rgb(129,152,143)" stroke="rgb(129,152,143)" stroke-width="1.51"/><path d="M788,676L821,604L719,582Z" fill="rgb(35,68,84)" stroke="rgb(35,68,84)" stroke-width="1.51"/><path d="M907,504L865,413L820,436Z" fill="rgb(54,80,96)" stroke="rgb(54,80,96)" stroke-width="1.51"/><path d="M788,676L719,582L722,682Z" fill="rgb(35,68,84)" stroke="rgb(35,68,84)" stroke-width="1.51"/><path d="M199,197L150,279L227,266Z" fill="rgb(132,119,116)" stroke="rgb(132,119,116)" stroke-width="1.51"/><path d="M199,197L227,266L269,206Z" fill="rgb(136,123,118)" stroke="rgb(136,123,118)" stroke-width="1.51"/><path d="M799,277L762,213L718,280Z" fill="rgb(119,113,115)" stroke="rgb(119,113,115)" stroke-width="1.51"/><path d="M635,191L636,116L561,161Z" fill="rgb(64,59,75)" stroke="rgb(64,59,75)" stroke-width="1.51"/><path d="M561,161L508,82L497,138Z" fill="rgb(71,70,85)" stroke="rgb(71,70,85)" stroke-width="1.51"/><path d="M755,124L636,116L635,191Z" fill="rgb(45,42,59)" stroke="rgb(45,42,59)" stroke-width="1.51"/><path d="M497,138L442,50L415,165Z" fill="rgb(102,95,103)" stroke="rgb(102,95,103)" stroke-width="1.51"/><path d="M358,807L429,829L387,745Z" fill="rgb(126,149,143)" stroke="rgb(126,149,143)" stroke-width="1.51"/><path d="M602,883L634,808L605,791Z" fill="rgb(56,89,100)" stroke="rgb(56,89,100)" stroke-width="1.51"/><path d="M607,59L508,82L561,161Z" fill="rgb(82,77,91)" stroke="rgb(82,77,91)" stroke-width="1.51"/><path d="M736,763L722,682L634,745Z" fill="rgb(39,71,85)" stroke="rgb(39,71,85)" stroke-width="1.51"/><path d="M189,155L199,197L269,206Z" fill="rgb(107,100,101)" stroke="rgb(107,100,101)" stroke-width="1.51"/><path d="M148,597L161,669L184,576Z" fill="rgb(49,66,78)" stroke="rgb(49,66,78)" stroke-width="1.51"/><path d="M605,791L634,808L634,745Z" fill="rgb(53,85,97)" stroke="rgb(53,85,97)" stroke-width="1.51"/><path d="M602,883L605,791L499,812Z" fill="rgb(65,99,109)" stroke="rgb(65,99,109)" stroke-width="1.51"/><path d="M820,436L865,413L804,373Z" fill="rgb(63,84,101)" stroke="rgb(63,84,101)" stroke-width="1.51"/><path d="M907,504L820,436L816,503Z" fill="rgb(46,70,87)" stroke="rgb(46,70,87)" stroke-width="1.51"/><path d="M378,119L290,110L269,206Z" fill="rgb(127,115,113)" stroke="rgb(127,115,113)" stroke-width="1.51"/><path d="M362,72L290,110L378,119Z" fill="rgb(156,141,132)" stroke="rgb(156,141,132)" stroke-width="1.51"/><path d="M634,808L736,763L634,745Z" fill="rgb(44,75,88)" stroke="rgb(44,75,88)" stroke-width="1.51"/><path d="M821,604L864,564L816,503Z" fill="rgb(34,62,79)" stroke="rgb(34,62,79)" stroke-width="1.51"/><path d="M911,681L864,564L821,604Z" fill="rgb(37,89,101)" stroke="rgb(37,89,101)" stroke-width="1.51"/><path d="M839,720L821,604L788,676Z" fill="rgb(36,95,106)" stroke="rgb(36,95,106)" stroke-width="1.51"/><path d="M442,50L362,72L378,119Z" fill="rgb(150,136,131)" stroke="rgb(150,136,131)" stroke-width="1.51"/><path d="M461,15L442,50L508,82Z" fill="rgb(142,131,131)" stroke="rgb(142,131,131)" stroke-width="1.51"/><path d="M508,82L442,50L497,138Z" fill="rgb(109,101,110)" stroke="rgb(109,101,110)" stroke-width="1.51"/><path d="M129,342L80,364L155,436Z" fill="rgb(104,98,107)" stroke="rgb(104,98,107)" stroke-width="1.51"/><path d="M148,597L87,649L161,669Z" fill="rgb(69,89,97)" stroke="rgb(69,89,97)" stroke-width="1.51"/><path d="M38,293L80,364L129,342Z" fill="rgb(149,136,133)" stroke="rgb(149,136,133)" stroke-width="1.51"/><path d="M38,293L129,342L150,279Z" fill="rgb(151,136,131)" stroke="rgb(151,136,131)" stroke-width="1.51"/><path d="M199,197L157,198L150,279Z" fill="rgb(109,101,102)" stroke="rgb(109,101,102)" stroke-width="1.51"/><path d="M189,155L157,198L199,197Z" fill="rgb(88,85,90)" stroke="rgb(88,85,90)" stroke-width="1.51"/><path d="M44,539L83,579L147,491Z" fill="rgb(77,70,82)" stroke="rgb(77,70,82)" stroke-width="1.51"/><path d="M80,364L65,414L155,436Z" fill="rgb(105,99,109)" stroke="rgb(105,99,109)" stroke-width="1.51"/><path d="M290,110L189,155L269,206Z" fill="rgb(104,97,99)" stroke="rgb(104,97,99)" stroke-width="1.51"/><path d="M197,70L189,155L290,110Z" fill="rgb(93,89,93)" stroke="rgb(93,89,93)" stroke-width="1.51"/><path d="M636,116L607,59L561,161Z" fill="rgb(66,63,78)" stroke="rgb(66,63,78)" stroke-width="1.51"/><path d="M666,80L607,59L636,116Z" fill="rgb(77,70,83)" stroke="rgb(77,70,83)" stroke-width="1.51"/><path d="M755,124L666,80L636,116Z" fill="rgb(55,51,66)" stroke="rgb(55,51,66)" stroke-width="1.51"/><path d="M762,213L755,124L635,191Z" fill="rgb(65,64,77)" stroke="rgb(65,64,77)" stroke-width="1.51"/><path d="M799,277L833,229L762,213Z" fill="rgb(113,117,118)" stroke="rgb(113,117,118)" stroke-width="1.51"/><path d="M886,277L833,229L799,277Z" fill="rgb(131,140,136)" stroke="rgb(131,140,136)" stroke-width="1.51"/><path d="M864,564L907,504L816,503Z" fill="rgb(37,62,79)" stroke="rgb(37,62,79)" stroke-width="1.51"/><path d="M910,345L886,277L804,373Z" fill="rgb(103,122,126)" stroke="rgb(103,122,126)" stroke-width="1.51"/><path d="M975,528L907,504L982,565Z" fill="rgb(39,69,83)" stroke="rgb(39,69,83)" stroke-width="1.51"/><path d="M787,140L755,124L762,213Z" fill="rgb(61,70,82)" stroke="rgb(61,70,82)" stroke-width="1.51"/><path d="M83,579L87,649L148,597Z" fill="rgb(80,89,97)" stroke="rgb(80,89,97)" stroke-width="1.51"/><path d="M237,829L265,838L237,724Z" fill="rgb(98,128,124)" stroke="rgb(98,128,124)" stroke-width="1.51"/><path d="M237,724L265,838L301,722Z" fill="rgb(106,132,128)" stroke="rgb(106,132,128)" stroke-width="1.51"/><path d="M4,580L87,649L83,579Z" fill="rgb(105,110,113)" stroke="rgb(105,110,113)" stroke-width="1.51"/><path d="M358,807L340,883L429,829Z" fill="rgb(133,155,146)" stroke="rgb(133,155,146)" stroke-width="1.51"/><path d="M237,829L237,724L145,808Z" fill="rgb(77,111,113)" stroke="rgb(77,111,113)" stroke-width="1.51"/><path d="M362,72L282,55L290,110Z" fill="rgb(158,143,133)" stroke="rgb(158,143,133)" stroke-width="1.51"/><path d="M442,50L382,-14L362,72Z" fill="rgb(182,164,152)" stroke="rgb(182,164,152)" stroke-width="1.51"/><path d="M512,0L461,15L508,82Z" fill="rgb(145,133,134)" stroke="rgb(145,133,134)" stroke-width="1.51"/><path d="M65,414L44,539L147,491Z" fill="rgb(93,85,95)" stroke="rgb(93,85,95)" stroke-width="1.51"/><path d="M833,229L787,140L762,213Z" fill="rgb(84,94,100)" stroke="rgb(84,94,100)" stroke-width="1.51"/><path d="M115,756L237,724L161,669Z" fill="rgb(54,88,96)" stroke="rgb(54,88,96)" stroke-width="1.51"/><path d="M514,913L602,883L499,812Z" fill="rgb(71,105,115)" stroke="rgb(71,105,115)" stroke-width="1.51"/><path d="M634,808L739,839L736,763Z" fill="rgb(43,81,92)" stroke="rgb(43,81,92)" stroke-width="1.51"/><path d="M438,912L499,812L429,829Z" fill="rgb(100,129,131)" stroke="rgb(100,129,131)" stroke-width="1.51"/><path d="M833,229L873,152L787,140Z" fill="rgb(75,94,102)" stroke="rgb(75,94,102)" stroke-width="1.51"/><path d="M910,345L804,373L865,413Z" fill="rgb(79,102,114)" stroke="rgb(79,102,114)" stroke-width="1.51"/><path d="M938,416L910,345L865,413Z" fill="rgb(75,101,113)" stroke="rgb(75,101,113)" stroke-width="1.51"/><path d="M736,763L839,720L788,676Z" fill="rgb(40,94,104)" stroke="rgb(40,94,104)" stroke-width="1.51"/><path d="M807,803L839,720L736,763Z" fill="rgb(43,102,110)" stroke="rgb(43,102,110)" stroke-width="1.51"/><path d="M382,-14L282,55L362,72Z" fill="rgb(203,181,162)" stroke="rgb(203,181,162)" stroke-width="1.51"/><path d="M265,838L340,883L358,807Z" fill="rgb(137,159,148)" stroke="rgb(137,159,148)" stroke-width="1.51"/><path d="M278,911L340,883L265,838Z" fill="rgb(123,148,139)" stroke="rgb(123,148,139)" stroke-width="1.51"/><path d="M340,883L438,912L429,829Z" fill="rgb(122,146,141)" stroke="rgb(122,146,141)" stroke-width="1.51"/><path d="M886,277L867,216L833,229Z" fill="rgb(120,135,132)" stroke="rgb(120,135,132)" stroke-width="1.51"/><path d="M873,152L867,216L977,216Z" fill="rgb(93,117,118)" stroke="rgb(93,117,118)" stroke-width="1.51"/><path d="M438,912L514,913L499,812Z" fill="rgb(88,119,125)" stroke="rgb(88,119,125)" stroke-width="1.51"/><path d="M607,59L512,0L508,82Z" fill="rgb(121,112,118)" stroke="rgb(121,112,118)" stroke-width="1.51"/><path d="M461,15L382,-14L442,50Z" fill="rgb(183,165,154)" stroke="rgb(183,165,154)" stroke-width="1.51"/><path d="M606,-5L512,0L607,59Z" fill="rgb(135,122,125)" stroke="rgb(135,122,125)" stroke-width="1.51"/><path d="M606,-5L607,59L646,5Z" fill="rgb(125,111,116)" stroke="rgb(125,111,116)" stroke-width="1.51"/><path d="M715,51L666,80L755,124Z" fill="rgb(72,69,82)" stroke="rgb(72,69,82)" stroke-width="1.51"/><path d="M738,876L679,870L602,883Z" fill="rgb(45,78,90)" stroke="rgb(45,78,90)" stroke-width="1.51"/><path d="M602,883L679,870L634,808Z" fill="rgb(51,85,96)" stroke="rgb(51,85,96)" stroke-width="1.51"/><path d="M910,345L934,344L886,277Z" fill="rgb(111,130,131)" stroke="rgb(111,130,131)" stroke-width="1.51"/><path d="M907,504L938,416L865,413Z" fill="rgb(58,86,101)" stroke="rgb(58,86,101)" stroke-width="1.51"/><path d="M975,528L938,416L907,504Z" fill="rgb(51,80,94)" stroke="rgb(51,80,94)" stroke-width="1.51"/><path d="M679,870L739,839L634,808Z" fill="rgb(43,76,88)" stroke="rgb(43,76,88)" stroke-width="1.51"/><path d="M938,416L934,344L910,345Z" fill="rgb(87,113,121)" stroke="rgb(87,113,121)" stroke-width="1.51"/><path d="M801,57L715,51L755,124Z" fill="rgb(81,87,95)" stroke="rgb(81,87,95)" stroke-width="1.51"/><path d="M801,57L755,124L787,140Z" fill="rgb(63,76,87)" stroke="rgb(63,76,87)" stroke-width="1.51"/><path d="M61,188L38,293L150,279Z" fill="rgb(174,157,144)" stroke="rgb(174,157,144)" stroke-width="1.51"/><path d="M80,364L6,338L65,414Z" fill="rgb(147,135,134)" stroke="rgb(147,135,134)" stroke-width="1.51"/><path d="M65,414L6,513L44,539Z" fill="rgb(116,104,110)" stroke="rgb(116,104,110)" stroke-width="1.51"/><path d="M61,188L150,279L157,198Z" fill="rgb(132,121,117)" stroke="rgb(132,121,117)" stroke-width="1.51"/><path d="M133,135L157,198L189,155Z" fill="rgb(76,76,83)" stroke="rgb(76,76,83)" stroke-width="1.51"/><path d="M87,649L115,756L161,669Z" fill="rgb(80,108,111)" stroke="rgb(80,108,111)" stroke-width="1.51"/><path d="M58,752L115,756L87,649Z" fill="rgb(100,127,126)" stroke="rgb(100,127,126)" stroke-width="1.51"/><path d="M197,70L133,135L189,155Z" fill="rgb(63,66,75)" stroke="rgb(63,66,75)" stroke-width="1.51"/><path d="M44,539L4,580L83,579Z" fill="rgb(107,102,107)" stroke="rgb(107,102,107)" stroke-width="1.51"/><path d="M-12,413L6,513L65,414Z" fill="rgb(137,124,127)" stroke="rgb(137,124,127)" stroke-width="1.51"/><path d="M739,839L807,803L736,763Z" fill="rgb(45,97,105)" stroke="rgb(45,97,105)" stroke-width="1.51"/><path d="M282,55L197,70L290,110Z" fill="rgb(131,121,118)" stroke="rgb(131,121,118)" stroke-width="1.51"/><path d="M220,-6L197,70L282,55Z" fill="rgb(147,136,129)" stroke="rgb(147,136,129)" stroke-width="1.51"/><path d="M646,5L607,59L666,80Z" fill="rgb(101,90,99)" stroke="rgb(101,90,99)" stroke-width="1.51"/><path d="M382,-14L461,15L415,-107Z" fill="rgb(199,179,165)" stroke="rgb(199,179,165)" stroke-width="1.51"/><path d="M360,-62L382,-14L415,-107Z" fill="rgb(213,191,171)" stroke="rgb(213,191,171)" stroke-width="1.51"/><path d="M715,51L646,5L666,80Z" fill="rgb(96,85,94)" stroke="rgb(96,85,94)" stroke-width="1.51"/><path d="M208,902L278,911L265,838Z" fill="rgb(100,130,126)" stroke="rgb(100,130,126)" stroke-width="1.51"/><path d="M115,756L145,808L237,724Z" fill="rgb(60,96,101)" stroke="rgb(60,96,101)" stroke-width="1.51"/><path d="M38,293L6,338L80,364Z" fill="rgb(173,156,148)" stroke="rgb(173,156,148)" stroke-width="1.51"/><path d="M-7,279L6,338L38,293Z" fill="rgb(205,183,166)" stroke="rgb(205,183,166)" stroke-width="1.51"/><path d="M839,720L911,681L821,604Z" fill="rgb(36,106,115)" stroke="rgb(36,106,115)" stroke-width="1.51"/><path d="M900,754L911,681L839,720Z" fill="rgb(41,116,121)" stroke="rgb(41,116,121)" stroke-width="1.51"/><path d="M6,513L4,580L44,539Z" fill="rgb(117,105,109)" stroke="rgb(117,105,109)" stroke-width="1.51"/><path d="M115,756L88,794L145,808Z" fill="rgb(89,123,121)" stroke="rgb(89,123,121)" stroke-width="1.51"/><path d="M-10,637L4,580L-89,559Z" fill="rgb(135,133,130)" stroke="rgb(135,133,130)" stroke-width="1.51"/><path d="M6,338L-12,413L65,414Z" fill="rgb(156,142,142)" stroke="rgb(156,142,142)" stroke-width="1.51"/><path d="M514,913L738,876L602,883Z" fill="rgb(55,89,100)" stroke="rgb(55,89,100)" stroke-width="1.51"/><path d="M679,870L738,876L739,839Z" fill="rgb(44,85,96)" stroke="rgb(44,85,96)" stroke-width="1.51"/><path d="M739,839L806,878L807,803Z" fill="rgb(46,104,111)" stroke="rgb(46,104,111)" stroke-width="1.51"/><path d="M133,135L61,188L157,198Z" fill="rgb(105,100,102)" stroke="rgb(105,100,102)" stroke-width="1.51"/><path d="M53,162L61,188L133,135Z" fill="rgb(116,111,110)" stroke="rgb(116,111,110)" stroke-width="1.51"/><path d="M208,902L265,838L237,829Z" fill="rgb(93,125,122)" stroke="rgb(93,125,122)" stroke-width="1.51"/><path d="M340,883L278,911L438,912Z" fill="rgb(143,163,151)" stroke="rgb(143,163,151)" stroke-width="1.51"/><path d="M438,912L278,911L514,913Z" fill="rgb(119,144,140)" stroke="rgb(119,144,140)" stroke-width="1.51"/><path d="M867,216L873,152L833,229Z" fill="rgb(93,114,116)" stroke="rgb(93,114,116)" stroke-width="1.51"/><path d="M715,51L751,-30L646,5Z" fill="rgb(122,111,114)" stroke="rgb(122,111,114)" stroke-width="1.51"/><path d="M977,216L867,216L886,277Z" fill="rgb(120,138,134)" stroke="rgb(120,138,134)" stroke-width="1.51"/><path d="M982,565L907,504L864,564Z" fill="rgb(38,69,84)" stroke="rgb(38,69,84)" stroke-width="1.51"/><path d="M1061,376L988,294L934,344Z" fill="rgb(108,133,133)" stroke="rgb(108,133,133)" stroke-width="1.51"/><path d="M197,70L129,82L133,135Z" fill="rgb(87,87,91)" stroke="rgb(87,87,91)" stroke-width="1.51"/><path d="M382,-14L274,-12L282,55Z" fill="rgb(209,188,166)" stroke="rgb(209,188,166)" stroke-width="1.51"/><path d="M126,-20L129,82L197,70Z" fill="rgb(123,118,115)" stroke="rgb(123,118,115)" stroke-width="1.51"/><path d="M873,152L801,57L787,140Z" fill="rgb(60,82,92)" stroke="rgb(60,82,92)" stroke-width="1.51"/><path d="M10,709L58,752L87,649Z" fill="rgb(119,143,137)" stroke="rgb(119,143,137)" stroke-width="1.51"/><path d="M144,878L208,902L237,829Z" fill="rgb(73,109,110)" stroke="rgb(73,109,110)" stroke-width="1.51"/><path d="M911,681L982,565L864,564Z" fill="rgb(40,90,101)" stroke="rgb(40,90,101)" stroke-width="1.51"/><path d="M58,752L88,794L115,756Z" fill="rgb(104,135,130)" stroke="rgb(104,135,130)" stroke-width="1.51"/><path d="M911,681L960,683L982,565Z" fill="rgb(42,108,115)" stroke="rgb(42,108,115)" stroke-width="1.51"/><path d="M807,803L900,754L839,720Z" fill="rgb(43,117,122)" stroke="rgb(43,117,122)" stroke-width="1.51"/><path d="M877,833L900,754L807,803Z" fill="rgb(46,125,127)" stroke="rgb(46,125,127)" stroke-width="1.51"/><path d="M10,214L-7,279L38,293Z" fill="rgb(221,196,173)" stroke="rgb(221,196,173)" stroke-width="1.51"/><path d="M6,338L-83,361L-12,413Z" fill="rgb(176,160,153)" stroke="rgb(176,160,153)" stroke-width="1.51"/><path d="M10,214L38,293L61,188Z" fill="rgb(187,169,153)" stroke="rgb(187,169,153)" stroke-width="1.51"/><path d="M81,85L53,162L133,135Z" fill="rgb(100,97,99)" stroke="rgb(100,97,99)" stroke-width="1.51"/><path d="M-89,559L4,580L6,513Z" fill="rgb(128,117,118)" stroke="rgb(128,117,118)" stroke-width="1.51"/><path d="M4,580L-10,637L87,649Z" fill="rgb(124,132,130)" stroke="rgb(124,132,130)" stroke-width="1.51"/><path d="M144,878L237,829L145,808Z" fill="rgb(62,101,105)" stroke="rgb(62,101,105)" stroke-width="1.51"/><path d="M53,162L10,214L61,188Z" fill="rgb(156,144,134)" stroke="rgb(156,144,134)" stroke-width="1.51"/><path d="M274,-12L220,-6L282,55Z" fill="rgb(180,164,149)" stroke="rgb(180,164,149)" stroke-width="1.51"/><path d="M382,-14L360,-62L274,-12Z" fill="rgb(230,205,179)" stroke="rgb(230,205,179)" stroke-width="1.51"/><path d="M274,-12L221,-67L220,-6Z" fill="rgb(178,163,149)" stroke="rgb(178,163,149)" stroke-width="1.51"/><path d="M523,-91L461,15L512,0Z" fill="rgb(166,152,149)" stroke="rgb(166,152,149)" stroke-width="1.51"/><path d="M-10,637L10,709L87,649Z" fill="rgb(129,148,142)" stroke="rgb(129,148,142)" stroke-width="1.51"/><path d="M-8,823L71,884L88,794Z" fill="rgb(127,158,147)" stroke="rgb(127,158,147)" stroke-width="1.51"/><path d="M959,747L960,683L911,681Z" fill="rgb(44,120,125)" stroke="rgb(44,120,125)" stroke-width="1.51"/><path d="M738,876L806,878L739,839Z" fill="rgb(45,97,106)" stroke="rgb(45,97,106)" stroke-width="1.51"/><path d="M900,754L959,747L911,681Z" fill="rgb(44,122,125)" stroke="rgb(44,122,125)" stroke-width="1.51"/><path d="M877,896L806,878L738,876Z" fill="rgb(45,111,116)" stroke="rgb(45,111,116)" stroke-width="1.51"/><path d="M934,344L988,294L886,277Z" fill="rgb(121,141,137)" stroke="rgb(121,141,137)" stroke-width="1.51"/><path d="M865,47L798,9L801,57Z" fill="rgb(115,129,128)" stroke="rgb(115,129,128)" stroke-width="1.51"/><path d="M1061,376L934,344L938,416Z" fill="rgb(85,115,122)" stroke="rgb(85,115,122)" stroke-width="1.51"/><path d="M1024,511L938,416L975,528Z" fill="rgb(52,83,96)" stroke="rgb(52,83,96)" stroke-width="1.51"/><path d="M71,884L144,878L88,794Z" fill="rgb(98,132,128)" stroke="rgb(98,132,128)" stroke-width="1.51"/><path d="M88,794L144,878L145,808Z" fill="rgb(85,121,119)" stroke="rgb(85,121,119)" stroke-width="1.51"/><path d="M53,162L-28,129L10,214Z" fill="rgb(160,148,138)" stroke="rgb(160,148,138)" stroke-width="1.51"/><path d="M129,82L81,85L133,135Z" fill="rgb(104,101,102)" stroke="rgb(104,101,102)" stroke-width="1.51"/><path d="M86,-19L81,85L129,82Z" fill="rgb(149,140,132)" stroke="rgb(149,140,132)" stroke-width="1.51"/><path d="M806,878L877,833L807,803Z" fill="rgb(46,118,121)" stroke="rgb(46,118,121)" stroke-width="1.51"/><path d="M982,565L1024,511L975,528Z" fill="rgb(41,73,87)" stroke="rgb(41,73,87)" stroke-width="1.51"/><path d="M1050,563L1024,511L982,565Z" fill="rgb(43,80,91)" stroke="rgb(43,80,91)" stroke-width="1.51"/><path d="M606,-5L523,-91L512,0Z" fill="rgb(154,139,139)" stroke="rgb(154,139,139)" stroke-width="1.51"/><path d="M608,-80L523,-91L606,-5Z" fill="rgb(147,132,133)" stroke="rgb(147,132,133)" stroke-width="1.51"/><path d="M608,-80L606,-5L646,5Z" fill="rgb(138,123,125)" stroke="rgb(138,123,125)" stroke-width="1.51"/><path d="M801,57L798,9L715,51Z" fill="rgb(109,114,116)" stroke="rgb(109,114,116)" stroke-width="1.51"/><path d="M865,47L801,57L873,152Z" fill="rgb(84,108,112)" stroke="rgb(84,108,112)" stroke-width="1.51"/><path d="M672,-75L608,-80L646,5Z" fill="rgb(134,118,121)" stroke="rgb(134,118,121)" stroke-width="1.51"/><path d="M988,294L977,216L886,277Z" fill="rgb(139,156,147)" stroke="rgb(139,156,147)" stroke-width="1.51"/><path d="M1052,260L977,216L988,294Z" fill="rgb(140,160,148)" stroke="rgb(140,160,148)" stroke-width="1.51"/><path d="M798,9L751,-30L715,51Z" fill="rgb(127,126,125)" stroke="rgb(127,126,125)" stroke-width="1.51"/><path d="M1049,641L1050,563L982,565Z" fill="rgb(45,96,104)" stroke="rgb(45,96,104)" stroke-width="1.51"/><path d="M974,785L959,747L900,754Z" fill="rgb(48,128,130)" stroke="rgb(48,128,130)" stroke-width="1.51"/><path d="M811,-89L736,-80L751,-30Z" fill="rgb(135,136,133)" stroke="rgb(135,136,133)" stroke-width="1.51"/><path d="M947,50L865,47L873,152Z" fill="rgb(89,116,117)" stroke="rgb(89,116,117)" stroke-width="1.51"/><path d="M751,-30L672,-75L646,5Z" fill="rgb(126,112,115)" stroke="rgb(126,112,115)" stroke-width="1.51"/><path d="M608,-80L736,-80L523,-91Z" fill="rgb(138,123,124)" stroke="rgb(138,123,124)" stroke-width="1.51"/><path d="M272,-108L221,-67L274,-12Z" fill="rgb(187,170,154)" stroke="rgb(187,170,154)" stroke-width="1.51"/><path d="M523,-91L415,-107L461,15Z" fill="rgb(179,163,155)" stroke="rgb(179,163,155)" stroke-width="1.51"/><path d="M811,-89L415,-107L523,-91Z" fill="rgb(146,132,132)" stroke="rgb(146,132,132)" stroke-width="1.51"/><path d="M-104,506L-89,559L6,513Z" fill="rgb(127,112,115)" stroke="rgb(127,112,115)" stroke-width="1.51"/><path d="M-7,279L-83,361L6,338Z" fill="rgb(200,180,165)" stroke="rgb(200,180,165)" stroke-width="1.51"/><path d="M-108,265L-83,361L-7,279Z" fill="rgb(213,191,171)" stroke="rgb(213,191,171)" stroke-width="1.51"/><path d="M-108,265L-7,279L-112,232Z" fill="rgb(226,202,177)" stroke="rgb(226,202,177)" stroke-width="1.51"/><path d="M-99,441L6,513L-12,413Z" fill="rgb(146,132,132)" stroke="rgb(146,132,132)" stroke-width="1.51"/><path d="M-10,637L-116,671L10,709Z" fill="rgb(146,164,154)" stroke="rgb(146,164,154)" stroke-width="1.51"/><path d="M-83,361L-99,441L-12,413Z" fill="rgb(160,145,145)" stroke="rgb(160,145,145)" stroke-width="1.51"/><path d="M1024,511L1059,456L938,416Z" fill="rgb(59,92,104)" stroke="rgb(59,92,104)" stroke-width="1.51"/><path d="M1102,514L1059,456L1024,511Z" fill="rgb(52,86,97)" stroke="rgb(52,86,97)" stroke-width="1.51"/><path d="M1049,641L982,565L960,683Z" fill="rgb(44,107,114)" stroke="rgb(44,107,114)" stroke-width="1.51"/><path d="M220,-6L126,-20L197,70Z" fill="rgb(138,131,125)" stroke="rgb(138,131,125)" stroke-width="1.51"/><path d="M272,-108L274,-12L360,-62Z" fill="rgb(211,189,168)" stroke="rgb(211,189,168)" stroke-width="1.51"/><path d="M-99,441L-104,506L6,513Z" fill="rgb(138,123,124)" stroke="rgb(138,123,124)" stroke-width="1.51"/><path d="M977,216L975,144L873,152Z" fill="rgb(80,109,111)" stroke="rgb(80,109,111)" stroke-width="1.51"/><path d="M1036,211L975,144L977,216Z" fill="rgb(96,125,122)" stroke="rgb(96,125,122)" stroke-width="1.51"/><path d="M1059,456L1061,376L938,416Z" fill="rgb(72,106,115)" stroke="rgb(72,106,115)" stroke-width="1.51"/><path d="M144,878L71,884L208,902Z" fill="rgb(76,113,113)" stroke="rgb(76,113,113)" stroke-width="1.51"/><path d="M-8,823L88,794L58,752Z" fill="rgb(129,158,147)" stroke="rgb(129,158,147)" stroke-width="1.51"/><path d="M-8,823L58,752L10,709Z" fill="rgb(142,167,154)" stroke="rgb(142,167,154)" stroke-width="1.51"/><path d="M147,-77L126,-20L220,-6Z" fill="rgb(147,139,131)" stroke="rgb(147,139,131)" stroke-width="1.51"/><path d="M81,85L-28,129L53,162Z" fill="rgb(130,124,120)" stroke="rgb(130,124,120)" stroke-width="1.51"/><path d="M806,878L877,896L877,833Z" fill="rgb(45,124,127)" stroke="rgb(45,124,127)" stroke-width="1.51"/><path d="M877,833L974,785L900,754Z" fill="rgb(48,130,130)" stroke="rgb(48,130,130)" stroke-width="1.51"/><path d="M514,913L877,896L738,876Z" fill="rgb(44,83,94)" stroke="rgb(44,83,94)" stroke-width="1.51"/><path d="M1040,730L1049,641L960,683Z" fill="rgb(46,126,128)" stroke="rgb(46,126,128)" stroke-width="1.51"/><path d="M944,862L974,785L877,833Z" fill="rgb(49,133,132)" stroke="rgb(49,133,132)" stroke-width="1.51"/><path d="M672,-75L736,-80L608,-80Z" fill="rgb(127,112,115)" stroke="rgb(127,112,115)" stroke-width="1.51"/><path d="M751,-30L736,-80L672,-75Z" fill="rgb(130,121,122)" stroke="rgb(130,121,122)" stroke-width="1.51"/><path d="M811,-89L751,-30L798,9Z" fill="rgb(138,142,137)" stroke="rgb(138,142,137)" stroke-width="1.51"/><path d="M811,-89L798,9L893,-38Z" fill="rgb(143,157,149)" stroke="rgb(143,157,149)" stroke-width="1.51"/><path d="M1050,563L1102,514L1024,511Z" fill="rgb(43,76,89)" stroke="rgb(43,76,89)" stroke-width="1.51"/><path d="M1040,730L960,683L959,747Z" fill="rgb(47,128,129)" stroke="rgb(47,128,129)" stroke-width="1.51"/><path d="M147,-77L86,-19L126,-20Z" fill="rgb(172,161,147)" stroke="rgb(172,161,147)" stroke-width="1.51"/><path d="M415,-107L272,-108L360,-62Z" fill="rgb(229,204,179)" stroke="rgb(229,204,179)" stroke-width="1.51"/><path d="M-10,60L-28,129L81,85Z" fill="rgb(166,155,143)" stroke="rgb(166,155,143)" stroke-width="1.51"/><path d="M1061,376L1052,260L988,294Z" fill="rgb(124,148,142)" stroke="rgb(124,148,142)" stroke-width="1.51"/><path d="M-81,816L-8,823L10,709Z" fill="rgb(155,180,164)" stroke="rgb(155,180,164)" stroke-width="1.51"/><path d="M1052,260L1036,211L977,216Z" fill="rgb(122,147,139)" stroke="rgb(122,147,139)" stroke-width="1.51"/><path d="M126,-20L86,-19L129,82Z" fill="rgb(166,155,143)" stroke="rgb(166,155,143)" stroke-width="1.51"/><path d="M147,-77L220,-6L221,-67Z" fill="rgb(156,146,136)" stroke="rgb(156,146,136)" stroke-width="1.51"/><path d="M-99,441L-108,265L-104,506Z" fill="rgb(160,146,145)" stroke="rgb(160,146,145)" stroke-width="1.51"/><path d="M-83,361L-108,265L-99,441Z" fill="rgb(184,166,157)" stroke="rgb(184,166,157)" stroke-width="1.51"/><path d="M-112,232L-7,279L10,214Z" fill="rgb(215,193,170)" stroke="rgb(215,193,170)" stroke-width="1.51"/><path d="M974,785L1040,730L959,747Z" fill="rgb(50,133,132)" stroke="rgb(50,133,132)" stroke-width="1.51"/><path d="M877,896L944,862L877,833Z" fill="rgb(48,129,130)" stroke="rgb(48,129,130)" stroke-width="1.51"/><path d="M1033,77L947,50L975,144Z" fill="rgb(88,121,120)" stroke="rgb(88,121,120)" stroke-width="1.51"/><path d="M975,144L947,50L873,152Z" fill="rgb(67,100,105)" stroke="rgb(67,100,105)" stroke-width="1.51"/><path d="M-28,129L-65,151L10,214Z" fill="rgb(164,152,140)" stroke="rgb(164,152,140)" stroke-width="1.51"/><path d="M-69,52L-65,151L-28,129Z" fill="rgb(160,150,139)" stroke="rgb(160,150,139)" stroke-width="1.51"/><path d="M1019,808L1040,730L974,785Z" fill="rgb(52,138,135)" stroke="rgb(52,138,135)" stroke-width="1.51"/><path d="M1097,606L1102,514L1050,563Z" fill="rgb(44,85,96)" stroke="rgb(44,85,96)" stroke-width="1.51"/><path d="M1059,456L1112,413L1061,376Z" fill="rgb(73,106,116)" stroke="rgb(73,106,116)" stroke-width="1.51"/><path d="M1061,376L1118,342L1052,260Z" fill="rgb(116,141,138)" stroke="rgb(116,141,138)" stroke-width="1.51"/><path d="M1097,606L1050,563L1049,641Z" fill="rgb(45,101,108)" stroke="rgb(45,101,108)" stroke-width="1.51"/><path d="M272,-108L147,-77L221,-67Z" fill="rgb(165,153,141)" stroke="rgb(165,153,141)" stroke-width="1.51"/><path d="M-69,52L-10,60L-32,-35Z" fill="rgb(223,205,180)" stroke="rgb(223,205,180)" stroke-width="1.51"/><path d="M86,-19L-10,60L81,85Z" fill="rgb(180,168,152)" stroke="rgb(180,168,152)" stroke-width="1.51"/><path d="M-65,151L-112,232L10,214Z" fill="rgb(187,170,154)" stroke="rgb(187,170,154)" stroke-width="1.51"/><path d="M-108,265L-112,232L-104,506Z" fill="rgb(196,176,163)" stroke="rgb(196,176,163)" stroke-width="1.51"/><path d="M-112,232L-116,671L-104,506Z" fill="rgb(142,128,129)" stroke="rgb(142,128,129)" stroke-width="1.51"/><path d="M-104,506L-116,671L-89,559Z" fill="rgb(133,128,127)" stroke="rgb(133,128,127)" stroke-width="1.51"/><path d="M-89,559L-116,671L-10,637Z" fill="rgb(139,145,140)" stroke="rgb(139,145,140)" stroke-width="1.51"/><path d="M-81,816L7,882L-8,823Z" fill="rgb(156,183,166)" stroke="rgb(156,183,166)" stroke-width="1.51"/><path d="M-8,823L7,882L71,884Z" fill="rgb(143,171,157)" stroke="rgb(143,171,157)" stroke-width="1.51"/><path d="M71,884L7,882L208,902Z" fill="rgb(102,135,130)" stroke="rgb(102,135,130)" stroke-width="1.51"/><path d="M208,902L7,882L278,911Z" fill="rgb(63,102,105)" stroke="rgb(63,102,105)" stroke-width="1.51"/><path d="M1102,514L1112,413L1059,456Z" fill="rgb(61,94,105)" stroke="rgb(61,94,105)" stroke-width="1.51"/><path d="M1130,215L1058,161L1036,211Z" fill="rgb(100,130,126)" stroke="rgb(100,130,126)" stroke-width="1.51"/><path d="M1102,514L1127,760L1112,413Z" fill="rgb(44,86,96)" stroke="rgb(44,86,96)" stroke-width="1.51"/><path d="M1097,659L1097,606L1049,641Z" fill="rgb(45,112,118)" stroke="rgb(45,112,118)" stroke-width="1.51"/><path d="M736,-80L811,-89L523,-91Z" fill="rgb(126,112,115)" stroke="rgb(126,112,115)" stroke-width="1.51"/><path d="M893,-38L798,9L865,47Z" fill="rgb(141,159,150)" stroke="rgb(141,159,150)" stroke-width="1.51"/><path d="M947,50L944,11L865,47Z" fill="rgb(123,148,141)" stroke="rgb(123,148,141)" stroke-width="1.51"/><path d="M1056,14L944,11L947,50Z" fill="rgb(136,162,150)" stroke="rgb(136,162,150)" stroke-width="1.51"/><path d="M1040,730L1097,659L1049,641Z" fill="rgb(46,126,128)" stroke="rgb(46,126,128)" stroke-width="1.51"/><path d="M944,862L1019,808L974,785Z" fill="rgb(52,138,136)" stroke="rgb(52,138,136)" stroke-width="1.51"/><path d="M944,11L893,-38L865,47Z" fill="rgb(144,164,154)" stroke="rgb(144,164,154)" stroke-width="1.51"/><path d="M1112,413L1118,342L1061,376Z" fill="rgb(89,120,125)" stroke="rgb(89,120,125)" stroke-width="1.51"/><path d="M1036,211L1058,161L975,144Z" fill="rgb(85,118,117)" stroke="rgb(85,118,117)" stroke-width="1.51"/><path d="M1127,760L1118,342L1112,413Z" fill="rgb(50,83,94)" stroke="rgb(50,83,94)" stroke-width="1.51"/><path d="M1130,215L1036,211L1052,260Z" fill="rgb(122,147,139)" stroke="rgb(122,147,139)" stroke-width="1.51"/><path d="M1097,606L1127,760L1102,514Z" fill="rgb(46,109,115)" stroke="rgb(46,109,115)" stroke-width="1.51"/><path d="M1127,760L1097,659L1040,730Z" fill="rgb(49,131,131)" stroke="rgb(49,131,131)" stroke-width="1.51"/><path d="M-116,671L-112,753L10,709Z" fill="rgb(149,170,158)" stroke="rgb(149,170,158)" stroke-width="1.51"/><path d="M-112,753L-81,816L10,709Z" fill="rgb(153,177,162)" stroke="rgb(153,177,162)" stroke-width="1.51"/><path d="M1118,342L1118,262L1052,260Z" fill="rgb(136,158,148)" stroke="rgb(136,158,148)" stroke-width="1.51"/><path d="M1058,161L1033,77L975,144Z" fill="rgb(64,103,106)" stroke="rgb(64,103,106)" stroke-width="1.51"/><path d="M961,-89L886,-95L893,-38Z" fill="rgb(149,170,157)" stroke="rgb(149,170,157)" stroke-width="1.51"/><path d="M1110,113L1033,77L1058,161Z" fill="rgb(71,109,110)" stroke="rgb(71,109,110)" stroke-width="1.51"/><path d="M-32,-35L-10,60L86,-19Z" fill="rgb(232,213,186)" stroke="rgb(232,213,186)" stroke-width="1.51"/><path d="M-10,60L-69,52L-28,129Z" fill="rgb(182,170,154)" stroke="rgb(182,170,154)" stroke-width="1.51"/><path d="M-65,151L-69,52L-112,232Z" fill="rgb(151,141,133)" stroke="rgb(151,141,133)" stroke-width="1.51"/><path d="M893,-38L886,-95L811,-89Z" fill="rgb(146,164,154)" stroke="rgb(146,164,154)" stroke-width="1.51"/><path d="M811,-89L886,-95L415,-107Z" fill="rgb(128,116,118)" stroke="rgb(128,116,118)" stroke-width="1.51"/><path d="M961,-89L893,-38L944,11Z" fill="rgb(151,172,159)" stroke="rgb(151,172,159)" stroke-width="1.51"/><path d="M147,-77L43,-75L86,-19Z" fill="rgb(188,175,158)" stroke="rgb(188,175,158)" stroke-width="1.51"/><path d="M-16,-107L43,-75L147,-77Z" fill="rgb(209,193,171)" stroke="rgb(209,193,171)" stroke-width="1.51"/><path d="M1127,760L1130,215L1118,342Z" fill="rgb(66,100,110)" stroke="rgb(66,100,110)" stroke-width="1.51"/><path d="M1118,342L1130,215L1118,262Z" fill="rgb(144,164,152)" stroke="rgb(144,164,152)" stroke-width="1.51"/><path d="M1118,262L1130,215L1052,260Z" fill="rgb(133,156,146)" stroke="rgb(133,156,146)" stroke-width="1.51"/><path d="M43,-75L-32,-35L86,-19Z" fill="rgb(223,206,180)" stroke="rgb(223,206,180)" stroke-width="1.51"/><path d="M1019,808L1089,816L1040,730Z" fill="rgb(53,141,137)" stroke="rgb(53,141,137)" stroke-width="1.51"/><path d="M1097,659L1127,760L1097,606Z" fill="rgb(46,125,127)" stroke="rgb(46,125,127)" stroke-width="1.51"/><path d="M1064,886L1089,816L1019,808Z" fill="rgb(54,143,139)" stroke="rgb(54,143,139)" stroke-width="1.51"/><path d="M1064,886L1019,808L944,862Z" fill="rgb(53,141,138)" stroke="rgb(53,141,138)" stroke-width="1.51"/><path d="M-112,753L-107,859L-81,816Z" fill="rgb(156,183,166)" stroke="rgb(156,183,166)" stroke-width="1.51"/><path d="M-81,816L-107,859L7,882Z" fill="rgb(156,183,166)" stroke="rgb(156,183,166)" stroke-width="1.51"/><path d="M-116,671L-107,859L-112,753Z" fill="rgb(153,177,162)" stroke="rgb(153,177,162)" stroke-width="1.51"/><path d="M1089,816L1127,760L1040,730Z" fill="rgb(52,138,136)" stroke="rgb(52,138,136)" stroke-width="1.51"/><path d="M1130,215L1110,113L1058,161Z" fill="rgb(79,114,114)" stroke="rgb(79,114,114)" stroke-width="1.51"/><path d="M1033,77L1056,14L947,50Z" fill="rgb(121,151,142)" stroke="rgb(121,151,142)" stroke-width="1.51"/><path d="M1089,816L1091,893L1127,760Z" fill="rgb(54,143,139)" stroke="rgb(54,143,139)" stroke-width="1.51"/><path d="M877,896L1064,886L944,862Z" fill="rgb(51,136,134)" stroke="rgb(51,136,134)" stroke-width="1.51"/><path d="M1125,80L1056,14L1033,77Z" fill="rgb(115,146,139)" stroke="rgb(115,146,139)" stroke-width="1.51"/><path d="M1048,-75L961,-89L944,11Z" fill="rgb(154,178,163)" stroke="rgb(154,178,163)" stroke-width="1.51"/><path d="M1056,14L1048,-75L944,11Z" fill="rgb(156,182,165)" stroke="rgb(156,182,165)" stroke-width="1.51"/><path d="M1110,113L1125,80L1033,77Z" fill="rgb(91,125,123)" stroke="rgb(91,125,123)" stroke-width="1.51"/><path d="M1130,215L1125,80L1110,113Z" fill="rgb(61,100,104)" stroke="rgb(61,100,104)" stroke-width="1.51"/><path d="M43,-75L-16,-107L-32,-35Z" fill="rgb(243,223,193)" stroke="rgb(243,223,193)" stroke-width="1.51"/><path d="M-32,-35L-86,-38L-69,52Z" fill="rgb(243,223,193)" stroke="rgb(243,223,193)" stroke-width="1.51"/><path d="M272,-108L-16,-107L147,-77Z" fill="rgb(164,154,142)" stroke="rgb(164,154,142)" stroke-width="1.51"/><path d="M-88,-114L-86,-38L-32,-35Z" fill="rgb(243,223,193)" stroke="rgb(243,223,193)" stroke-width="1.51"/><path d="M-69,52L-86,-38L-112,232Z" fill="rgb(181,168,153)" stroke="rgb(181,168,153)" stroke-width="1.51"/><path d="M1064,886L1091,893L1089,816Z" fill="rgb(54,143,139)" stroke="rgb(54,143,139)" stroke-width="1.51"/><path d="M877,896L1091,893L1064,886Z" fill="rgb(54,141,138)" stroke="rgb(54,141,138)" stroke-width="1.51"/><path d="M514,913L1091,893L877,896Z" fill="rgb(46,116,121)" stroke="rgb(46,116,121)" stroke-width="1.51"/><path d="M1102,-39L1048,-75L1056,14Z" fill="rgb(156,183,166)" stroke="rgb(156,183,166)" stroke-width="1.51"/><path d="M1125,80L1102,-39L1056,14Z" fill="rgb(143,171,157)" stroke="rgb(143,171,157)" stroke-width="1.51"/><path d="M-16,-107L-88,-114L-32,-35Z" fill="rgb(243,223,193)" stroke="rgb(243,223,193)" stroke-width="1.51"/><path d="M-86,-38L-88,-114L-112,232Z" fill="rgb(222,205,180)" stroke="rgb(222,205,180)" stroke-width="1.51"/><path d="M272,-108L-88,-114L-16,-107Z" fill="rgb(210,194,171)" stroke="rgb(210,194,171)" stroke-width="1.51"/><path d="M415,-107L-88,-114L272,-108Z" fill="rgb(158,147,137)" stroke="rgb(158,147,137)" stroke-width="1.51"/><path d="M1125,80L1099,-90L1102,-39Z" fill="rgb(156,183,166)" stroke="rgb(156,183,166)" stroke-width="1.51"/><path d="M1102,-39L1099,-90L1048,-75Z" fill="rgb(156,183,166)" stroke="rgb(156,183,166)" stroke-width="1.51"/><path d="M1048,-75L1099,-90L961,-89Z" fill="rgb(156,183,166)" stroke="rgb(156,183,166)" stroke-width="1.51"/><path d="M961,-89L1099,-90L886,-95Z" fill="rgb(154,178,163)" stroke="rgb(154,178,163)" stroke-width="1.51"/><path d="M886,-95L1099,-90L415,-107Z" fill="rgb(140,146,141)" stroke="rgb(140,146,141)" stroke-width="1.51"/></svg>