<svg xmlns="http://www.w3.org/2000/svg" width="480" height="700"><path d="M255,352L256,271L223,325Z" fill="rgb(58,140,137)" stroke="rgb(58,140,137)" stroke-width="1.51"/><path d="M256,271L207,278L223,325Z" fill="rgb(50,134,134)" stroke="rgb(50,134,134)" stroke-width="1.51"/><path d="M255,352L345,294L256,271Z" fill="rgb(93,147,141)" stroke="rgb(93,147,141)" stroke-width="1.51"/><path d="M255,352L359,349L345,294Z" fill="rgb(119,157,147)" stroke="rgb(119,157,147)" stroke-width="1.51"/><path d="M255,352L301,410L359,349Z" fill="rgb(120,159,148)" stroke="rgb(120,159,148)" stroke-width="1.51"/><path d="M202,424L301,410L255,352Z" fill="rgb(94,152,144)" stroke="rgb(94,152,144)" stroke-width="1.51"/><path d="M345,294L288,200L256,271Z" fill="rgb(98,144,139)" stroke="rgb(98,144,139)" stroke-width="1.51"/><path d="M256,271L179,215L207,278Z" fill="rgb(47,129,130)" stroke="rgb(47,129,130)" stroke-width="1.51"/><path d="M223,325L202,424L255,352Z" fill="rgb(65,143,139)" stroke="rgb(65,143,139)" stroke-width="1.51"/><path d="M207,278L147,335L223,325Z" fill="rgb(49,131,131)" stroke="rgb(49,131,131)" stroke-width="1.51"/><path d="M125,252L147,335L207,278Z" fill="rgb(45,124,126)" stroke="rgb(45,124,126)" stroke-width="1.51"/><path d="M288,200L179,215L256,271Z" fill="rgb(49,130,130)" stroke="rgb(49,130,130)" stroke-width="1.51"/><path d="M147,335L202,424L223,325Z" fill="rgb(59,137,135)" stroke="rgb(59,137,135)" stroke-width="1.51"/><path d="M179,215L125,252L207,278Z" fill="rgb(44,121,125)" stroke="rgb(44,121,125)" stroke-width="1.51"/><path d="M345,294L377,175L288,200Z" fill="rgb(124,148,142)" stroke="rgb(124,148,142)" stroke-width="1.51"/><path d="M359,349L422,287L345,294Z" fill="rgb(146,164,152)" stroke="rgb(146,164,152)" stroke-width="1.51"/><path d="M436,364L422,287L359,349Z" fill="rgb(149,171,157)" stroke="rgb(149,171,157)" stroke-width="1.51"/><path d="M301,410L363,448L359,349Z" fill="rgb(158,171,155)" stroke="rgb(158,171,155)" stroke-width="1.51"/><path d="M340,507L363,448L301,410Z" fill="rgb(176,177,159)" stroke="rgb(176,177,159)" stroke-width="1.51"/><path d="M202,424L221,480L301,410Z" fill="rgb(108,156,146)" stroke="rgb(108,156,146)" stroke-width="1.51"/><path d="M145,508L221,480L202,424Z" fill="rgb(118,152,144)" stroke="rgb(118,152,144)" stroke-width="1.51"/><path d="M363,448L405,415L359,349Z" fill="rgb(172,176,159)" stroke="rgb(172,176,159)" stroke-width="1.51"/><path d="M179,215L119,206L125,252Z" fill="rgb(40,114,120)" stroke="rgb(40,114,120)" stroke-width="1.51"/><path d="M154,134L119,206L179,215Z" fill="rgb(39,111,118)" stroke="rgb(39,111,118)" stroke-width="1.51"/><path d="M422,287L377,175L345,294Z" fill="rgb(143,159,148)" stroke="rgb(143,159,148)" stroke-width="1.51"/><path d="M288,200L208,110L179,215Z" fill="rgb(44,122,125)" stroke="rgb(44,122,125)" stroke-width="1.51"/><path d="M405,415L436,364L359,349Z" fill="rgb(162,176,159)" stroke="rgb(162,176,159)" stroke-width="1.51"/><path d="M329,109L281,129L288,200Z" fill="rgb(94,127,127)" stroke="rgb(94,127,127)" stroke-width="1.51"/><path d="M147,335L121,432L202,424Z" fill="rgb(79,136,134)" stroke="rgb(79,136,134)" stroke-width="1.51"/><path d="M65,349L121,432L147,335Z" fill="rgb(60,124,126)" stroke="rgb(60,124,126)" stroke-width="1.51"/><path d="M65,349L147,335L125,252Z" fill="rgb(43,117,122)" stroke="rgb(43,117,122)" stroke-width="1.51"/><path d="M221,480L265,510L301,410Z" fill="rgb(135,164,151)" stroke="rgb(135,164,151)" stroke-width="1.51"/><path d="M186,556L265,510L221,480Z" fill="rgb(142,163,151)" stroke="rgb(142,163,151)" stroke-width="1.51"/><path d="M26,290L65,349L125,252Z" fill="rgb(43,99,108)" stroke="rgb(43,99,108)" stroke-width="1.51"/><path d="M119,206L76,227L125,252Z" fill="rgb(40,106,114)" stroke="rgb(40,106,114)" stroke-width="1.51"/><path d="M119,206L66,96L76,227Z" fill="rgb(36,93,104)" stroke="rgb(36,93,104)" stroke-width="1.51"/><path d="M208,110L154,134L179,215Z" fill="rgb(41,109,116)" stroke="rgb(41,109,116)" stroke-width="1.51"/><path d="M281,129L208,110L288,200Z" fill="rgb(64,120,123)" stroke="rgb(64,120,123)" stroke-width="1.51"/><path d="M265,510L340,507L301,410Z" fill="rgb(165,173,157)" stroke="rgb(165,173,157)" stroke-width="1.51"/><path d="M363,448L432,509L405,415Z" fill="rgb(196,186,166)" stroke="rgb(196,186,166)" stroke-width="1.51"/><path d="M281,129L293,49L208,110Z" fill="rgb(63,105,111)" stroke="rgb(63,105,111)" stroke-width="1.51"/><path d="M377,175L329,109L288,200Z" fill="rgb(116,138,135)" stroke="rgb(116,138,135)" stroke-width="1.51"/><path d="M436,364L483,359L422,287Z" fill="rgb(153,177,161)" stroke="rgb(153,177,161)" stroke-width="1.51"/><path d="M422,287L449,177L377,175Z" fill="rgb(143,159,150)" stroke="rgb(143,159,150)" stroke-width="1.51"/><path d="M491,399L483,359L436,364Z" fill="rgb(167,185,167)" stroke="rgb(167,185,167)" stroke-width="1.51"/><path d="M491,399L436,364L405,415Z" fill="rgb(172,184,165)" stroke="rgb(172,184,165)" stroke-width="1.51"/><path d="M121,432L145,508L202,424Z" fill="rgb(108,144,139)" stroke="rgb(108,144,139)" stroke-width="1.51"/><path d="M51,499L145,508L121,432Z" fill="rgb(114,135,133)" stroke="rgb(114,135,133)" stroke-width="1.51"/><path d="M377,175L439,152L329,109Z" fill="rgb(135,142,136)" stroke="rgb(135,142,136)" stroke-width="1.51"/><path d="M529,251L449,177L422,287Z" fill="rgb(149,168,157)" stroke="rgb(149,168,157)" stroke-width="1.51"/><path d="M76,227L26,290L125,252Z" fill="rgb(41,96,106)" stroke="rgb(41,96,106)" stroke-width="1.51"/><path d="M65,349L26,436L121,432Z" fill="rgb(76,111,115)" stroke="rgb(76,111,115)" stroke-width="1.51"/><path d="M449,177L439,152L377,175Z" fill="rgb(140,153,146)" stroke="rgb(140,153,146)" stroke-width="1.51"/><path d="M483,359L529,251L422,287Z" fill="rgb(153,177,162)" stroke="rgb(153,177,162)" stroke-width="1.51"/><path d="M432,509L491,399L405,415Z" fill="rgb(193,190,169)" stroke="rgb(193,190,169)" stroke-width="1.51"/><path d="M145,508L186,556L221,480Z" fill="rgb(137,156,147)" stroke="rgb(137,156,147)" stroke-width="1.51"/><path d="M265,510L324,566L340,507Z" fill="rgb(190,181,162)" stroke="rgb(190,181,162)" stroke-width="1.51"/><path d="M340,507L432,509L363,448Z" fill="rgb(207,187,167)" stroke="rgb(207,187,167)" stroke-width="1.51"/><path d="M324,566L432,509L340,507Z" fill="rgb(221,190,168)" stroke="rgb(221,190,168)" stroke-width="1.51"/><path d="M286,595L324,566L265,510Z" fill="rgb(181,180,162)" stroke="rgb(181,180,162)" stroke-width="1.51"/><path d="M329,109L293,49L281,129Z" fill="rgb(91,113,116)" stroke="rgb(91,113,116)" stroke-width="1.51"/><path d="M208,110L147,72L154,134Z" fill="rgb(40,94,104)" stroke="rgb(40,94,104)" stroke-width="1.51"/><path d="M328,41L293,49L329,109Z" fill="rgb(98,108,111)" stroke="rgb(98,108,111)" stroke-width="1.51"/><path d="M223,36L147,72L208,110Z" fill="rgb(41,88,99)" stroke="rgb(41,88,99)" stroke-width="1.51"/><path d="M-6,152L-9,221L76,227Z" fill="rgb(37,69,85)" stroke="rgb(37,69,85)" stroke-width="1.51"/><path d="M76,227L-9,221L26,290Z" fill="rgb(39,78,91)" stroke="rgb(39,78,91)" stroke-width="1.51"/><path d="M145,508L136,564L186,556Z" fill="rgb(140,155,146)" stroke="rgb(140,155,146)" stroke-width="1.51"/><path d="M3,442L26,436L-37,329Z" fill="rgb(67,82,92)" stroke="rgb(67,82,92)" stroke-width="1.51"/><path d="M584,327L529,251L483,359Z" fill="rgb(154,179,163)" stroke="rgb(154,179,163)" stroke-width="1.51"/><path d="M449,177L506,178L439,152Z" fill="rgb(143,159,150)" stroke="rgb(143,159,150)" stroke-width="1.51"/><path d="M293,49L223,36L208,110Z" fill="rgb(46,93,102)" stroke="rgb(46,93,102)" stroke-width="1.51"/><path d="M411,40L328,41L329,109Z" fill="rgb(121,114,115)" stroke="rgb(121,114,115)" stroke-width="1.51"/><path d="M529,251L506,178L449,177Z" fill="rgb(147,166,155)" stroke="rgb(147,166,155)" stroke-width="1.51"/><path d="M293,49L230,-26L223,36Z" fill="rgb(50,82,93)" stroke="rgb(50,82,93)" stroke-width="1.51"/><path d="M411,40L329,109L439,152Z" fill="rgb(130,129,127)" stroke="rgb(130,129,127)" stroke-width="1.51"/><path d="M186,556L286,595L265,510Z" fill="rgb(153,171,156)" stroke="rgb(153,171,156)" stroke-width="1.51"/><path d="M51,499L136,564L145,508Z" fill="rgb(134,143,138)" stroke="rgb(134,143,138)" stroke-width="1.51"/><path d="M26,436L51,499L121,432Z" fill="rgb(98,115,117)" stroke="rgb(98,115,117)" stroke-width="1.51"/><path d="M478,574L481,524L432,509Z" fill="rgb(231,205,180)" stroke="rgb(231,205,180)" stroke-width="1.51"/><path d="M230,627L286,595L186,556Z" fill="rgb(150,172,158)" stroke="rgb(150,172,158)" stroke-width="1.51"/><path d="M26,290L-37,329L65,349Z" fill="rgb(42,80,91)" stroke="rgb(42,80,91)" stroke-width="1.51"/><path d="M66,96L119,206L154,134Z" fill="rgb(37,95,106)" stroke="rgb(37,95,106)" stroke-width="1.51"/><path d="M-9,221L-24,301L26,290Z" fill="rgb(39,68,83)" stroke="rgb(39,68,83)" stroke-width="1.51"/><path d="M26,436L3,442L51,499Z" fill="rgb(94,99,105)" stroke="rgb(94,99,105)" stroke-width="1.51"/><path d="M-37,329L26,436L65,349Z" fill="rgb(55,85,95)" stroke="rgb(55,85,95)" stroke-width="1.51"/><path d="M147,72L66,96L154,134Z" fill="rgb(37,86,98)" stroke="rgb(37,86,98)" stroke-width="1.51"/><path d="M54,53L66,96L147,72Z" fill="rgb(34,66,83)" stroke="rgb(34,66,83)" stroke-width="1.51"/><path d="M-24,301L-37,329L26,290Z" fill="rgb(41,72,85)" stroke="rgb(41,72,85)" stroke-width="1.51"/><path d="M-96,353L-37,329L-111,300Z" fill="rgb(42,73,86)" stroke="rgb(42,73,86)" stroke-width="1.51"/><path d="M432,509L481,524L491,399Z" fill="rgb(211,199,175)" stroke="rgb(211,199,175)" stroke-width="1.51"/><path d="M491,399L584,327L483,359Z" fill="rgb(162,184,167)" stroke="rgb(162,184,167)" stroke-width="1.51"/><path d="M478,574L432,509L446,602Z" fill="rgb(232,206,180)" stroke="rgb(232,206,180)" stroke-width="1.51"/><path d="M510,124L411,40L439,152Z" fill="rgb(136,138,134)" stroke="rgb(136,138,134)" stroke-width="1.51"/><path d="M296,-29L230,-26L293,49Z" fill="rgb(66,81,92)" stroke="rgb(66,81,92)" stroke-width="1.51"/><path d="M506,178L510,124L439,152Z" fill="rgb(143,156,148)" stroke="rgb(143,156,148)" stroke-width="1.51"/><path d="M604,109L510,124L506,178Z" fill="rgb(141,151,144)" stroke="rgb(141,151,144)" stroke-width="1.51"/><path d="M66,96L-6,152L76,227Z" fill="rgb(35,72,87)" stroke="rgb(35,72,87)" stroke-width="1.51"/><path d="M-111,300L-37,329L-24,301Z" fill="rgb(41,72,85)" stroke="rgb(41,72,85)" stroke-width="1.51"/><path d="M136,564L230,627L186,556Z" fill="rgb(145,163,152)" stroke="rgb(145,163,152)" stroke-width="1.51"/><path d="M286,595L335,636L324,566Z" fill="rgb(198,188,167)" stroke="rgb(198,188,167)" stroke-width="1.51"/><path d="M593,402L584,327L491,399Z" fill="rgb(168,186,168)" stroke="rgb(168,186,168)" stroke-width="1.51"/><path d="M529,251L596,221L506,178Z" fill="rgb(148,168,156)" stroke="rgb(148,168,156)" stroke-width="1.51"/><path d="M3,442L-19,474L51,499Z" fill="rgb(97,94,101)" stroke="rgb(97,94,101)" stroke-width="1.51"/><path d="M51,499L30,547L136,564Z" fill="rgb(129,127,126)" stroke="rgb(129,127,126)" stroke-width="1.51"/><path d="M136,564L111,668L230,627Z" fill="rgb(145,162,152)" stroke="rgb(145,162,152)" stroke-width="1.51"/><path d="M-80,450L-19,474L3,442Z" fill="rgb(89,88,96)" stroke="rgb(89,88,96)" stroke-width="1.51"/><path d="M584,327L585,266L529,251Z" fill="rgb(152,175,161)" stroke="rgb(152,175,161)" stroke-width="1.51"/><path d="M-19,474L30,547L51,499Z" fill="rgb(112,102,107)" stroke="rgb(112,102,107)" stroke-width="1.51"/><path d="M66,96L-25,58L-6,152Z" fill="rgb(31,45,65)" stroke="rgb(31,45,65)" stroke-width="1.51"/><path d="M105,-7L54,53L147,72Z" fill="rgb(34,62,79)" stroke="rgb(34,62,79)" stroke-width="1.51"/><path d="M303,659L335,636L286,595Z" fill="rgb(195,190,169)" stroke="rgb(195,190,169)" stroke-width="1.51"/><path d="M223,36L105,-7L147,72Z" fill="rgb(38,73,87)" stroke="rgb(38,73,87)" stroke-width="1.51"/><path d="M296,-29L293,49L328,41Z" fill="rgb(87,92,100)" stroke="rgb(87,92,100)" stroke-width="1.51"/><path d="M481,524L558,477L491,399Z" fill="rgb(207,199,175)" stroke="rgb(207,199,175)" stroke-width="1.51"/><path d="M560,591L558,477L481,524Z" fill="rgb(233,207,181)" stroke="rgb(233,207,181)" stroke-width="1.51"/><path d="M446,602L432,509L324,566Z" fill="rgb(227,198,174)" stroke="rgb(227,198,174)" stroke-width="1.51"/><path d="M332,-51L296,-29L328,41Z" fill="rgb(93,89,97)" stroke="rgb(93,89,97)" stroke-width="1.51"/><path d="M584,327L596,221L585,266Z" fill="rgb(151,174,160)" stroke="rgb(151,174,160)" stroke-width="1.51"/><path d="M558,477L593,402L491,399Z" fill="rgb(190,193,172)" stroke="rgb(190,193,172)" stroke-width="1.51"/><path d="M335,636L446,602L324,566Z" fill="rgb(227,198,174)" stroke="rgb(227,198,174)" stroke-width="1.51"/><path d="M585,266L596,221L529,251Z" fill="rgb(150,171,159)" stroke="rgb(150,171,159)" stroke-width="1.51"/><path d="M593,402L596,221L584,327Z" fill="rgb(154,179,163)" stroke="rgb(154,179,163)" stroke-width="1.51"/><path d="M505,33L411,40L510,124Z" fill="rgb(132,129,127)" stroke="rgb(132,129,127)" stroke-width="1.51"/><path d="M505,33L414,-1L411,40Z" fill="rgb(125,113,115)" stroke="rgb(125,113,115)" stroke-width="1.51"/><path d="M411,40L414,-1L328,41Z" fill="rgb(120,107,110)" stroke="rgb(120,107,110)" stroke-width="1.51"/><path d="M335,636L428,640L446,602Z" fill="rgb(231,205,179)" stroke="rgb(231,205,179)" stroke-width="1.51"/><path d="M230,627L303,659L286,595Z" fill="rgb(174,183,164)" stroke="rgb(174,183,164)" stroke-width="1.51"/><path d="M303,702L303,659L230,627Z" fill="rgb(179,187,168)" stroke="rgb(179,187,168)" stroke-width="1.51"/><path d="M230,-26L105,-7L223,36Z" fill="rgb(39,68,83)" stroke="rgb(39,68,83)" stroke-width="1.51"/><path d="M-37,329L-80,450L3,442Z" fill="rgb(69,82,92)" stroke="rgb(69,82,92)" stroke-width="1.51"/><path d="M-88,210L-24,301L-9,221Z" fill="rgb(37,65,81)" stroke="rgb(37,65,81)" stroke-width="1.51"/><path d="M-6,152L-88,210L-9,221Z" fill="rgb(35,61,78)" stroke="rgb(35,61,78)" stroke-width="1.51"/><path d="M-79,101L-88,210L-6,152Z" fill="rgb(33,53,72)" stroke="rgb(33,53,72)" stroke-width="1.51"/><path d="M-25,58L66,96L54,53Z" fill="rgb(31,43,64)" stroke="rgb(31,43,64)" stroke-width="1.51"/><path d="M446,602L491,638L478,574Z" fill="rgb(236,213,185)" stroke="rgb(236,213,185)" stroke-width="1.51"/><path d="M478,574L560,591L481,524Z" fill="rgb(235,210,183)" stroke="rgb(235,210,183)" stroke-width="1.51"/><path d="M423,714L428,640L335,636Z" fill="rgb(233,208,181)" stroke="rgb(233,208,181)" stroke-width="1.51"/><path d="M-96,353L-80,450L-37,329Z" fill="rgb(56,79,90)" stroke="rgb(56,79,90)" stroke-width="1.51"/><path d="M-19,474L-35,596L30,547Z" fill="rgb(116,97,103)" stroke="rgb(116,97,103)" stroke-width="1.51"/><path d="M414,-1L332,-51L328,41Z" fill="rgb(114,95,102)" stroke="rgb(114,95,102)" stroke-width="1.51"/><path d="M296,-29L265,-113L230,-26Z" fill="rgb(60,80,91)" stroke="rgb(60,80,91)" stroke-width="1.51"/><path d="M133,-75L25,-20L105,-7Z" fill="rgb(31,47,67)" stroke="rgb(31,47,67)" stroke-width="1.51"/><path d="M559,73L505,33L510,124Z" fill="rgb(135,133,130)" stroke="rgb(135,133,130)" stroke-width="1.51"/><path d="M414,-1L347,-85L332,-51Z" fill="rgb(116,96,102)" stroke="rgb(116,96,102)" stroke-width="1.51"/><path d="M-88,210L-111,300L-24,301Z" fill="rgb(39,68,83)" stroke="rgb(39,68,83)" stroke-width="1.51"/><path d="M-96,353L-111,589L-80,450Z" fill="rgb(92,89,97)" stroke="rgb(92,89,97)" stroke-width="1.51"/><path d="M-111,589L-77,485L-80,450Z" fill="rgb(109,94,100)" stroke="rgb(109,94,100)" stroke-width="1.51"/><path d="M-80,450L-77,485L-19,474Z" fill="rgb(94,89,97)" stroke="rgb(94,89,97)" stroke-width="1.51"/><path d="M604,109L559,73L510,124Z" fill="rgb(137,140,136)" stroke="rgb(137,140,136)" stroke-width="1.51"/><path d="M25,-20L-25,58L54,53Z" fill="rgb(27,29,52)" stroke="rgb(27,29,52)" stroke-width="1.51"/><path d="M36,656L136,564L30,547Z" fill="rgb(131,130,128)" stroke="rgb(131,130,128)" stroke-width="1.51"/><path d="M36,656L111,668L136,564Z" fill="rgb(137,145,140)" stroke="rgb(137,145,140)" stroke-width="1.51"/><path d="M303,659L303,702L335,636Z" fill="rgb(202,194,172)" stroke="rgb(202,194,172)" stroke-width="1.51"/><path d="M201,747L303,702L230,627Z" fill="rgb(159,183,166)" stroke="rgb(159,183,166)" stroke-width="1.51"/><path d="M593,402L604,109L596,221Z" fill="rgb(150,171,158)" stroke="rgb(150,171,158)" stroke-width="1.51"/><path d="M596,221L604,109L506,178Z" fill="rgb(145,161,152)" stroke="rgb(145,161,152)" stroke-width="1.51"/><path d="M428,640L491,638L446,602Z" fill="rgb(236,212,185)" stroke="rgb(236,212,185)" stroke-width="1.51"/><path d="M558,477L560,591L593,402Z" fill="rgb(217,202,177)" stroke="rgb(217,202,177)" stroke-width="1.51"/><path d="M423,714L491,638L428,640Z" fill="rgb(238,215,187)" stroke="rgb(238,215,187)" stroke-width="1.51"/><path d="M-25,58L-79,101L-6,152Z" fill="rgb(30,41,62)" stroke="rgb(30,41,62)" stroke-width="1.51"/><path d="M-88,210L-121,46L-111,300Z" fill="rgb(34,60,77)" stroke="rgb(34,60,77)" stroke-width="1.51"/><path d="M518,-35L414,-1L505,33Z" fill="rgb(125,110,113)" stroke="rgb(125,110,113)" stroke-width="1.51"/><path d="M428,-104L347,-85L414,-1Z" fill="rgb(118,100,105)" stroke="rgb(118,100,105)" stroke-width="1.51"/><path d="M332,-51L265,-113L296,-29Z" fill="rgb(80,85,94)" stroke="rgb(80,85,94)" stroke-width="1.51"/><path d="M-25,58L-121,46L-79,101Z" fill="rgb(27,32,55)" stroke="rgb(27,32,55)" stroke-width="1.51"/><path d="M105,-7L25,-20L54,53Z" fill="rgb(29,40,60)" stroke="rgb(29,40,60)" stroke-width="1.51"/><path d="M133,-75L105,-7L230,-26Z" fill="rgb(37,64,80)" stroke="rgb(37,64,80)" stroke-width="1.51"/><path d="M223,-127L133,-75L230,-26Z" fill="rgb(39,69,84)" stroke="rgb(39,69,84)" stroke-width="1.51"/><path d="M491,638L560,591L478,574Z" fill="rgb(237,213,186)" stroke="rgb(237,213,186)" stroke-width="1.51"/><path d="M-77,485L-35,596L-19,474Z" fill="rgb(113,94,101)" stroke="rgb(113,94,101)" stroke-width="1.51"/><path d="M-35,596L36,656L30,547Z" fill="rgb(121,106,110)" stroke="rgb(121,106,110)" stroke-width="1.51"/><path d="M273,797L329,744L303,702Z" fill="rgb(196,195,173)" stroke="rgb(196,195,173)" stroke-width="1.51"/><path d="M347,-85L265,-113L332,-51Z" fill="rgb(90,88,96)" stroke="rgb(90,88,96)" stroke-width="1.51"/><path d="M559,73L549,-6L505,33Z" fill="rgb(129,120,120)" stroke="rgb(129,120,120)" stroke-width="1.51"/><path d="M604,109L549,-6L559,73Z" fill="rgb(133,127,127)" stroke="rgb(133,127,127)" stroke-width="1.51"/><path d="M549,-6L518,-35L505,33Z" fill="rgb(125,110,113)" stroke="rgb(125,110,113)" stroke-width="1.51"/><path d="M347,-85L428,-104L265,-113Z" fill="rgb(108,93,100)" stroke="rgb(108,93,100)" stroke-width="1.51"/><path d="M303,702L423,714L335,636Z" fill="rgb(227,204,178)" stroke="rgb(227,204,178)" stroke-width="1.51"/><path d="M491,638L563,651L560,591Z" fill="rgb(239,216,187)" stroke="rgb(239,216,187)" stroke-width="1.51"/><path d="M-35,596L-39,625L36,656Z" fill="rgb(121,104,108)" stroke="rgb(121,104,108)" stroke-width="1.51"/><path d="M-111,589L-39,625L-35,596Z" fill="rgb(120,102,107)" stroke="rgb(120,102,107)" stroke-width="1.51"/><path d="M303,702L329,744L423,714Z" fill="rgb(227,205,179)" stroke="rgb(227,205,179)" stroke-width="1.51"/><path d="M201,747L230,627L111,668Z" fill="rgb(150,171,158)" stroke="rgb(150,171,158)" stroke-width="1.51"/><path d="M104,732L201,747L111,668Z" fill="rgb(147,166,155)" stroke="rgb(147,166,155)" stroke-width="1.51"/><path d="M104,732L111,668L36,656Z" fill="rgb(139,145,140)" stroke="rgb(139,145,140)" stroke-width="1.51"/><path d="M-2,-82L-39,-36L25,-20Z" fill="rgb(22,15,41)" stroke="rgb(22,15,41)" stroke-width="1.51"/><path d="M265,-113L223,-127L230,-26Z" fill="rgb(43,76,88)" stroke="rgb(43,76,88)" stroke-width="1.51"/><path d="M428,-104L223,-127L265,-113Z" fill="rgb(85,86,95)" stroke="rgb(85,86,95)" stroke-width="1.51"/><path d="M475,-102L428,-104L414,-1Z" fill="rgb(122,105,109)" stroke="rgb(122,105,109)" stroke-width="1.51"/><path d="M55,752L104,732L36,656Z" fill="rgb(137,139,135)" stroke="rgb(137,139,135)" stroke-width="1.51"/><path d="M511,719L563,651L491,638Z" fill="rgb(241,220,191)" stroke="rgb(241,220,191)" stroke-width="1.51"/><path d="M560,591L563,651L593,402Z" fill="rgb(234,208,182)" stroke="rgb(234,208,182)" stroke-width="1.51"/><path d="M25,-20L-39,-36L-25,58Z" fill="rgb(22,15,41)" stroke="rgb(22,15,41)" stroke-width="1.51"/><path d="M-2,-82L25,-20L62,-127Z" fill="rgb(25,26,49)" stroke="rgb(25,26,49)" stroke-width="1.51"/><path d="M-23,720L55,752L36,656Z" fill="rgb(129,120,120)" stroke="rgb(129,120,120)" stroke-width="1.51"/><path d="M-77,485L-111,589L-35,596Z" fill="rgb(117,98,103)" stroke="rgb(117,98,103)" stroke-width="1.51"/><path d="M-111,300L-111,589L-96,353Z" fill="rgb(72,83,93)" stroke="rgb(72,83,93)" stroke-width="1.51"/><path d="M518,-35L475,-102L414,-1Z" fill="rgb(124,109,112)" stroke="rgb(124,109,112)" stroke-width="1.51"/><path d="M428,-104L475,-102L223,-127Z" fill="rgb(117,97,103)" stroke="rgb(117,97,103)" stroke-width="1.51"/><path d="M565,-92L475,-102L518,-35Z" fill="rgb(125,110,113)" stroke="rgb(125,110,113)" stroke-width="1.51"/><path d="M-39,-36L-121,46L-25,58Z" fill="rgb(23,21,45)" stroke="rgb(23,21,45)" stroke-width="1.51"/><path d="M-79,101L-121,46L-88,210Z" fill="rgb(31,44,65)" stroke="rgb(31,44,65)" stroke-width="1.51"/><path d="M-111,300L-115,646L-111,589Z" fill="rgb(110,94,101)" stroke="rgb(110,94,101)" stroke-width="1.51"/><path d="M-39,-36L-126,-31L-121,46Z" fill="rgb(22,15,41)" stroke="rgb(22,15,41)" stroke-width="1.51"/><path d="M62,-127L25,-20L133,-75Z" fill="rgb(30,42,62)" stroke="rgb(30,42,62)" stroke-width="1.51"/><path d="M492,808L511,719L423,714Z" fill="rgb(242,222,192)" stroke="rgb(242,222,192)" stroke-width="1.51"/><path d="M423,714L511,719L491,638Z" fill="rgb(242,222,192)" stroke="rgb(242,222,192)" stroke-width="1.51"/><path d="M223,-127L62,-127L133,-75Z" fill="rgb(35,62,78)" stroke="rgb(35,62,78)" stroke-width="1.51"/><path d="M329,744L435,810L423,714Z" fill="rgb(236,211,184)" stroke="rgb(236,211,184)" stroke-width="1.51"/><path d="M201,747L273,797L303,702Z" fill="rgb(169,187,168)" stroke="rgb(169,187,168)" stroke-width="1.51"/><path d="M220,809L273,797L201,747Z" fill="rgb(156,181,165)" stroke="rgb(156,181,165)" stroke-width="1.51"/><path d="M135,809L220,809L201,747Z" fill="rgb(151,174,160)" stroke="rgb(151,174,160)" stroke-width="1.51"/><path d="M-23,720L36,656L-39,625Z" fill="rgb(123,107,111)" stroke="rgb(123,107,111)" stroke-width="1.51"/><path d="M273,797L328,795L329,744Z" fill="rgb(201,197,174)" stroke="rgb(201,197,174)" stroke-width="1.51"/><path d="M-100,700L-23,720L-39,625Z" fill="rgb(124,109,112)" stroke="rgb(124,109,112)" stroke-width="1.51"/><path d="M135,809L201,747L104,732Z" fill="rgb(148,167,156)" stroke="rgb(148,167,156)" stroke-width="1.51"/><path d="M273,797L220,809L328,795Z" fill="rgb(178,190,170)" stroke="rgb(178,190,170)" stroke-width="1.51"/><path d="M-111,589L-115,646L-39,625Z" fill="rgb(121,103,108)" stroke="rgb(121,103,108)" stroke-width="1.51"/><path d="M-121,46L-115,646L-111,300Z" fill="rgb(42,74,86)" stroke="rgb(42,74,86)" stroke-width="1.51"/><path d="M549,-6L565,-92L518,-35Z" fill="rgb(125,110,113)" stroke="rgb(125,110,113)" stroke-width="1.51"/><path d="M604,109L565,-92L549,-6Z" fill="rgb(125,111,114)" stroke="rgb(125,111,114)" stroke-width="1.51"/><path d="M55,752L135,809L104,732Z" fill="rgb(142,153,146)" stroke="rgb(142,153,146)" stroke-width="1.51"/><path d="M27,779L135,809L55,752Z" fill="rgb(138,142,137)" stroke="rgb(138,142,137)" stroke-width="1.51"/><path d="M-121,46L-126,-31L-115,646Z" fill="rgb(36,63,79)" stroke="rgb(36,63,79)" stroke-width="1.51"/><path d="M-113,-86L-126,-31L-39,-36Z" fill="rgb(22,15,41)" stroke="rgb(22,15,41)" stroke-width="1.51"/><path d="M-113,-86L-39,-36L-2,-82Z" fill="rgb(22,15,41)" stroke="rgb(22,15,41)" stroke-width="1.51"/><path d="M-23,720L27,779L55,752Z" fill="rgb(128,118,119)" stroke="rgb(128,118,119)" stroke-width="1.51"/><path d="M-12,792L27,779L-23,720Z" fill="rgb(125,110,113)" stroke="rgb(125,110,113)" stroke-width="1.51"/><path d="M-119,812L435,810L220,809Z" fill="rgb(151,173,160)" stroke="rgb(151,173,160)" stroke-width="1.51"/><path d="M220,809L435,810L328,795Z" fill="rgb(212,200,176)" stroke="rgb(212,200,176)" stroke-width="1.51"/><path d="M328,795L435,810L329,744Z" fill="rgb(233,207,181)" stroke="rgb(233,207,181)" stroke-width="1.51"/><path d="M-115,646L-100,700L-39,625Z" fill="rgb(123,106,110)" stroke="rgb(123,106,110)" stroke-width="1.51"/><path d="M511,719L573,750L563,651Z" fill="rgb(243,223,193)" stroke="rgb(243,223,193)" stroke-width="1.51"/><path d="M563,651L573,750L593,402Z" fill="rgb(237,213,186)" stroke="rgb(237,213,186)" stroke-width="1.51"/><path d="M559,781L573,750L511,719Z" fill="rgb(243,223,193)" stroke="rgb(243,223,193)" stroke-width="1.51"/><path d="M62,-127L-113,-86L-2,-82Z" fill="rgb(22,15,41)" stroke="rgb(22,15,41)" stroke-width="1.51"/><path d="M435,810L492,808L423,714Z" fill="rgb(241,219,190)" stroke="rgb(241,219,190)" stroke-width="1.51"/><path d="M-119,812L-12,792L-23,720Z" fill="rgb(125,110,113)" stroke="rgb(125,110,113)" stroke-width="1.51"/><path d="M27,779L-12,792L135,809Z" fill="rgb(134,132,129)" stroke="rgb(134,132,129)" stroke-width="1.51"/><path d="M492,808L559,781L511,719Z" fill="rgb(243,223,193)" stroke="rgb(243,223,193)" stroke-width="1.51"/><path d="M-100,700L-119,812L-23,720Z" fill="rgb(125,110,113)" stroke="rgb(125,110,113)" stroke-width="1.51"/><path d="M-12,792L-119,812L135,809Z" fill="rgb(125,110,114)" stroke="rgb(125,110,114)" stroke-width="1.51"/><path d="M135,809L-119,812L220,809Z" fill="rgb(139,144,139)" stroke="rgb(139,144,139)" stroke-width="1.51"/><path d="M-115,646L-119,812L-100,700Z" fill="rgb(125,110,113)" stroke="rgb(125,110,113)" stroke-width="1.51"/><path d="M-126,-31L-119,812L-115,646Z" fill="rgb(97,90,98)" stroke="rgb(97,90,98)" stroke-width="1.51"/></svg>