<svg xmlns="http://www.w3.org/2000/svg" width="768" height="800"><path d="M422,347L473,269L402,302Z" fill="rgb(44,116,121)" stroke="rgb(44,116,121)" stroke-width="1.51"/><path d="M422,347L504,350L473,269Z" fill="rgb(50,125,127)" stroke="rgb(50,125,127)" stroke-width="1.51"/><path d="M473,269L440,222L402,302Z" fill="rgb(44,104,111)" stroke="rgb(44,104,111)" stroke-width="1.51"/><path d="M402,302L323,348L422,347Z" fill="rgb(41,116,122)" stroke="rgb(41,116,122)" stroke-width="1.51"/><path d="M440,222L362,280L402,302Z" fill="rgb(42,101,110)" stroke="rgb(42,101,110)" stroke-width="1.51"/><path d="M473,269L497,214L440,222Z" fill="rgb(51,99,107)" stroke="rgb(51,99,107)" stroke-width="1.51"/><path d="M580,308L497,214L473,269Z" fill="rgb(81,115,118)" stroke="rgb(81,115,118)" stroke-width="1.51"/><path d="M504,350L580,308L473,269Z" fill="rgb(85,129,130)" stroke="rgb(85,129,130)" stroke-width="1.51"/><path d="M362,280L323,348L402,302Z" fill="rgb(40,109,117)" stroke="rgb(40,109,117)" stroke-width="1.51"/><path d="M422,347L475,450L504,350Z" fill="rgb(54,132,132)" stroke="rgb(54,132,132)" stroke-width="1.51"/><path d="M566,350L580,308L504,350Z" fill="rgb(105,140,136)" stroke="rgb(105,140,136)" stroke-width="1.51"/><path d="M440,222L373,189L362,280Z" fill="rgb(41,88,99)" stroke="rgb(41,88,99)" stroke-width="1.51"/><path d="M268,264L276,352L323,348Z" fill="rgb(37,100,110)" stroke="rgb(37,100,110)" stroke-width="1.51"/><path d="M396,136L373,189L440,222Z" fill="rgb(40,76,89)" stroke="rgb(40,76,89)" stroke-width="1.51"/><path d="M432,465L475,450L422,347Z" fill="rgb(50,134,133)" stroke="rgb(50,134,133)" stroke-width="1.51"/><path d="M504,350L561,410L566,350Z" fill="rgb(103,143,138)" stroke="rgb(103,143,138)" stroke-width="1.51"/><path d="M475,450L561,410L504,350Z" fill="rgb(88,142,138)" stroke="rgb(88,142,138)" stroke-width="1.51"/><path d="M672,339L663,260L580,308Z" fill="rgb(135,144,139)" stroke="rgb(135,144,139)" stroke-width="1.51"/><path d="M345,453L432,465L422,347Z" fill="rgb(48,128,129)" stroke="rgb(48,128,129)" stroke-width="1.51"/><path d="M580,308L584,203L497,214Z" fill="rgb(98,113,116)" stroke="rgb(98,113,116)" stroke-width="1.51"/><path d="M496,114L396,136L440,222Z" fill="rgb(42,74,86)" stroke="rgb(42,74,86)" stroke-width="1.51"/><path d="M323,348L345,453L422,347Z" fill="rgb(43,119,124)" stroke="rgb(43,119,124)" stroke-width="1.51"/><path d="M268,264L323,348L362,280Z" fill="rgb(37,100,110)" stroke="rgb(37,100,110)" stroke-width="1.51"/><path d="M266,414L345,453L323,348Z" fill="rgb(42,116,122)" stroke="rgb(42,116,122)" stroke-width="1.51"/><path d="M270,206L268,264L362,280Z" fill="rgb(36,82,96)" stroke="rgb(36,82,96)" stroke-width="1.51"/><path d="M496,114L440,222L497,214Z" fill="rgb(54,85,95)" stroke="rgb(54,85,95)" stroke-width="1.51"/><path d="M270,206L362,280L373,189Z" fill="rgb(38,81,94)" stroke="rgb(38,81,94)" stroke-width="1.51"/><path d="M584,203L573,165L497,214Z" fill="rgb(92,98,104)" stroke="rgb(92,98,104)" stroke-width="1.51"/><path d="M396,136L355,135L373,189Z" fill="rgb(38,67,82)" stroke="rgb(38,67,82)" stroke-width="1.51"/><path d="M432,465L479,505L475,450Z" fill="rgb(55,142,139)" stroke="rgb(55,142,139)" stroke-width="1.51"/><path d="M475,450L563,501L561,410Z" fill="rgb(102,152,144)" stroke="rgb(102,152,144)" stroke-width="1.51"/><path d="M445,535L479,505L432,465Z" fill="rgb(70,146,140)" stroke="rgb(70,146,140)" stroke-width="1.51"/><path d="M573,165L496,114L497,214Z" fill="rgb(75,85,95)" stroke="rgb(75,85,95)" stroke-width="1.51"/><path d="M396,136L420,39L355,135Z" fill="rgb(44,76,88)" stroke="rgb(44,76,88)" stroke-width="1.51"/><path d="M355,135L270,206L373,189Z" fill="rgb(36,66,82)" stroke="rgb(36,66,82)" stroke-width="1.51"/><path d="M276,352L266,414L323,348Z" fill="rgb(40,106,114)" stroke="rgb(40,106,114)" stroke-width="1.51"/><path d="M193,355L266,414L276,352Z" fill="rgb(40,92,103)" stroke="rgb(40,92,103)" stroke-width="1.51"/><path d="M345,453L345,494L432,465Z" fill="rgb(49,131,131)" stroke="rgb(49,131,131)" stroke-width="1.51"/><path d="M266,414L345,494L345,453Z" fill="rgb(44,123,126)" stroke="rgb(44,123,126)" stroke-width="1.51"/><path d="M580,308L663,260L584,203Z" fill="rgb(126,126,125)" stroke="rgb(126,126,125)" stroke-width="1.51"/><path d="M584,203L642,192L573,165Z" fill="rgb(112,102,106)" stroke="rgb(112,102,106)" stroke-width="1.51"/><path d="M672,339L580,308L566,350Z" fill="rgb(133,148,141)" stroke="rgb(133,148,141)" stroke-width="1.51"/><path d="M479,505L563,501L475,450Z" fill="rgb(91,151,143)" stroke="rgb(91,151,143)" stroke-width="1.51"/><path d="M646,439L672,339L566,350Z" fill="rgb(141,156,146)" stroke="rgb(141,156,146)" stroke-width="1.51"/><path d="M646,439L566,350L561,410Z" fill="rgb(130,154,145)" stroke="rgb(130,154,145)" stroke-width="1.51"/><path d="M558,58L507,50L496,114Z" fill="rgb(83,97,101)" stroke="rgb(83,97,101)" stroke-width="1.51"/><path d="M663,260L642,192L584,203Z" fill="rgb(124,116,117)" stroke="rgb(124,116,117)" stroke-width="1.51"/><path d="M479,505L486,603L563,501Z" fill="rgb(121,159,149)" stroke="rgb(121,159,149)" stroke-width="1.51"/><path d="M345,494L445,535L432,465Z" fill="rgb(66,139,136)" stroke="rgb(66,139,136)" stroke-width="1.51"/><path d="M563,501L646,439L561,410Z" fill="rgb(133,160,148)" stroke="rgb(133,160,148)" stroke-width="1.51"/><path d="M173,269L193,355L268,264Z" fill="rgb(35,69,85)" stroke="rgb(35,69,85)" stroke-width="1.51"/><path d="M268,264L193,355L276,352Z" fill="rgb(37,87,100)" stroke="rgb(37,87,100)" stroke-width="1.51"/><path d="M355,135L261,144L270,206Z" fill="rgb(33,56,74)" stroke="rgb(33,56,74)" stroke-width="1.51"/><path d="M274,69L261,144L355,135Z" fill="rgb(38,62,79)" stroke="rgb(38,62,79)" stroke-width="1.51"/><path d="M663,260L715,217L642,192Z" fill="rgb(128,121,122)" stroke="rgb(128,121,122)" stroke-width="1.51"/><path d="M672,339L704,294L663,260Z" fill="rgb(137,146,141)" stroke="rgb(137,146,141)" stroke-width="1.51"/><path d="M712,363L704,294L672,339Z" fill="rgb(142,157,149)" stroke="rgb(142,157,149)" stroke-width="1.51"/><path d="M173,269L268,264L183,190Z" fill="rgb(33,52,71)" stroke="rgb(33,52,71)" stroke-width="1.51"/><path d="M266,414L249,534L345,494Z" fill="rgb(46,118,121)" stroke="rgb(46,118,121)" stroke-width="1.51"/><path d="M641,572L643,531L563,501Z" fill="rgb(173,175,158)" stroke="rgb(173,175,158)" stroke-width="1.51"/><path d="M345,494L411,569L445,535Z" fill="rgb(87,143,139)" stroke="rgb(87,143,139)" stroke-width="1.51"/><path d="M336,612L411,569L345,494Z" fill="rgb(100,143,138)" stroke="rgb(100,143,138)" stroke-width="1.51"/><path d="M496,114L420,39L396,136Z" fill="rgb(48,82,92)" stroke="rgb(48,82,92)" stroke-width="1.51"/><path d="M558,58L496,114L573,165Z" fill="rgb(89,94,99)" stroke="rgb(89,94,99)" stroke-width="1.51"/><path d="M646,439L712,363L672,339Z" fill="rgb(144,161,151)" stroke="rgb(144,161,151)" stroke-width="1.51"/><path d="M507,50L420,39L496,114Z" fill="rgb(60,91,98)" stroke="rgb(60,91,98)" stroke-width="1.51"/><path d="M622,70L558,58L573,165Z" fill="rgb(109,101,105)" stroke="rgb(109,101,105)" stroke-width="1.51"/><path d="M193,355L194,420L266,414Z" fill="rgb(40,86,97)" stroke="rgb(40,86,97)" stroke-width="1.51"/><path d="M183,190L268,264L270,206Z" fill="rgb(33,56,74)" stroke="rgb(33,56,74)" stroke-width="1.51"/><path d="M193,355L112,340L194,420Z" fill="rgb(37,68,84)" stroke="rgb(37,68,84)" stroke-width="1.51"/><path d="M704,294L715,217L663,260Z" fill="rgb(133,135,132)" stroke="rgb(133,135,132)" stroke-width="1.51"/><path d="M642,192L672,118L573,165Z" fill="rgb(116,97,103)" stroke="rgb(116,97,103)" stroke-width="1.51"/><path d="M772,303L715,217L704,294Z" fill="rgb(137,143,138)" stroke="rgb(137,143,138)" stroke-width="1.51"/><path d="M420,39L322,49L355,135Z" fill="rgb(46,78,89)" stroke="rgb(46,78,89)" stroke-width="1.51"/><path d="M261,144L183,190L270,206Z" fill="rgb(30,44,65)" stroke="rgb(30,44,65)" stroke-width="1.51"/><path d="M168,137L183,190L261,144Z" fill="rgb(26,30,53)" stroke="rgb(26,30,53)" stroke-width="1.51"/><path d="M707,119L672,118L642,192Z" fill="rgb(121,104,108)" stroke="rgb(121,104,108)" stroke-width="1.51"/><path d="M672,118L622,70L573,165Z" fill="rgb(121,103,106)" stroke="rgb(121,103,106)" stroke-width="1.51"/><path d="M646,439L731,449L712,363Z" fill="rgb(148,168,155)" stroke="rgb(148,168,155)" stroke-width="1.51"/><path d="M563,501L643,531L646,439Z" fill="rgb(152,169,154)" stroke="rgb(152,169,154)" stroke-width="1.51"/><path d="M486,603L479,505L445,535Z" fill="rgb(105,155,146)" stroke="rgb(105,155,146)" stroke-width="1.51"/><path d="M322,49L274,69L355,135Z" fill="rgb(42,70,85)" stroke="rgb(42,70,85)" stroke-width="1.51"/><path d="M411,569L486,603L445,535Z" fill="rgb(110,155,146)" stroke="rgb(110,155,146)" stroke-width="1.51"/><path d="M186,490L249,534L266,414Z" fill="rgb(45,101,108)" stroke="rgb(45,101,108)" stroke-width="1.51"/><path d="M411,569L416,676L486,603Z" fill="rgb(134,160,149)" stroke="rgb(134,160,149)" stroke-width="1.51"/><path d="M173,269L142,283L193,355Z" fill="rgb(34,58,76)" stroke="rgb(34,58,76)" stroke-width="1.51"/><path d="M138,191L142,283L173,269Z" fill="rgb(29,39,60)" stroke="rgb(29,39,60)" stroke-width="1.51"/><path d="M420,39L397,-32L322,49Z" fill="rgb(52,87,95)" stroke="rgb(52,87,95)" stroke-width="1.51"/><path d="M507,50L488,-1L420,39Z" fill="rgb(63,97,101)" stroke="rgb(63,97,101)" stroke-width="1.51"/><path d="M580,10L488,-1L507,50Z" fill="rgb(91,105,107)" stroke="rgb(91,105,107)" stroke-width="1.51"/><path d="M580,10L507,50L558,58Z" fill="rgb(100,105,107)" stroke="rgb(100,105,107)" stroke-width="1.51"/><path d="M729,518L731,449L646,439Z" fill="rgb(152,175,159)" stroke="rgb(152,175,159)" stroke-width="1.51"/><path d="M712,363L772,303L704,294Z" fill="rgb(143,159,150)" stroke="rgb(143,159,150)" stroke-width="1.51"/><path d="M194,420L186,490L266,414Z" fill="rgb(43,90,100)" stroke="rgb(43,90,100)" stroke-width="1.51"/><path d="M134,461L186,490L194,420Z" fill="rgb(42,79,91)" stroke="rgb(42,79,91)" stroke-width="1.51"/><path d="M703,50L650,11L622,70Z" fill="rgb(131,118,116)" stroke="rgb(131,118,116)" stroke-width="1.51"/><path d="M715,217L707,119L642,192Z" fill="rgb(123,108,111)" stroke="rgb(123,108,111)" stroke-width="1.51"/><path d="M191,597L261,570L249,534Z" fill="rgb(94,113,116)" stroke="rgb(94,113,116)" stroke-width="1.51"/><path d="M249,534L261,570L345,494Z" fill="rgb(80,125,126)" stroke="rgb(80,125,126)" stroke-width="1.51"/><path d="M261,570L336,612L345,494Z" fill="rgb(97,137,134)" stroke="rgb(97,137,134)" stroke-width="1.51"/><path d="M715,217L796,130L707,119Z" fill="rgb(124,108,111)" stroke="rgb(124,108,111)" stroke-width="1.51"/><path d="M784,369L772,303L712,363Z" fill="rgb(146,165,154)" stroke="rgb(146,165,154)" stroke-width="1.51"/><path d="M622,70L580,10L558,58Z" fill="rgb(117,109,110)" stroke="rgb(117,109,110)" stroke-width="1.51"/><path d="M650,11L580,10L622,70Z" fill="rgb(130,116,114)" stroke="rgb(130,116,114)" stroke-width="1.51"/><path d="M579,613L641,572L563,501Z" fill="rgb(176,176,159)" stroke="rgb(176,176,159)" stroke-width="1.51"/><path d="M643,531L729,518L646,439Z" fill="rgb(158,175,159)" stroke="rgb(158,175,159)" stroke-width="1.51"/><path d="M183,190L138,191L173,269Z" fill="rgb(28,34,56)" stroke="rgb(28,34,56)" stroke-width="1.51"/><path d="M218,69L168,137L261,144Z" fill="rgb(32,38,59)" stroke="rgb(32,38,59)" stroke-width="1.51"/><path d="M520,639L579,613L486,603Z" fill="rgb(170,174,158)" stroke="rgb(170,174,158)" stroke-width="1.51"/><path d="M486,603L579,613L563,501Z" fill="rgb(156,170,155)" stroke="rgb(156,170,155)" stroke-width="1.51"/><path d="M168,137L138,191L183,190Z" fill="rgb(23,21,45)" stroke="rgb(23,21,45)" stroke-width="1.51"/><path d="M249,-40L274,69L322,49Z" fill="rgb(46,70,83)" stroke="rgb(46,70,83)" stroke-width="1.51"/><path d="M249,-40L218,69L274,69Z" fill="rgb(43,59,74)" stroke="rgb(43,59,74)" stroke-width="1.51"/><path d="M274,69L218,69L261,144Z" fill="rgb(37,52,69)" stroke="rgb(37,52,69)" stroke-width="1.51"/><path d="M62,265L112,340L142,283Z" fill="rgb(38,59,76)" stroke="rgb(38,59,76)" stroke-width="1.51"/><path d="M142,283L112,340L193,355Z" fill="rgb(35,60,78)" stroke="rgb(35,60,78)" stroke-width="1.51"/><path d="M416,676L520,639L486,603Z" fill="rgb(153,169,154)" stroke="rgb(153,169,154)" stroke-width="1.51"/><path d="M772,303L776,220L715,217Z" fill="rgb(136,137,134)" stroke="rgb(136,137,134)" stroke-width="1.51"/><path d="M731,449L784,369L712,363Z" fill="rgb(149,169,157)" stroke="rgb(149,169,157)" stroke-width="1.51"/><path d="M772,303L860,234L776,220Z" fill="rgb(137,140,136)" stroke="rgb(137,140,136)" stroke-width="1.51"/><path d="M488,-1L397,-32L420,39Z" fill="rgb(58,96,101)" stroke="rgb(58,96,101)" stroke-width="1.51"/><path d="M446,-65L397,-32L488,-1Z" fill="rgb(58,97,102)" stroke="rgb(58,97,102)" stroke-width="1.51"/><path d="M186,490L191,597L249,534Z" fill="rgb(78,100,107)" stroke="rgb(78,100,107)" stroke-width="1.51"/><path d="M112,340L134,461L194,420Z" fill="rgb(39,69,83)" stroke="rgb(39,69,83)" stroke-width="1.51"/><path d="M731,449L795,432L784,369Z" fill="rgb(152,175,161)" stroke="rgb(152,175,161)" stroke-width="1.51"/><path d="M734,571L729,518L643,531Z" fill="rgb(181,185,166)" stroke="rgb(181,185,166)" stroke-width="1.51"/><path d="M734,571L643,531L641,572Z" fill="rgb(187,185,165)" stroke="rgb(187,185,165)" stroke-width="1.51"/><path d="M579,613L633,636L641,572Z" fill="rgb(206,186,165)" stroke="rgb(206,186,165)" stroke-width="1.51"/><path d="M520,639L546,645L579,613Z" fill="rgb(186,179,161)" stroke="rgb(186,179,161)" stroke-width="1.51"/><path d="M518,730L546,645L520,639Z" fill="rgb(182,180,162)" stroke="rgb(182,180,162)" stroke-width="1.51"/><path d="M496,-65L446,-65L488,-1Z" fill="rgb(68,101,104)" stroke="rgb(68,101,104)" stroke-width="1.51"/><path d="M703,50L622,70L672,118Z" fill="rgb(128,113,113)" stroke="rgb(128,113,113)" stroke-width="1.51"/><path d="M703,50L672,118L707,119Z" fill="rgb(128,113,114)" stroke="rgb(128,113,114)" stroke-width="1.51"/><path d="M110,75L115,165L168,137Z" fill="rgb(28,23,46)" stroke="rgb(28,23,46)" stroke-width="1.51"/><path d="M168,137L115,165L138,191Z" fill="rgb(23,19,43)" stroke="rgb(23,19,43)" stroke-width="1.51"/><path d="M61,222L62,265L142,283Z" fill="rgb(37,50,68)" stroke="rgb(37,50,68)" stroke-width="1.51"/><path d="M792,73L703,50L707,119Z" fill="rgb(132,120,118)" stroke="rgb(132,120,118)" stroke-width="1.51"/><path d="M862,146L796,130L776,220Z" fill="rgb(126,111,114)" stroke="rgb(126,111,114)" stroke-width="1.51"/><path d="M729,518L795,432L731,449Z" fill="rgb(155,179,163)" stroke="rgb(155,179,163)" stroke-width="1.51"/><path d="M336,612L416,676L411,569Z" fill="rgb(132,155,145)" stroke="rgb(132,155,145)" stroke-width="1.51"/><path d="M355,674L416,676L336,612Z" fill="rgb(141,157,147)" stroke="rgb(141,157,147)" stroke-width="1.51"/><path d="M397,-32L321,-40L322,49Z" fill="rgb(53,86,94)" stroke="rgb(53,86,94)" stroke-width="1.51"/><path d="M218,69L110,75L168,137Z" fill="rgb(30,27,49)" stroke="rgb(30,27,49)" stroke-width="1.51"/><path d="M397,-32L345,-115L321,-40Z" fill="rgb(53,87,95)" stroke="rgb(53,87,95)" stroke-width="1.51"/><path d="M496,-65L488,-1L580,10Z" fill="rgb(91,108,108)" stroke="rgb(91,108,108)" stroke-width="1.51"/><path d="M546,645L633,636L579,613Z" fill="rgb(204,185,165)" stroke="rgb(204,185,165)" stroke-width="1.51"/><path d="M694,650L633,636L618,733Z" fill="rgb(226,197,173)" stroke="rgb(226,197,173)" stroke-width="1.51"/><path d="M551,-95L496,-65L580,10Z" fill="rgb(101,111,110)" stroke="rgb(101,111,110)" stroke-width="1.51"/><path d="M251,689L355,674L336,612Z" fill="rgb(138,150,143)" stroke="rgb(138,150,143)" stroke-width="1.51"/><path d="M251,689L336,612L261,570Z" fill="rgb(125,136,133)" stroke="rgb(125,136,133)" stroke-width="1.51"/><path d="M133,566L191,597L186,490Z" fill="rgb(79,90,98)" stroke="rgb(79,90,98)" stroke-width="1.51"/><path d="M729,518L820,523L795,432Z" fill="rgb(162,184,167)" stroke="rgb(162,184,167)" stroke-width="1.51"/><path d="M694,650L734,571L641,572Z" fill="rgb(207,192,170)" stroke="rgb(207,192,170)" stroke-width="1.51"/><path d="M61,222L142,283L138,191Z" fill="rgb(32,40,60)" stroke="rgb(32,40,60)" stroke-width="1.51"/><path d="M32,411L101,500L134,461Z" fill="rgb(48,83,93)" stroke="rgb(48,83,93)" stroke-width="1.51"/><path d="M845,371L772,303L784,369Z" fill="rgb(147,166,155)" stroke="rgb(147,166,155)" stroke-width="1.51"/><path d="M776,220L796,130L715,217Z" fill="rgb(129,119,120)" stroke="rgb(129,119,120)" stroke-width="1.51"/><path d="M134,461L101,500L186,490Z" fill="rgb(46,78,89)" stroke="rgb(46,78,89)" stroke-width="1.51"/><path d="M32,411L134,461L112,340Z" fill="rgb(46,77,89)" stroke="rgb(46,77,89)" stroke-width="1.51"/><path d="M115,165L61,222L138,191Z" fill="rgb(30,31,52)" stroke="rgb(30,31,52)" stroke-width="1.51"/><path d="M321,-40L249,-40L322,49Z" fill="rgb(50,79,89)" stroke="rgb(50,79,89)" stroke-width="1.51"/><path d="M115,165L72,143L61,222Z" fill="rgb(31,29,51)" stroke="rgb(31,29,51)" stroke-width="1.51"/><path d="M269,-110L249,-40L321,-40Z" fill="rgb(49,73,85)" stroke="rgb(49,73,85)" stroke-width="1.51"/><path d="M795,432L845,371L784,369Z" fill="rgb(150,172,159)" stroke="rgb(150,172,159)" stroke-width="1.51"/><path d="M879,427L845,371L795,432Z" fill="rgb(152,174,160)" stroke="rgb(152,174,160)" stroke-width="1.51"/><path d="M101,500L133,566L186,490Z" fill="rgb(64,83,92)" stroke="rgb(64,83,92)" stroke-width="1.51"/><path d="M195,-16L110,75L218,69Z" fill="rgb(36,36,55)" stroke="rgb(36,36,55)" stroke-width="1.51"/><path d="M110,75L72,143L115,165Z" fill="rgb(31,27,49)" stroke="rgb(31,27,49)" stroke-width="1.51"/><path d="M249,-40L195,-16L218,69Z" fill="rgb(44,55,70)" stroke="rgb(44,55,70)" stroke-width="1.51"/><path d="M32,411L37,358L-31,389Z" fill="rgb(53,87,95)" stroke="rgb(53,87,95)" stroke-width="1.51"/><path d="M62,265L37,358L112,340Z" fill="rgb(43,71,85)" stroke="rgb(43,71,85)" stroke-width="1.51"/><path d="M37,358L-46,285L-31,389Z" fill="rgb(52,84,93)" stroke="rgb(52,84,93)" stroke-width="1.51"/><path d="M623,-95L551,-95L580,10Z" fill="rgb(121,116,114)" stroke="rgb(121,116,114)" stroke-width="1.51"/><path d="M496,-65L551,-95L446,-65Z" fill="rgb(80,105,106)" stroke="rgb(80,105,106)" stroke-width="1.51"/><path d="M446,-65L345,-115L397,-32Z" fill="rgb(56,92,98)" stroke="rgb(56,92,98)" stroke-width="1.51"/><path d="M623,-95L580,10L650,11Z" fill="rgb(134,121,117)" stroke="rgb(134,121,117)" stroke-width="1.51"/><path d="M748,-1L650,11L703,50Z" fill="rgb(137,125,121)" stroke="rgb(137,125,121)" stroke-width="1.51"/><path d="M796,130L792,73L707,119Z" fill="rgb(131,118,118)" stroke="rgb(131,118,118)" stroke-width="1.51"/><path d="M872,62L792,73L796,130Z" fill="rgb(133,121,120)" stroke="rgb(133,121,120)" stroke-width="1.51"/><path d="M867,300L860,234L772,303Z" fill="rgb(140,149,143)" stroke="rgb(140,149,143)" stroke-width="1.51"/><path d="M845,371L867,300L772,303Z" fill="rgb(146,164,154)" stroke="rgb(146,164,154)" stroke-width="1.51"/><path d="M633,636L694,650L641,572Z" fill="rgb(214,191,169)" stroke="rgb(214,191,169)" stroke-width="1.51"/><path d="M734,571L820,523L729,518Z" fill="rgb(184,190,170)" stroke="rgb(184,190,170)" stroke-width="1.51"/><path d="M596,724L633,636L546,645Z" fill="rgb(212,189,168)" stroke="rgb(212,189,168)" stroke-width="1.51"/><path d="M416,676L518,730L520,639Z" fill="rgb(162,175,158)" stroke="rgb(162,175,158)" stroke-width="1.51"/><path d="M444,745L518,730L416,676Z" fill="rgb(152,175,159)" stroke="rgb(152,175,159)" stroke-width="1.51"/><path d="M368,761L444,745L416,676Z" fill="rgb(148,169,156)" stroke="rgb(148,169,156)" stroke-width="1.51"/><path d="M191,597L251,689L261,570Z" fill="rgb(117,120,121)" stroke="rgb(117,120,121)" stroke-width="1.51"/><path d="M186,657L251,689L191,597Z" fill="rgb(124,115,116)" stroke="rgb(124,115,116)" stroke-width="1.51"/><path d="M37,358L32,411L112,340Z" fill="rgb(46,78,89)" stroke="rgb(46,78,89)" stroke-width="1.51"/><path d="M22,605L142,635L133,566Z" fill="rgb(106,99,104)" stroke="rgb(106,99,104)" stroke-width="1.51"/><path d="M807,587L820,523L734,571Z" fill="rgb(195,195,173)" stroke="rgb(195,195,173)" stroke-width="1.51"/><path d="M845,371L879,427L867,300Z" fill="rgb(148,168,157)" stroke="rgb(148,168,157)" stroke-width="1.51"/><path d="M792,73L748,-1L703,50Z" fill="rgb(138,127,123)" stroke="rgb(138,127,123)" stroke-width="1.51"/><path d="M249,-40L168,-101L195,-16Z" fill="rgb(43,51,67)" stroke="rgb(43,51,67)" stroke-width="1.51"/><path d="M551,-95L345,-115L446,-65Z" fill="rgb(58,98,102)" stroke="rgb(58,98,102)" stroke-width="1.51"/><path d="M142,635L186,657L191,597Z" fill="rgb(114,100,106)" stroke="rgb(114,100,106)" stroke-width="1.51"/><path d="M142,635L191,597L133,566Z" fill="rgb(99,91,99)" stroke="rgb(99,91,99)" stroke-width="1.51"/><path d="M368,761L416,676L355,674Z" fill="rgb(145,163,152)" stroke="rgb(145,163,152)" stroke-width="1.51"/><path d="M551,-95L746,-108L345,-115Z" fill="rgb(104,111,111)" stroke="rgb(104,111,111)" stroke-width="1.51"/><path d="M746,-108L623,-95L650,11Z" fill="rgb(137,126,121)" stroke="rgb(137,126,121)" stroke-width="1.51"/><path d="M618,733L596,724L556,797Z" fill="rgb(217,198,174)" stroke="rgb(217,198,174)" stroke-width="1.51"/><path d="M518,730L596,724L546,645Z" fill="rgb(196,187,166)" stroke="rgb(196,187,166)" stroke-width="1.51"/><path d="M867,300L862,146L860,234Z" fill="rgb(134,132,129)" stroke="rgb(134,132,129)" stroke-width="1.51"/><path d="M860,234L862,146L776,220Z" fill="rgb(131,123,123)" stroke="rgb(131,123,123)" stroke-width="1.51"/><path d="M792,73L816,9L748,-1Z" fill="rgb(141,131,126)" stroke="rgb(141,131,126)" stroke-width="1.51"/><path d="M820,523L879,427L795,432Z" fill="rgb(155,180,164)" stroke="rgb(155,180,164)" stroke-width="1.51"/><path d="M867,300L872,62L862,146Z" fill="rgb(126,113,115)" stroke="rgb(126,113,115)" stroke-width="1.51"/><path d="M22,605L133,566L101,500Z" fill="rgb(88,96,101)" stroke="rgb(88,96,101)" stroke-width="1.51"/><path d="M820,523L888,528L879,427Z" fill="rgb(163,185,167)" stroke="rgb(163,185,167)" stroke-width="1.51"/><path d="M694,650L807,587L734,571Z" fill="rgb(213,198,175)" stroke="rgb(213,198,175)" stroke-width="1.51"/><path d="M851,584L807,587L865,640Z" fill="rgb(215,201,177)" stroke="rgb(215,201,177)" stroke-width="1.51"/><path d="M345,-115L269,-110L321,-40Z" fill="rgb(51,82,92)" stroke="rgb(51,82,92)" stroke-width="1.51"/><path d="M105,-36L40,65L110,75Z" fill="rgb(41,41,58)" stroke="rgb(41,41,58)" stroke-width="1.51"/><path d="M596,724L618,733L633,636Z" fill="rgb(225,196,172)" stroke="rgb(225,196,172)" stroke-width="1.51"/><path d="M556,797L596,724L518,730Z" fill="rgb(201,193,171)" stroke="rgb(201,193,171)" stroke-width="1.51"/><path d="M251,689L368,761L355,674Z" fill="rgb(141,156,148)" stroke="rgb(141,156,148)" stroke-width="1.51"/><path d="M515,832L556,797L518,730Z" fill="rgb(190,192,171)" stroke="rgb(190,192,171)" stroke-width="1.51"/><path d="M246,761L368,761L251,689Z" fill="rgb(139,150,143)" stroke="rgb(139,150,143)" stroke-width="1.51"/><path d="M190,710L251,689L186,657Z" fill="rgb(126,118,119)" stroke="rgb(126,118,119)" stroke-width="1.51"/><path d="M-22,423L21,505L32,411Z" fill="rgb(56,94,100)" stroke="rgb(56,94,100)" stroke-width="1.51"/><path d="M32,411L21,505L101,500Z" fill="rgb(53,90,97)" stroke="rgb(53,90,97)" stroke-width="1.51"/><path d="M748,-1L746,-108L650,11Z" fill="rgb(140,130,124)" stroke="rgb(140,130,124)" stroke-width="1.51"/><path d="M872,62L816,9L792,73Z" fill="rgb(138,128,124)" stroke="rgb(138,128,124)" stroke-width="1.51"/><path d="M-49,196L-46,285L61,222Z" fill="rgb(44,57,72)" stroke="rgb(44,57,72)" stroke-width="1.51"/><path d="M-31,389L-22,423L32,411Z" fill="rgb(55,91,98)" stroke="rgb(55,91,98)" stroke-width="1.51"/><path d="M110,75L40,65L72,143Z" fill="rgb(37,34,53)" stroke="rgb(37,34,53)" stroke-width="1.51"/><path d="M105,-36L110,75L195,-16Z" fill="rgb(39,38,56)" stroke="rgb(39,38,56)" stroke-width="1.51"/><path d="M130,729L186,657L142,635Z" fill="rgb(118,98,104)" stroke="rgb(118,98,104)" stroke-width="1.51"/><path d="M130,729L190,710L186,657Z" fill="rgb(121,106,110)" stroke="rgb(121,106,110)" stroke-width="1.51"/><path d="M37,358L62,265L-46,285Z" fill="rgb(47,74,86)" stroke="rgb(47,74,86)" stroke-width="1.51"/><path d="M-46,285L62,265L61,222Z" fill="rgb(44,60,74)" stroke="rgb(44,60,74)" stroke-width="1.51"/><path d="M168,-101L105,-36L195,-16Z" fill="rgb(38,37,55)" stroke="rgb(38,37,55)" stroke-width="1.51"/><path d="M807,587L851,584L820,523Z" fill="rgb(197,196,173)" stroke="rgb(197,196,173)" stroke-width="1.51"/><path d="M810,684L807,587L694,650Z" fill="rgb(232,206,180)" stroke="rgb(232,206,180)" stroke-width="1.51"/><path d="M618,733L713,719L694,650Z" fill="rgb(229,202,177)" stroke="rgb(229,202,177)" stroke-width="1.51"/><path d="M879,427L872,62L867,300Z" fill="rgb(138,144,139)" stroke="rgb(138,144,139)" stroke-width="1.51"/><path d="M862,146L872,62L796,130Z" fill="rgb(130,118,118)" stroke="rgb(130,118,118)" stroke-width="1.51"/><path d="M851,584L888,528L820,523Z" fill="rgb(188,193,172)" stroke="rgb(188,193,172)" stroke-width="1.51"/><path d="M879,427L888,528L872,62Z" fill="rgb(147,165,155)" stroke="rgb(147,165,155)" stroke-width="1.51"/><path d="M-49,196L61,222L72,143Z" fill="rgb(38,40,59)" stroke="rgb(38,40,59)" stroke-width="1.51"/><path d="M190,710L246,761L251,689Z" fill="rgb(131,128,127)" stroke="rgb(131,128,127)" stroke-width="1.51"/><path d="M269,-110L168,-101L249,-40Z" fill="rgb(45,58,73)" stroke="rgb(45,58,73)" stroke-width="1.51"/><path d="M618,733L639,827L713,719Z" fill="rgb(232,207,181)" stroke="rgb(232,207,181)" stroke-width="1.51"/><path d="M515,832L518,730L444,745Z" fill="rgb(171,185,166)" stroke="rgb(171,185,166)" stroke-width="1.51"/><path d="M401,831L444,745L368,761Z" fill="rgb(151,174,160)" stroke="rgb(151,174,160)" stroke-width="1.51"/><path d="M-53,145L72,143L40,65Z" fill="rgb(40,39,56)" stroke="rgb(40,39,56)" stroke-width="1.51"/><path d="M-53,145L-49,196L72,143Z" fill="rgb(38,37,55)" stroke="rgb(38,37,55)" stroke-width="1.51"/><path d="M623,-95L746,-108L551,-95Z" fill="rgb(136,123,119)" stroke="rgb(136,123,119)" stroke-width="1.51"/><path d="M792,-85L746,-108L748,-1Z" fill="rgb(143,135,128)" stroke="rgb(143,135,128)" stroke-width="1.51"/><path d="M792,-85L748,-1L816,9Z" fill="rgb(144,136,129)" stroke="rgb(144,136,129)" stroke-width="1.51"/><path d="M105,-36L50,-39L40,65Z" fill="rgb(47,48,63)" stroke="rgb(47,48,63)" stroke-width="1.51"/><path d="M168,-101L94,-70L105,-36Z" fill="rgb(41,41,58)" stroke="rgb(41,41,58)" stroke-width="1.51"/><path d="M21,505L22,605L101,500Z" fill="rgb(83,99,103)" stroke="rgb(83,99,103)" stroke-width="1.51"/><path d="M190,710L216,817L246,761Z" fill="rgb(132,128,127)" stroke="rgb(132,128,127)" stroke-width="1.51"/><path d="M-45,611L22,605L21,505Z" fill="rgb(105,112,111)" stroke="rgb(105,112,111)" stroke-width="1.51"/><path d="M-57,485L21,505L-22,423Z" fill="rgb(59,98,102)" stroke="rgb(59,98,102)" stroke-width="1.51"/><path d="M851,584L865,640L888,528Z" fill="rgb(206,198,175)" stroke="rgb(206,198,175)" stroke-width="1.51"/><path d="M713,719L810,684L694,650Z" fill="rgb(233,208,181)" stroke="rgb(233,208,181)" stroke-width="1.51"/><path d="M819,734L810,684L713,719Z" fill="rgb(237,214,186)" stroke="rgb(237,214,186)" stroke-width="1.51"/><path d="M873,-83L792,-85L816,9Z" fill="rgb(144,136,129)" stroke="rgb(144,136,129)" stroke-width="1.51"/><path d="M336,834L401,831L368,761Z" fill="rgb(150,171,158)" stroke="rgb(150,171,158)" stroke-width="1.51"/><path d="M872,62L873,-1L816,9Z" fill="rgb(141,132,126)" stroke="rgb(141,132,126)" stroke-width="1.51"/><path d="M888,528L873,-1L872,62Z" fill="rgb(130,122,122)" stroke="rgb(130,122,122)" stroke-width="1.51"/><path d="M-88,271L-85,334L-46,285Z" fill="rgb(49,75,86)" stroke="rgb(49,75,86)" stroke-width="1.51"/><path d="M-11,41L-53,145L40,65Z" fill="rgb(45,46,61)" stroke="rgb(45,46,61)" stroke-width="1.51"/><path d="M26,639L130,729L142,635Z" fill="rgb(124,107,109)" stroke="rgb(124,107,109)" stroke-width="1.51"/><path d="M246,761L255,801L368,761Z" fill="rgb(142,155,147)" stroke="rgb(142,155,147)" stroke-width="1.51"/><path d="M401,831L515,832L444,745Z" fill="rgb(156,182,165)" stroke="rgb(156,182,165)" stroke-width="1.51"/><path d="M556,797L639,827L618,733Z" fill="rgb(226,203,178)" stroke="rgb(226,203,178)" stroke-width="1.51"/><path d="M94,-70L50,-39L105,-36Z" fill="rgb(46,46,61)" stroke="rgb(46,46,61)" stroke-width="1.51"/><path d="M216,817L255,801L246,761Z" fill="rgb(136,139,135)" stroke="rgb(136,139,135)" stroke-width="1.51"/><path d="M50,-39L-11,41L40,65Z" fill="rgb(49,51,64)" stroke="rgb(49,51,64)" stroke-width="1.51"/><path d="M810,684L865,640L807,587Z" fill="rgb(230,206,180)" stroke="rgb(230,206,180)" stroke-width="1.51"/><path d="M-92,409L-57,485L-22,423Z" fill="rgb(57,95,100)" stroke="rgb(57,95,100)" stroke-width="1.51"/><path d="M-46,285L-85,334L-31,389Z" fill="rgb(51,84,92)" stroke="rgb(51,84,92)" stroke-width="1.51"/><path d="M-88,271L-46,285L-49,196Z" fill="rgb(46,62,75)" stroke="rgb(46,62,75)" stroke-width="1.51"/><path d="M-92,409L-22,423L-31,389Z" fill="rgb(55,91,98)" stroke="rgb(55,91,98)" stroke-width="1.51"/><path d="M-45,611L26,639L22,605Z" fill="rgb(124,118,115)" stroke="rgb(124,118,115)" stroke-width="1.51"/><path d="M22,605L26,639L142,635Z" fill="rgb(121,108,109)" stroke="rgb(121,108,109)" stroke-width="1.51"/><path d="M255,801L336,834L368,761Z" fill="rgb(146,165,154)" stroke="rgb(146,165,154)" stroke-width="1.51"/><path d="M401,831L432,879L515,832Z" fill="rgb(156,181,165)" stroke="rgb(156,181,165)" stroke-width="1.51"/><path d="M-78,194L-88,271L-49,196Z" fill="rgb(43,53,69)" stroke="rgb(43,53,69)" stroke-width="1.51"/><path d="M-53,145L-78,194L-49,196Z" fill="rgb(40,41,59)" stroke="rgb(40,41,59)" stroke-width="1.51"/><path d="M-125,123L-78,194L-53,145Z" fill="rgb(38,37,55)" stroke="rgb(38,37,55)" stroke-width="1.51"/><path d="M-88,271L-92,409L-85,334Z" fill="rgb(51,84,93)" stroke="rgb(51,84,93)" stroke-width="1.51"/><path d="M-85,334L-92,409L-31,389Z" fill="rgb(54,88,96)" stroke="rgb(54,88,96)" stroke-width="1.51"/><path d="M581,888L639,827L556,797Z" fill="rgb(221,203,178)" stroke="rgb(221,203,178)" stroke-width="1.51"/><path d="M810,684L899,715L865,640Z" fill="rgb(234,210,183)" stroke="rgb(234,210,183)" stroke-width="1.51"/><path d="M-92,409L-76,492L-57,485Z" fill="rgb(58,97,102)" stroke="rgb(58,97,102)" stroke-width="1.51"/><path d="M-57,485L-45,611L21,505Z" fill="rgb(87,106,108)" stroke="rgb(87,106,108)" stroke-width="1.51"/><path d="M282,877L329,885L336,834Z" fill="rgb(146,164,154)" stroke="rgb(146,164,154)" stroke-width="1.51"/><path d="M130,729L216,817L190,710Z" fill="rgb(125,114,116)" stroke="rgb(125,114,116)" stroke-width="1.51"/><path d="M132,816L216,817L130,729Z" fill="rgb(125,111,114)" stroke="rgb(125,111,114)" stroke-width="1.51"/><path d="M774,786L819,734L713,719Z" fill="rgb(240,217,189)" stroke="rgb(240,217,189)" stroke-width="1.51"/><path d="M515,832L581,888L556,797Z" fill="rgb(201,197,174)" stroke="rgb(201,197,174)" stroke-width="1.51"/><path d="M329,885L432,879L401,831Z" fill="rgb(151,173,160)" stroke="rgb(151,173,160)" stroke-width="1.51"/><path d="M329,885L401,831L336,834Z" fill="rgb(149,169,157)" stroke="rgb(149,169,157)" stroke-width="1.51"/><path d="M873,-1L873,-83L816,9Z" fill="rgb(144,136,129)" stroke="rgb(144,136,129)" stroke-width="1.51"/><path d="M792,-85L873,-83L746,-108Z" fill="rgb(144,136,129)" stroke="rgb(144,136,129)" stroke-width="1.51"/><path d="M888,528L873,-83L873,-1Z" fill="rgb(126,112,114)" stroke="rgb(126,112,114)" stroke-width="1.51"/><path d="M704,829L774,786L713,719Z" fill="rgb(239,216,188)" stroke="rgb(239,216,188)" stroke-width="1.51"/><path d="M26,639L32,746L130,729Z" fill="rgb(130,116,115)" stroke="rgb(130,116,115)" stroke-width="1.51"/><path d="M-76,492L-45,611L-57,485Z" fill="rgb(84,106,107)" stroke="rgb(84,106,107)" stroke-width="1.51"/><path d="M639,827L704,829L713,719Z" fill="rgb(237,213,185)" stroke="rgb(237,213,185)" stroke-width="1.51"/><path d="M627,886L704,829L639,827Z" fill="rgb(235,211,184)" stroke="rgb(235,211,184)" stroke-width="1.51"/><path d="M-11,41L-95,72L-53,145Z" fill="rgb(45,46,61)" stroke="rgb(45,46,61)" stroke-width="1.51"/><path d="M50,-39L-53,15L-11,41Z" fill="rgb(54,57,68)" stroke="rgb(54,57,68)" stroke-width="1.51"/><path d="M-21,-85L-53,15L50,-39Z" fill="rgb(54,58,69)" stroke="rgb(54,58,69)" stroke-width="1.51"/><path d="M94,-70L41,-106L50,-39Z" fill="rgb(48,49,63)" stroke="rgb(48,49,63)" stroke-width="1.51"/><path d="M168,-101L41,-106L94,-70Z" fill="rgb(43,44,59)" stroke="rgb(43,44,59)" stroke-width="1.51"/><path d="M269,-110L41,-106L168,-101Z" fill="rgb(39,38,56)" stroke="rgb(39,38,56)" stroke-width="1.51"/><path d="M345,-115L41,-106L269,-110Z" fill="rgb(44,55,70)" stroke="rgb(44,55,70)" stroke-width="1.51"/><path d="M282,877L336,834L255,801Z" fill="rgb(144,157,149)" stroke="rgb(144,157,149)" stroke-width="1.51"/><path d="M432,879L500,898L515,832Z" fill="rgb(167,186,168)" stroke="rgb(167,186,168)" stroke-width="1.51"/><path d="M329,885L500,898L432,879Z" fill="rgb(154,178,163)" stroke="rgb(154,178,163)" stroke-width="1.51"/><path d="M179,914L282,877L216,817Z" fill="rgb(135,135,132)" stroke="rgb(135,135,132)" stroke-width="1.51"/><path d="M216,817L282,877L255,801Z" fill="rgb(138,143,139)" stroke="rgb(138,143,139)" stroke-width="1.51"/><path d="M-53,15L-95,72L-11,41Z" fill="rgb(49,52,65)" stroke="rgb(49,52,65)" stroke-width="1.51"/><path d="M-78,194L-125,123L-88,271Z" fill="rgb(41,46,63)" stroke="rgb(41,46,63)" stroke-width="1.51"/><path d="M-88,271L-125,123L-92,409Z" fill="rgb(47,67,79)" stroke="rgb(47,67,79)" stroke-width="1.51"/><path d="M500,898L581,888L515,832Z" fill="rgb(192,194,172)" stroke="rgb(192,194,172)" stroke-width="1.51"/><path d="M-45,611L-13,684L26,639Z" fill="rgb(134,121,117)" stroke="rgb(134,121,117)" stroke-width="1.51"/><path d="M73,825L132,816L130,729Z" fill="rgb(130,116,116)" stroke="rgb(130,116,116)" stroke-width="1.51"/><path d="M-95,72L-125,123L-53,145Z" fill="rgb(42,43,59)" stroke="rgb(42,43,59)" stroke-width="1.51"/><path d="M-13,684L32,746L26,639Z" fill="rgb(135,123,119)" stroke="rgb(135,123,119)" stroke-width="1.51"/><path d="M581,888L627,886L639,827Z" fill="rgb(232,206,180)" stroke="rgb(232,206,180)" stroke-width="1.51"/><path d="M824,870L851,811L774,786Z" fill="rgb(243,223,193)" stroke="rgb(243,223,193)" stroke-width="1.51"/><path d="M746,910L627,886L581,888Z" fill="rgb(234,210,183)" stroke="rgb(234,210,183)" stroke-width="1.51"/><path d="M888,528L899,715L873,-83Z" fill="rgb(150,171,159)" stroke="rgb(150,171,159)" stroke-width="1.51"/><path d="M865,640L899,715L888,528Z" fill="rgb(226,205,179)" stroke="rgb(226,205,179)" stroke-width="1.51"/><path d="M819,734L899,715L810,684Z" fill="rgb(237,214,186)" stroke="rgb(237,214,186)" stroke-width="1.51"/><path d="M851,811L899,715L819,734Z" fill="rgb(240,218,189)" stroke="rgb(240,218,189)" stroke-width="1.51"/><path d="M851,811L819,734L774,786Z" fill="rgb(242,220,191)" stroke="rgb(242,220,191)" stroke-width="1.51"/><path d="M-95,72L-80,-18L-125,123Z" fill="rgb(48,50,64)" stroke="rgb(48,50,64)" stroke-width="1.51"/><path d="M-53,15L-80,-18L-95,72Z" fill="rgb(51,55,67)" stroke="rgb(51,55,67)" stroke-width="1.51"/><path d="M41,-106L-21,-85L50,-39Z" fill="rgb(52,54,67)" stroke="rgb(52,54,67)" stroke-width="1.51"/><path d="M-13,684L-34,712L32,746Z" fill="rgb(138,128,122)" stroke="rgb(138,128,122)" stroke-width="1.51"/><path d="M-92,673L-34,712L-13,684Z" fill="rgb(137,125,121)" stroke="rgb(137,125,121)" stroke-width="1.51"/><path d="M-76,492L-106,577L-45,611Z" fill="rgb(99,110,110)" stroke="rgb(99,110,110)" stroke-width="1.51"/><path d="M-92,409L-106,577L-76,492Z" fill="rgb(66,101,104)" stroke="rgb(66,101,104)" stroke-width="1.51"/><path d="M-125,123L-106,577L-92,409Z" fill="rgb(53,87,95)" stroke="rgb(53,87,95)" stroke-width="1.51"/><path d="M-21,-85L-80,-18L-53,15Z" fill="rgb(54,58,69)" stroke="rgb(54,58,69)" stroke-width="1.51"/><path d="M-92,673L-13,684L-45,611Z" fill="rgb(135,122,118)" stroke="rgb(135,122,118)" stroke-width="1.51"/><path d="M32,746L73,825L130,729Z" fill="rgb(132,120,119)" stroke="rgb(132,120,119)" stroke-width="1.51"/><path d="M132,816L179,914L216,817Z" fill="rgb(128,118,119)" stroke="rgb(128,118,119)" stroke-width="1.51"/><path d="M-18,826L73,825L32,746Z" fill="rgb(140,131,126)" stroke="rgb(140,131,126)" stroke-width="1.51"/><path d="M824,870L774,786L704,829Z" fill="rgb(243,223,193)" stroke="rgb(243,223,193)" stroke-width="1.51"/><path d="M-34,712L-18,826L32,746Z" fill="rgb(141,132,126)" stroke="rgb(141,132,126)" stroke-width="1.51"/><path d="M-106,577L-92,673L-45,611Z" fill="rgb(125,118,115)" stroke="rgb(125,118,115)" stroke-width="1.51"/><path d="M119,905L179,914L132,816Z" fill="rgb(126,112,114)" stroke="rgb(126,112,114)" stroke-width="1.51"/><path d="M282,877L179,914L329,885Z" fill="rgb(140,148,142)" stroke="rgb(140,148,142)" stroke-width="1.51"/><path d="M329,885L179,914L500,898Z" fill="rgb(147,167,155)" stroke="rgb(147,167,155)" stroke-width="1.51"/><path d="M627,886L746,910L704,829Z" fill="rgb(237,215,187)" stroke="rgb(237,215,187)" stroke-width="1.51"/><path d="M500,898L746,910L581,888Z" fill="rgb(229,205,180)" stroke="rgb(229,205,180)" stroke-width="1.51"/><path d="M179,914L746,910L500,898Z" fill="rgb(164,185,167)" stroke="rgb(164,185,167)" stroke-width="1.51"/><path d="M-92,673L-81,723L-34,712Z" fill="rgb(138,127,122)" stroke="rgb(138,127,122)" stroke-width="1.51"/><path d="M73,825L119,905L132,816Z" fill="rgb(130,118,118)" stroke="rgb(130,118,118)" stroke-width="1.51"/><path d="M746,910L824,870L704,829Z" fill="rgb(243,222,192)" stroke="rgb(243,222,192)" stroke-width="1.51"/><path d="M851,811L876,862L899,715Z" fill="rgb(242,222,192)" stroke="rgb(242,222,192)" stroke-width="1.51"/><path d="M58,906L119,905L73,825Z" fill="rgb(133,121,120)" stroke="rgb(133,121,120)" stroke-width="1.51"/><path d="M-21,-85L-99,-98L-80,-18Z" fill="rgb(54,58,69)" stroke="rgb(54,58,69)" stroke-width="1.51"/><path d="M-80,-18L-99,-98L-125,123Z" fill="rgb(54,58,69)" stroke="rgb(54,58,69)" stroke-width="1.51"/><path d="M41,-106L-99,-98L-21,-85Z" fill="rgb(54,58,69)" stroke="rgb(54,58,69)" stroke-width="1.51"/><path d="M-81,723L-18,826L-34,712Z" fill="rgb(141,131,125)" stroke="rgb(141,131,125)" stroke-width="1.51"/><path d="M746,910L876,862L824,870Z" fill="rgb(243,223,193)" stroke="rgb(243,223,193)" stroke-width="1.51"/><path d="M824,870L876,862L851,811Z" fill="rgb(243,223,193)" stroke="rgb(243,223,193)" stroke-width="1.51"/><path d="M119,905L58,906L179,914Z" fill="rgb(129,116,116)" stroke="rgb(129,116,116)" stroke-width="1.51"/><path d="M-18,826L58,906L73,825Z" fill="rgb(139,129,125)" stroke="rgb(139,129,125)" stroke-width="1.51"/><path d="M-18,826L-26,886L58,906Z" fill="rgb(143,135,128)" stroke="rgb(143,135,128)" stroke-width="1.51"/><path d="M-113,817L-26,886L-18,826Z" fill="rgb(144,136,129)" stroke="rgb(144,136,129)" stroke-width="1.51"/><path d="M-81,723L-113,817L-18,826Z" fill="rgb(143,135,128)" stroke="rgb(143,135,128)" stroke-width="1.51"/><path d="M-92,673L-113,817L-81,723Z" fill="rgb(140,130,124)" stroke="rgb(140,130,124)" stroke-width="1.51"/><path d="M-106,577L-113,817L-92,673Z" fill="rgb(137,125,121)" stroke="rgb(137,125,121)" stroke-width="1.51"/><path d="M-120,901L-113,817L-106,577Z" fill="rgb(141,133,126)" stroke="rgb(141,133,126)" stroke-width="1.51"/><path d="M-113,817L-120,901L-26,886Z" fill="rgb(144,136,129)" stroke="rgb(144,136,129)" stroke-width="1.51"/><path d="M-26,886L-120,901L58,906Z" fill="rgb(144,136,129)" stroke="rgb(144,136,129)" stroke-width="1.51"/><path d="M58,906L-120,901L179,914Z" fill="rgb(139,129,125)" stroke="rgb(139,129,125)" stroke-width="1.51"/><path d="M-125,123L-120,901L-106,577Z" fill="rgb(87,106,108)" stroke="rgb(87,106,108)" stroke-width="1.51"/></svg>